<svg xmlns="http://www.w3.org/2000/svg" width="175.184" height="148" viewBox="0 0 175.184 148">
  <g id="card-4" transform="translate(0 0)">
    <g id="Group_298" data-name="Group 298" transform="translate(67.151 0.276)">
      <g id="Group_289" data-name="Group 289" transform="translate(15.558)">
        <path id="Path_673" data-name="Path 673" d="M470.88,215.212s-4.123.038-5.621,8.971c-1.739,10.353-2.172,12.851-2.13,15.175l-8.884,3.244,2.942,5.5s8.072-1.357,10.186-2.98c2.014-1.547,4.138-18.2,4.138-18.2Z" transform="translate(-452.568 -188.748)" fill="#f0d634"/>
        <path id="Path_674" data-name="Path 674" d="M509.522,249.824c1.577.841,1.581,1.952,4.445,1.952,1.106,0,2.359-.541,3.566-.541,1.925,0,2.535,1.611,2.527.541,0-.6-.066-1.993-5.249-3.422-4.039-1.115-4.186-2.962-4.186-2.962Z" transform="translate(-448.226 -186.378)" fill="#ddb08c"/>
        <g id="Group_270" data-name="Group 270" transform="translate(30.008 18.784)">
          <path id="Path_675" data-name="Path 675" d="M483.421,208.092s.073,3.524,1.118,4.58c0,0-.965,3.877-4.026,3.877v-8.032Z" transform="translate(-480.513 -208.092)" fill="#ddb08c"/>
        </g>
        <g id="Group_271" data-name="Group 271" transform="translate(25.979 18.784)">
          <path id="Path_676" data-name="Path 676" d="M477.9,208.092s-.071,3.524-1.123,4.58c0,0,.971,3.877,4.029,3.877v-8.032Z" transform="translate(-476.777 -208.092)" fill="#ddb08c"/>
        </g>
        <g id="Group_272" data-name="Group 272" transform="translate(26.944 18.784)">
          <path id="Path_677" data-name="Path 677" d="M481.337,212.321c-1.609,0-2.909-1.3-3.665-2.429a17.519,17.519,0,0,0,.157-1.8l2.907.425,2.908-.425a15.9,15.9,0,0,0,.413,3.075A3.864,3.864,0,0,1,481.337,212.321Z" transform="translate(-477.672 -208.092)" fill="#ddb08c"/>
        </g>
        <g id="Group_273" data-name="Group 273" transform="translate(30.008 24.334)">
          <path id="Path_678" data-name="Path 678" d="M487.522,213.238c1.641.9,7.784,1.981,8.082,5.115s-1.816,17.1-2.112,24.711.3,26.091.3,26.091H480.513v-53.01Z" transform="translate(-480.513 -213.238)" fill="#f0d634"/>
        </g>
        <g id="Group_274" data-name="Group 274" transform="translate(14.804 24.334)">
          <path id="Path_679" data-name="Path 679" d="M474.614,213.238c-1.639.9-7.873,2.683-8.17,5.816s1.9,16.4,2.2,24.01-.3,26.091-.3,26.091H481.62v-53.01Z" transform="translate(-466.416 -213.238)" fill="#f0d634"/>
        </g>
        <g id="Group_275" data-name="Group 275" transform="translate(30.138 23.868)">
          <path id="Path_680" data-name="Path 680" d="M489.658,214.09l-9.025,14.775V216.179l5.994-3.373Z" transform="translate(-480.633 -212.806)" fill="#fff"/>
        </g>
        <g id="Group_276" data-name="Group 276" transform="translate(21.204 23.868)">
          <path id="Path_681" data-name="Path 681" d="M472.35,214.062l8.934,14.8V216.179L475,212.806Z" transform="translate(-472.35 -212.806)" fill="#fff"/>
        </g>
        <g id="Group_280" data-name="Group 280" transform="translate(22.684)">
          <g id="Group_277" data-name="Group 277" transform="translate(0.072 5.528)">
            <path id="Path_682" data-name="Path 682" d="M481.041,211.946c-2.484,0-4.962-3.1-5.626-6.781a.922.922,0,0,1-.912-.367,3.081,3.081,0,0,1-.575-2.73.983.983,0,0,1,1.657-.394s-.169-5.874,5.456-5.874Z" transform="translate(-473.789 -195.801)" fill="#ddb08c"/>
          </g>
          <g id="Group_278" data-name="Group 278" transform="translate(7.324 5.528)">
            <path id="Path_683" data-name="Path 683" d="M480.513,211.946c2.485,0,4.966-3.1,5.625-6.781a.915.915,0,0,0,.909-.367,3.088,3.088,0,0,0,.581-2.73.984.984,0,0,0-1.659-.394s.168-5.874-5.456-5.874Z" transform="translate(-480.513 -195.801)" fill="#ddb08c"/>
          </g>
          <g id="Group_279" data-name="Group 279">
            <path id="Path_684" data-name="Path 684" d="M473.771,196.2c.243-2.874,1.82-5.448,7.276-5.528,5.459.08,7.028,2.653,7.275,5.528a18.749,18.749,0,0,1-.536,5.767c-1.114-.234-1.609,1.089-1.609,1.089.329-2.579-1.485-6.486-2.153-5.97a4.954,4.954,0,0,1-5.951,0c-.665-.517-2.482,3.391-2.156,5.97,0,0-.5-1.323-1.607-1.089A18.944,18.944,0,0,1,473.771,196.2Z" transform="translate(-473.722 -190.676)" fill="#242525"/>
          </g>
        </g>
        <g id="Group_281" data-name="Group 281" transform="translate(30.009 22.77)">
          <path id="Path_685" data-name="Path 685" d="M480.513,216.259l4.026-4.471,2.982,1.564-3.687,5.815Z" transform="translate(-480.513 -211.788)" fill="#dbe7eb"/>
        </g>
        <g id="Group_282" data-name="Group 282" transform="translate(23.002 22.77)">
          <path id="Path_686" data-name="Path 686" d="M481.024,216.259l-4.03-4.471-2.977,1.564,3.686,5.815Z" transform="translate(-474.017 -211.788)" fill="#dbe7eb"/>
        </g>
        <g id="Group_283" data-name="Group 283" transform="translate(0.699 47.849)">
          <rect id="Rectangle_156" data-name="Rectangle 156" width="9.133" height="14.491" transform="translate(0 1.22) rotate(-7.677)" fill="#d7d7d7"/>
        </g>
        <g id="Group_284" data-name="Group 284" transform="translate(0.699 47.849)" style="mix-blend-mode: multiply;isolation: isolate">
          <rect id="Rectangle_157" data-name="Rectangle 157" width="9.133" height="14.491" transform="translate(0 1.22) rotate(-7.677)" fill="#f6f6f6"/>
        </g>
        <g id="Group_285" data-name="Group 285" transform="translate(29.764 24.488)">
          <path id="Path_687" data-name="Path 687" d="M480.78,239.423l7.708-25.895L488,213.38l-7.711,25.9Z" transform="translate(-480.286 -213.38)" fill="#fff"/>
        </g>
        <g id="Group_286" data-name="Group 286" transform="translate(22.051 24.488)">
          <path id="Path_688" data-name="Path 688" d="M480.848,239.423l.494-.146-7.714-25.9-.493.149Z" transform="translate(-473.135 -213.38)" fill="#fff"/>
        </g>
        <g id="Group_287" data-name="Group 287" transform="translate(26.361 49.664)">
          <rect id="Rectangle_158" data-name="Rectangle 158" width="6.792" height="5.194" transform="translate(0.254 0.254)" fill="#fff"/>
          <path id="Path_689" data-name="Path 689" d="M477.131,236.723h7.3v5.7h-7.3Zm6.787.509h-6.279v4.681h6.279Z" transform="translate(-477.131 -236.723)" fill="#70523a"/>
        </g>
        <g id="Group_288" data-name="Group 288" transform="translate(0 53.267)">
          <path id="Path_690" data-name="Path 690" d="M454.144,241.669c.978,1.714,2.77.522,3.365.969.434.329.661,3.45-.428,4.677a2.8,2.8,0,0,1-2.058.547c-2.5-.153-3.182-7.21-1.1-7.8Z" transform="translate(-452.69 -240.063)" fill="#ddb08c"/>
        </g>
        <path id="Path_691" data-name="Path 691" d="M493.505,215.933s2.838,2.263,4.337,11.2a85.645,85.645,0,0,0,2.935,12.95l14.063,8.88-2.818,5.267-16.5-8.826L489,227.128Z" transform="translate(-449.838 -188.692)" fill="#f0d634"/>
        <path id="Path_692" data-name="Path 692" d="M520.213,253.013a3.006,3.006,0,0,0-5.808,0Z" transform="translate(-447.842 -185.954)" fill="#d7d7d7"/>
        <path id="Path_693" data-name="Path 693" d="M517.406,251.336a.265.265,0,0,1-.29.228h0a.266.266,0,0,1-.289-.228v-.661a.266.266,0,0,1,.289-.227h0a.265.265,0,0,1,.29.227Z" transform="translate(-447.652 -185.98)" fill="#a1a1a1"/>
      </g>
      <g id="Group_291" data-name="Group 291" transform="translate(83.207 28.781)">
        <path id="Path_694" data-name="Path 694" d="M516.481,221.575a2.2,2.2,0,1,0,2.448-1.918A2.2,2.2,0,0,0,516.481,221.575Z" transform="translate(-515.329 -214.045)" fill="#f0d634"/>
        <path id="Path_695" data-name="Path 695" d="M528.6,253.372l2.1.449,4.553-23.177-2.1-.454Z" transform="translate(-514.376 -213.216)" fill="#f0d634"/>
        <rect id="Rectangle_159" data-name="Rectangle 159" width="2.15" height="17.1" transform="translate(7.553 6.997) rotate(-43.573)" fill="#f0d634"/>
        <path id="Path_696" data-name="Path 696" d="M524.61,253.33a5.722,5.722,0,0,1,9.664,0Z" transform="translate(-514.689 -211.607)" fill="#f0d634"/>
        <path id="Path_697" data-name="Path 697" d="M529.624,250.7a5.715,5.715,0,0,1,.58-.031,5.213,5.213,0,0,1,4.835,2.658H533.88A5.04,5.04,0,0,0,529.624,250.7Z" transform="translate(-514.296 -211.607)" fill="#fbf557"/>
        <path id="Path_698" data-name="Path 698" d="M531.385,231.489a2.064,2.064,0,1,0,2.064-2.067A2.063,2.063,0,0,0,531.385,231.489Z" transform="translate(-514.157 -213.277)" fill="#f0d634"/>
        <path id="Path_699" data-name="Path 699" d="M532.126,231.43a1.265,1.265,0,1,0,1.265-1.268A1.263,1.263,0,0,0,532.126,231.43Z" transform="translate(-514.099 -213.218)" fill="#fbf557"/>
        <g id="Group_290" data-name="Group 290">
          <path id="Path_700" data-name="Path 700" d="M524.7,214.6a2.735,2.735,0,0,1,3.118.985c1.654,2.17.124,3.266.124,3.266l-5.917,8.01-3.307-4.337-3.306-4.334Z" transform="translate(-515.412 -214.453)" fill="#fbf557"/>
          <path id="Path_701" data-name="Path 701" d="M527.7,218.771l-5.917,8.01-3.307-4.337,9.1-6.939C529.231,217.675,527.7,218.771,527.7,218.771Z" transform="translate(-515.171 -214.37)" fill="#f0d634"/>
        </g>
      </g>
      <g id="Group_293" data-name="Group 293" transform="translate(30.759 65.691)">
        <rect id="Rectangle_160" data-name="Rectangle 160" width="17.882" height="2.284" transform="translate(1.671)" fill="#e06f3e"/>
        <g id="Group_292" data-name="Group 292" transform="translate(0 2.22)">
          <rect id="Rectangle_161" data-name="Rectangle 161" width="19.194" height="5.028" fill="#9d2622"/>
          <path id="Path_702" data-name="Path 702" d="M467.664,251.163a1.238,1.238,0,1,0,1.238-1.235A1.233,1.233,0,0,0,467.664,251.163Z" transform="translate(-466.716 -248.605)" fill="#651b21"/>
          <rect id="Rectangle_162" data-name="Rectangle 162" width="0.473" height="5.028" transform="translate(18.054)" fill="#651b21"/>
          <rect id="Rectangle_163" data-name="Rectangle 163" width="0.471" height="5.028" transform="translate(17.108)" fill="#651b21"/>
          <rect id="Rectangle_164" data-name="Rectangle 164" width="0.474" height="5.028" transform="translate(16.154)" fill="#651b21"/>
        </g>
      </g>
      <g id="Group_296" data-name="Group 296" transform="translate(55.293 44.311)">
        <g id="Group_294" data-name="Group 294">
          <path id="Path_703" data-name="Path 703" d="M524.347,249.474a1.511,1.511,0,0,1-1.511,1.512h-31.8a1.507,1.507,0,0,1-1.507-1.512V229.362a1.507,1.507,0,0,1,1.507-1.515h31.8a1.511,1.511,0,0,1,1.511,1.515Z" transform="translate(-489.531 -227.847)" fill="#d7d7d7"/>
          <path id="Path_704" data-name="Path 704" d="M509,245.709h-6.06l-1.078,6.806h8.223Z" transform="translate(-488.562 -226.444)" fill="#a1a1a1"/>
          <rect id="Rectangle_165" data-name="Rectangle 165" width="11.463" height="1.404" transform="translate(11.675 25.858)" fill="#d7d7d7"/>
        </g>
        <path id="Path_705" data-name="Path 705" d="M522.836,227.847h-31.8a1.507,1.507,0,0,0-1.507,1.515v20.112a1.5,1.5,0,0,0,.353.973L524.347,233.8v-4.44A1.511,1.511,0,0,0,522.836,227.847Z" transform="translate(-489.531 -227.847)" fill="#f6f6f6" style="mix-blend-mode: multiply;isolation: isolate"/>
        <g id="Group_295" data-name="Group 295" transform="translate(13.253 6.472)">
          <path id="Path_706" data-name="Path 706" d="M506.9,239.751c.53-.9.931-1.126.965-2.065v-.1a2.049,2.049,0,0,0-4.1,0,.444.444,0,0,0,.008.1c.028.939.432,1.162.961,2.065a1.271,1.271,0,0,1,.167.569H504.7v.517h.224a.263.263,0,0,0-.017.1.255.255,0,0,0,.087.2.266.266,0,0,0-.087.2.255.255,0,0,0,.084.192.224.224,0,0,0-.084.172.3.3,0,0,0,.266.263.679.679,0,0,0,.651.395.67.67,0,0,0,.642-.395c.16-.035.273-.14.273-.263a.244.244,0,0,0-.085-.172.277.277,0,0,0,.085-.192.283.283,0,0,0-.095-.2.245.245,0,0,0,.072-.3h.228v-.517h-.2A1.175,1.175,0,0,1,506.9,239.751Z" transform="translate(-501.666 -233.715)" fill="#fff"/>
          <path id="Path_707" data-name="Path 707" d="M505.923,235.153a.275.275,0,0,1-.233.3h0a.278.278,0,0,1-.234-.3v-1.007a.273.273,0,0,1,.234-.3h0a.271.271,0,0,1,.233.3Z" transform="translate(-501.533 -233.848)" fill="#fff"/>
          <path id="Path_708" data-name="Path 708" d="M504.653,235.308a.279.279,0,0,1-.052.379h0a.269.269,0,0,1-.351-.149l-.508-.875a.27.27,0,0,1,.053-.375h0a.273.273,0,0,1,.349.147Z" transform="translate(-501.672 -233.815)" fill="#fff"/>
          <path id="Path_709" data-name="Path 709" d="M503.63,236.073a.273.273,0,0,1,.147.355h0a.276.276,0,0,1-.374.05l-.874-.506a.274.274,0,0,1-.151-.354h0a.273.273,0,0,1,.379-.045Z" transform="translate(-501.777 -233.717)" fill="#fff"/>
          <path id="Path_710" data-name="Path 710" d="M503.132,237.251a.274.274,0,0,1,.3.233h0c0,.127-.138.23-.3.23h-1.013a.273.273,0,0,1-.3-.23h0a.272.272,0,0,1,.3-.233Z" transform="translate(-501.819 -233.581)" fill="#fff"/>
          <path id="Path_711" data-name="Path 711" d="M503.285,238.558a.274.274,0,0,1,.377.046h0a.275.275,0,0,1-.147.353l-.874.5a.281.281,0,0,1-.38-.045h0a.273.273,0,0,1,.151-.353Z" transform="translate(-501.786 -233.482)" fill="#fff"/>
          <path id="Path_712" data-name="Path 712" d="M503.9,239.562a.238.238,0,0,1,.324-.1h0a.245.245,0,0,1,.077.33l-.413.718a.24.24,0,0,1-.326.1h0a.237.237,0,0,1-.076-.332Z" transform="translate(-501.691 -233.409)" fill="#fff"/>
          <path id="Path_713" data-name="Path 713" d="M506.764,235.308a.276.276,0,0,0,.048.379h0a.272.272,0,0,0,.352-.149l.5-.875a.268.268,0,0,0-.045-.375h0a.285.285,0,0,0-.358.147Z" transform="translate(-501.435 -233.815)" fill="#fff"/>
          <path id="Path_714" data-name="Path 714" d="M507.813,236.073a.279.279,0,0,0-.148.355h0a.285.285,0,0,0,.382.05l.875-.506a.272.272,0,0,0,.14-.354h0a.264.264,0,0,0-.373-.045Z" transform="translate(-501.362 -233.717)" fill="#fff"/>
          <path id="Path_715" data-name="Path 715" d="M508.327,237.251a.272.272,0,0,0-.3.233h0a.272.272,0,0,0,.3.23h1.005c.17,0,.307-.1.307-.23h0c0-.132-.137-.233-.307-.233Z" transform="translate(-501.331 -233.581)" fill="#fff"/>
          <path id="Path_716" data-name="Path 716" d="M508.157,238.558a.271.271,0,0,0-.373.046h0a.276.276,0,0,0,.143.353l.875.5a.277.277,0,0,0,.376-.045h0a.269.269,0,0,0-.142-.353Z" transform="translate(-501.352 -233.482)" fill="#fff"/>
          <path id="Path_717" data-name="Path 717" d="M507.5,239.562a.234.234,0,0,0-.321-.1h0a.233.233,0,0,0-.076.33l.411.718a.244.244,0,0,0,.329.1h0a.247.247,0,0,0,.079-.332Z" transform="translate(-501.407 -233.409)" fill="#fff"/>
        </g>
        <path id="Path_718" data-name="Path 718" d="M509.492,248.792,509,245.709h-6.06l-1.073,6.765Z" transform="translate(-488.562 -226.444)" fill="#efefef" style="mix-blend-mode: multiply;isolation: isolate"/>
      </g>
      <g id="Group_297" data-name="Group 297" transform="translate(0 77.989)">
        <rect id="Rectangle_166" data-name="Rectangle 166" width="100.416" height="58.302" transform="translate(3.808 1.911)" fill="#fbf557"/>
        <rect id="Rectangle_167" data-name="Rectangle 167" width="104.808" height="3.344" transform="translate(1.613 2.721)" fill="#f0d634"/>
        <rect id="Rectangle_168" data-name="Rectangle 168" width="108.034" height="3.821" fill="#9d2622"/>
        <rect id="Rectangle_169" data-name="Rectangle 169" width="105.872" height="3.821" transform="translate(1.08 60.212)" fill="#f0d634"/>
        <rect id="Rectangle_170" data-name="Rectangle 170" width="102.717" height="20.062" transform="translate(2.66 21.546)" fill="#f0d634"/>
        <rect id="Rectangle_171" data-name="Rectangle 171" width="102.717" height="1.637" transform="translate(2.66 24.274)" fill="#fbf557"/>
        <rect id="Rectangle_172" data-name="Rectangle 172" width="102.717" height="1.638" transform="translate(2.66 37.24)" fill="#fbf557"/>
      </g>
    </g>
    <g id="Group_308" data-name="Group 308" transform="translate(0 0)">
      <path id="Path_719" data-name="Path 719" d="M422.14,310.514c-.792.733-3.289,1.673-4.489,1.341s-2.791-1.787-3.16-.911-1.062,3.323-.668,4.658a.976.976,0,0,0-.143.989c.18.689,1.814.937,3.945.99s8.535.8,10.329.326c1.793-.459,3.427-1.1,3.684-1.933s.844-2.577-.753-2.394a8.112,8.112,0,0,1-4.274-.406,20.711,20.711,0,0,1-3.2-2.038C422.731,310.427,422.463,310.218,422.14,310.514Z" transform="translate(-385.988 -170.066)" fill="#3d2d21"/>
      <path id="Path_720" data-name="Path 720" d="M397.579,308.6c-1.025.514-3.04.975-4.151.281s-2.3-2.632-2.938-1.853-2.043,3.047-2.042,4.519c0,0-.418.2-.447.954-.011.757,1.571,1.481,3.706,2.169s9.037,3.46,10.986,3.51,1.943.178,3.081-.743c.717-.573.737-1.7-1.19-2.137-2.133-.478-1.417-.01-2.081-.752a52.65,52.65,0,0,1-3.816-4.943C398.2,308.69,397.99,308.4,397.579,308.6Z" transform="translate(-388.001 -170.344)" fill="#3d2d21"/>
      <path id="Path_721" data-name="Path 721" d="M428.869,235.948c.357-.27,2.048.329,2.268.44a57.565,57.565,0,0,0,6.64-1.31c.307-.179,2.119-.833,2.7-2.144s.742-1.622.519-2.17-.3-1.426-1.11-1.675-4.156.317-5.451.555-5.47,3.3-5.47,3.3Z" transform="translate(-384.79 -183.879)" fill="#ddb08c"/>
      <path id="Path_722" data-name="Path 722" d="M406.084,209.873a41.608,41.608,0,0,0-3.424-5.784c-2.139-3.025-1.916-5.831-.461-7.554s4.876-4.286,7.405-4.11,4.156,4.127,5.184,6.306a8.22,8.22,0,0,1,.638,4.418l.189,2.975a12.555,12.555,0,0,0-2.319,2.9c-.188.342-.047,1.149-.225,1.5-.188.38-.475.436-.541.737a2.6,2.6,0,0,0,.458,1.948Z" transform="translate(-386.973 -190.263)" fill="#ddb08c"/>
      <path id="Path_723" data-name="Path 723" d="M428.788,231.871a7.331,7.331,0,0,1,2.95-1.972c1.324-.228,3.124-2.32,3.828-2.417s.408,1.631-.293,2.169-2.809,2.589-2.809,2.589l-3.49.822Z" transform="translate(-384.797 -184.186)" fill="#ddb08c"/>
      <g id="Group_305" data-name="Group 305" transform="translate(12.762)">
        <g id="Group_299" data-name="Group 299" transform="translate(4.522 7.762)">
          <path id="Path_724" data-name="Path 724" d="M415.384,205.714l-.027-.287-2.046-1.735a1.269,1.269,0,0,1-1.839.168l-7.369-6.243c-.459,3.572,1.255,7.409,1.461,8.109.225.8-.164,2.784-.75,4.917a55.1,55.1,0,0,0,6.359,1.188c-.579-1.485-1.1-4.45,2.209-3.974,3.07.441,2.958-.775,2.712-1.693C415.642,206.019,415.432,206.33,415.384,205.714Z" transform="translate(-404.026 -197.617)" fill="#ddb08c"/>
        </g>
        <g id="Group_303" data-name="Group 303">
          <g id="Group_301" data-name="Group 301" transform="translate(4.027 3.665)">
            <g id="Group_300" data-name="Group 300">
              <path id="Path_725" data-name="Path 725" d="M411.857,193.818c.469.41,2.979,1.048,3.9,3.473.519,1.334.408,1.207.228,1.7-.287.821.512,1.637.959,2.076.689.678,1.412,1.051.532,1.638-.989.659-.507.966-.153,1.217.272.193-.127.687-.247.833,0,0,.553.426.255.771s-.667.358-.659.66.451,1.437-.047,1.912c-.516.474-2,.331-2.764.369a2.912,2.912,0,0,0-2.187.813c-2.134,2.371-1.618,3.275-1.618,3.275a5.408,5.408,0,0,1-3.871-1.155c-.538-.365.952.343,1.063-.726.176-1.74-5.754-9.214-2.9-9.687.13-.022,5.9-3.031,5.9-3.031Z" transform="translate(-403.567 -193.818)" fill="#ddb08c"/>
            </g>
          </g>
          <g id="Group_302" data-name="Group 302">
            <path id="Path_726" data-name="Path 726" d="M399.917,198.621c.746-3.284,1.9-6.605,5.607-7.053s7.742.547,8.013-1.149c0,0,2.069,3.3,1.056,5.084-.423-.612-4.389,5.781-5.025,6.731-.634.967-.328-1.761-1.678-1.489s-1.9,3.1-1.3,4.3c.463.914-.808,3.067-.808,3.067l.132.839-2.263-2.113S399.172,201.906,399.917,198.621Z" transform="translate(-399.834 -190.42)" fill="#50311a"/>
          </g>
        </g>
        <g id="Group_304" data-name="Group 304" transform="translate(8.927 8.717)">
          <path id="Path_727" data-name="Path 727" d="M413.384,208.1a.862.862,0,0,1,.118-.008c.764-.038,2.249.1,2.764-.369a1.069,1.069,0,0,0,.223-.9c-.011,0-4.212.575-5.448-.555-1.584-1.438-1.454-3.553-2.47-6.745s-.038,2.112-.038,2.112.641,6.318,3.775,6.353A5.9,5.9,0,0,1,413.384,208.1Z" transform="translate(-408.111 -198.502)" fill="#50311a"/>
        </g>
      </g>
      <path id="Path_728" data-name="Path 728" d="M389.405,312.828l10.244,2.84s6.74-23.621,7.693-25.106,3.138-29.183,2.406-34.266l-11.679-4.392a37.849,37.849,0,0,1,.7,8.651c-.271,8.525-1.608,22.487-1.537,24.2C397.345,287.454,390.529,311.237,389.405,312.828Z" transform="translate(-387.891 -174.66)" fill="#651b21"/>
      <path id="Path_729" data-name="Path 729" d="M399.774,246.7s-5.508,4.461-1.258,11.167c3.614,5.7,12.089,28.949,12.089,28.949l4.47,32.489,10.229-2.163s-3.894-29.4-4.059-31.991-9.173-38.222-9.173-38.222Z" transform="translate(-387.301 -175.069)" fill="#9d2622"/>
      <path id="Path_730" data-name="Path 730" d="M410.277,231.434s.635,9.812,1.434,10.21,18.337-3.447,19.813-3.753l-1.219-6.315-12.988,1.92-2.294-12.82-4.561,10.25Z" transform="translate(-386.251 -184.971)" fill="#dce9f4"/>
      <path id="Path_731" data-name="Path 731" d="M410.277,231.434s.635,9.812,1.434,10.21,18.337-3.447,19.813-3.753l-1.219-6.315-12.988,1.92-2.294-12.82-4.561,10.25Z" transform="translate(-386.251 -184.971)" fill="#2f2022"/>
      <path id="Path_732" data-name="Path 732" d="M399.577,249.718s-.116-22.382-.167-24.681.361-13.087,4.8-14.842l1.153-1.88,7.308,2.817a93.337,93.337,0,0,1,4.655,9.62c1.4,3.757.091,9.856-.928,14.329s-3.585,18.035-3.585,18.035Z" transform="translate(-387.105 -189.014)" fill="#432825"/>
      <g id="Group_306" data-name="Group 306" transform="translate(43.133 39.532)">
        <rect id="Rectangle_173" data-name="Rectangle 173" width="18.585" height="12.993" transform="matrix(0.676, -0.737, 0.737, 0.676, 0, 13.692)" fill="#719249"/>
        <path id="Path_733" data-name="Path 733" d="M429.144,238.632l-.364-.335L441.344,224.6l.366.333Z" transform="translate(-427.931 -223.824)" fill="#567537"/>
        <rect id="Rectangle_174" data-name="Rectangle 174" width="3.366" height="6.827" transform="matrix(0.676, -0.737, 0.737, 0.676, 11.017, 7.279)" fill="#fff"/>
      </g>
      <path id="Path_734" data-name="Path 734" d="M404.089,249.872s.229,2.985.361,3.78,5.862-1.7,5.862-1.7l-1.225-2.836S404.588,249.215,404.089,249.872Z" transform="translate(-386.737 -180.582)" fill="#ddb08c"/>
      <path id="Path_735" data-name="Path 735" d="M406.683,211.785c5.079-.445,6.036,4.077,5.577,11.071s-4.163,13.508-4.068,15.33,2.015,14.476,2.015,14.476l-6.809.725s-3.12-16.306-2.854-20.444S401.162,212.269,406.683,211.785Z" transform="translate(-387.017 -186.109)" fill="#2f2022"/>
      <g id="Group_307" data-name="Group 307" transform="translate(15.705 70.277)">
        <rect id="Rectangle_175" data-name="Rectangle 175" width="8.754" height="2.03" transform="matrix(0.96, -0.279, 0.279, 0.96, 0, 2.442)" fill="#651b21"/>
      </g>
    </g>
  </g>
</svg>
