<svg xmlns="http://www.w3.org/2000/svg" width="112.528" height="148" viewBox="0 0 112.528 148">
  <g id="card-3" transform="translate(0)">
    <g id="Group_208" data-name="Group 208" transform="translate(38.31 0)">
      <g id="Group_197" data-name="Group 197">
        <path id="Path_492" data-name="Path 492" d="M525.833,38.987H464.109a6.282,6.282,0,0,0-6.244,6.322V171.6a6.287,6.287,0,0,0,6.244,6.322h61.724a6.293,6.293,0,0,0,6.25-6.322V45.309A6.288,6.288,0,0,0,525.833,38.987ZM528.176,167.7a5.813,5.813,0,0,1-5.592,6.014H467.365a5.814,5.814,0,0,1-5.6-6.014V50.1c0-6.772,2.5-7.1,5.6-7.1h11.062c.642,0,1.168.725,1.168,1.626v.388c0,2.108,1.162,2.117,2.586,2.117H507.76c1.439,0,2.593-.008,2.593-2.117V44.62c0-.9.519-1.626,1.172-1.626h11.06c3.089,0,5.592.9,5.592,7.1Z" transform="translate(-457.865 -38.987)" fill="#455a64"/>
        <line id="Line_2" data-name="Line 2" x1="0.208" transform="translate(3.693 121.151)" fill="none"/>
        <g id="Group_196" data-name="Group 196" transform="translate(4.468 5.596)">
          <path id="Path_493" data-name="Path 493" d="M528,50.749V168.308a5.811,5.811,0,0,1-5.593,6.011H467.188a5.812,5.812,0,0,1-5.6-6.011V50.749c0-6.769,2.5-7.1,5.6-7.1H478.25c.642,0,1.168.726,1.168,1.626v.388c0,2.109,1.162,2.116,2.585,2.116h25.579c1.438,0,2.593-.007,2.593-2.116v-.388c0-.9.518-1.626,1.171-1.626H522.4C525.494,43.649,528,44.549,528,50.749Z" transform="translate(-461.587 -43.649)" fill="#fff"/>
          <g id="Group_195" data-name="Group 195">
            <path id="Path_494" data-name="Path 494" d="M528,50.794V64.119H461.587V50.794c0-6.813,2.5-7.145,5.6-7.145H478.25c.642,0,1.168.731,1.168,1.636v.39c0,2.122,1.162,2.129,2.585,2.129h25.579c1.438,0,2.593-.007,2.593-2.129v-.39c0-.905.518-1.636,1.171-1.636H522.4C525.494,43.649,528,44.555,528,50.794Z" transform="translate(-461.587 -43.649)" fill="#f0d634"/>
            <g id="Group_190" data-name="Group 190" transform="translate(4.331 2.16)">
              <g id="u5Zjqx" transform="translate(8.028)">
                <g id="Group_187" data-name="Group 187">
                  <path id="Path_495" data-name="Path 495" d="M474.278,45.946l-.107.107-.061.06a1.455,1.455,0,0,0-2.061,0l-.058-.06-.1-.106,0,0v0l.007-.006c.046-.041.089-.082.136-.12a1.638,1.638,0,0,1,.312-.2,1.583,1.583,0,0,1,.415-.139c.067-.012.137-.019.207-.028.024,0,.176,0,.181,0,.047,0,.094,0,.14.011a1.6,1.6,0,0,1,.38.09,1.7,1.7,0,0,1,.5.292c.038.034.074.068.113.1Z" transform="translate(-471.883 -45.449)" fill="#f0d634"/>
                  <path id="Path_496" data-name="Path 496" d="M472.332,46.37l-.169-.167a1.189,1.189,0,0,1,.688-.346,1.2,1.2,0,0,1,1.033.343l-.17.168a.977.977,0,0,0-1.382,0Z" transform="translate(-471.827 -45.369)" fill="#f0d634"/>
                  <path id="Path_497" data-name="Path 497" d="M473.489,46.459l-.168.167a.5.5,0,0,0-.708,0l-.168-.168A.734.734,0,0,1,473.489,46.459Z" transform="translate(-471.77 -45.29)" fill="#f0d634"/>
                </g>
                <path id="Path_498" data-name="Path 498" d="M473.057,46.715a.151.151,0,1,1-.151-.152A.151.151,0,0,1,473.057,46.715Z" transform="translate(-471.708 -45.225)" fill="#f0d634"/>
              </g>
              <g id="Group_188" data-name="Group 188" transform="translate(0 0.381)">
                <path id="Path_499" data-name="Path 499" d="M465.2,46.205a.441.441,0,1,1,.441.441A.441.441,0,0,1,465.2,46.205Z" transform="translate(-465.195 -45.766)" fill="#f0d634"/>
                <path id="Path_500" data-name="Path 500" d="M466.35,46.205a.441.441,0,1,1,.44.441A.441.441,0,0,1,466.35,46.205Z" transform="translate(-464.964 -45.766)" fill="#f0d634"/>
                <path id="Path_501" data-name="Path 501" d="M467.5,46.205a.441.441,0,1,1,.441.441A.441.441,0,0,1,467.5,46.205Z" transform="translate(-464.732 -45.766)" fill="#f0d634"/>
                <path id="Path_502" data-name="Path 502" d="M468.66,46.205a.441.441,0,1,1,.441.441A.44.44,0,0,1,468.66,46.205Z" transform="translate(-464.501 -45.766)" fill="#f0d634"/>
                <path id="Path_503" data-name="Path 503" d="M469.815,46.205a.441.441,0,1,1,.44.441A.44.44,0,0,1,469.815,46.205Z" transform="translate(-464.27 -45.766)" fill="#f0d634"/>
              </g>
              <g id="Group_189" data-name="Group 189" transform="translate(53.517 0.122)">
                <path id="Path_504" data-name="Path 504" d="M513.364,47.21h-3.583V45.55h3.583Zm-3.4-.182h3.218v-1.3h-3.218Z" transform="translate(-509.781 -45.55)" fill="#f0d634"/>
                <rect id="Rectangle_147" data-name="Rectangle 147" width="2.31" height="1.096" transform="translate(0.297 0.282)" fill="#f0d634"/>
                <rect id="Rectangle_148" data-name="Rectangle 148" width="0.319" height="0.888" transform="translate(3.585 0.386)" fill="#f0d634"/>
              </g>
            </g>
            <g id="Group_194" data-name="Group 194" transform="translate(4.092 13.051)">
              <g id="Group_191" data-name="Group 191">
                <path id="Path_505" data-name="Path 505" d="M466.958,58.2,465,56.36l1.962-1.838.3.324-1.616,1.514,1.616,1.514Z" transform="translate(-464.996 -54.522)" fill="#f0d634"/>
              </g>
              <g id="Group_192" data-name="Group 192" transform="translate(55.968)">
                <path id="Path_506" data-name="Path 506" d="M511.928,54.522l1.962,1.838L511.928,58.2l-.3-.324,1.616-1.514-1.616-1.514Z" transform="translate(-511.624 -54.522)" fill="#f0d634"/>
              </g>
              <g id="Group_193" data-name="Group 193" transform="translate(23.307 0.701)">
                <path id="Path_507" data-name="Path 507" d="M486.494,55.488a1.31,1.31,0,0,1,0,1.806,1.166,1.166,0,0,1-.853.383,1.206,1.206,0,0,1-.875-.383,1.332,1.332,0,0,1,0-1.806,1.2,1.2,0,0,1,.875-.382A1.156,1.156,0,0,1,486.494,55.488Zm-.046.9a.926.926,0,0,0-.244-.625.766.766,0,0,0-.564-.253.778.778,0,0,0-.579.253.913.913,0,0,0-.242.625.9.9,0,0,0,.242.621.782.782,0,0,0,.579.258.771.771,0,0,0,.564-.258A.909.909,0,0,0,486.449,56.392Z" transform="translate(-484.413 -55.106)" fill="#f0d634"/>
                <path id="Path_508" data-name="Path 508" d="M488.7,57.369a.2.2,0,0,1-.125.25.317.317,0,0,1-.079.011h0a.261.261,0,0,1-.139-.04.358.358,0,0,1-.114-.125.952.952,0,0,1-.074-.429.3.3,0,0,0-.043-.154.339.339,0,0,0-.107-.1.671.671,0,0,0-.2-.085h-.421v.774a.2.2,0,0,1-.2.2.2.2,0,0,1-.2-.2V55.362a.194.194,0,0,1,.2-.2h.64a.763.763,0,0,1,.485,1.354.531.531,0,0,1,.126.132.679.679,0,0,1,.118.385.9.9,0,0,0,.014.211A.19.19,0,0,1,488.7,57.369Zm-.5-1.436a.368.368,0,0,0-.367-.372h-.439V56.3h.439A.367.367,0,0,0,488.2,55.933Z" transform="translate(-483.896 -55.094)" fill="#f0d634"/>
                <path id="Path_509" data-name="Path 509" d="M488.894,57.468V55.362a.194.194,0,0,1,.2-.2h.421a1.25,1.25,0,0,1,0,2.5h-.421A.2.2,0,0,1,488.894,57.468Zm.4-.2h.222a.854.854,0,0,0,0-1.708h-.222Z" transform="translate(-483.515 -55.094)" fill="#f0d634"/>
                <path id="Path_510" data-name="Path 510" d="M490.885,57.468V55.362a.194.194,0,0,1,.2-.2h1.168a.2.2,0,0,1,.2.2.2.2,0,0,1-.2.2h-.967v.654h.832a.2.2,0,0,1,0,.4h-.832v.658h.967a.2.2,0,0,1,0,.4h-1.157l-.006,0,0,0A.2.2,0,0,1,490.885,57.468Z" transform="translate(-483.117 -55.094)" fill="#f0d634"/>
                <path id="Path_511" data-name="Path 511" d="M494.37,57.369a.2.2,0,0,1-.125.25.315.315,0,0,1-.078.011h0a.262.262,0,0,1-.14-.04.358.358,0,0,1-.114-.125.969.969,0,0,1-.074-.429.3.3,0,0,0-.043-.154.327.327,0,0,0-.107-.1.658.658,0,0,0-.2-.085h-.421v.774a.2.2,0,0,1-.2.2.2.2,0,0,1-.2-.2V55.362a.194.194,0,0,1,.2-.2h.639a.764.764,0,0,1,.765.768.756.756,0,0,1-.279.586.548.548,0,0,1,.125.132.679.679,0,0,1,.118.385.906.906,0,0,0,.014.211A.188.188,0,0,1,494.37,57.369Zm-.5-1.436a.369.369,0,0,0-.369-.372h-.439V56.3h.439A.367.367,0,0,0,493.871,55.933Z" transform="translate(-482.76 -55.094)" fill="#f0d634"/>
              </g>
            </g>
          </g>
          <path id="Path_512" data-name="Path 512" d="M493.4,45.047h-6.977a.431.431,0,0,1-.431-.431h0a.431.431,0,0,1,.431-.431H493.4a.431.431,0,0,1,.431.431h0A.43.43,0,0,1,493.4,45.047Z" transform="translate(-456.699 -43.542)" fill="#263238"/>
        </g>
      </g>
      <g id="Group_207" data-name="Group 207" transform="translate(12.521 44.438)">
        <g id="Group_198" data-name="Group 198" transform="translate(0 27.617)">
          <path id="Path_513" data-name="Path 513" d="M470.561,99.776l-.876,1.2v1.155a.232.232,0,0,1-.235.235.236.236,0,0,1-.235-.235v-1.155l-.869-1.2a.231.231,0,1,1,.372-.274l.732,1,.731-1a.234.234,0,0,1,.38.274Z" transform="translate(-468.297 -99.37)" fill="#263238"/>
          <path id="Path_514" data-name="Path 514" d="M470.383,101.918a1.06,1.06,0,0,1-.3-.753,1.1,1.1,0,0,1,.3-.748,1,1,0,0,1,.735-.325.942.942,0,0,1,.714.325,1.065,1.065,0,0,1,.3.748,1.029,1.029,0,0,1-.3.753.942.942,0,0,1-.714.325A1,1,0,0,1,470.383,101.918Zm.171-.753a.691.691,0,0,0,.154.454.582.582,0,0,0,.411.158.563.563,0,0,0,.394-.158.657.657,0,0,0,.167-.454.642.642,0,0,0-.167-.444.6.6,0,0,0-.394-.163.62.62,0,0,0-.411.163A.674.674,0,0,0,470.554,101.165Z" transform="translate(-467.938 -99.233)" fill="#263238"/>
          <path id="Path_515" data-name="Path 515" d="M473.194,102.23a.894.894,0,0,1-.889-.889v-1.021a.231.231,0,0,1,.227-.227.228.228,0,0,1,.227.227v1.021a.433.433,0,0,0,.436.437.444.444,0,0,0,.449-.437v-1.021a.224.224,0,0,1,.222-.227.238.238,0,0,1,.232.227v1.021A.9.9,0,0,1,473.194,102.23Z" transform="translate(-467.493 -99.233)" fill="#263238"/>
          <path id="Path_516" data-name="Path 516" d="M475.843,100.318a.228.228,0,0,1-.227.227.412.412,0,0,0-.257.08.67.67,0,0,0-.2.205,1.336,1.336,0,0,0-.175.36V102a.232.232,0,0,1-.235.226.227.227,0,0,1-.226-.226v-1.685a.224.224,0,0,1,.226-.222.229.229,0,0,1,.235.222v.03a.548.548,0,0,1,.09-.085.931.931,0,0,1,.539-.167A.222.222,0,0,1,475.843,100.318Z" transform="translate(-467.049 -99.232)" fill="#263238"/>
          <path id="Path_517" data-name="Path 517" d="M477.373,101.918a1.065,1.065,0,0,1-.3-.753,1.1,1.1,0,0,1,.3-.748,1,1,0,0,1,.736-.325.944.944,0,0,1,.714.325,1.069,1.069,0,0,1,.3.748,1.033,1.033,0,0,1-.3.753.944.944,0,0,1-.714.325A1,1,0,0,1,477.373,101.918Zm.17-.753a.692.692,0,0,0,.155.454.58.58,0,0,0,.411.158.562.562,0,0,0,.393-.158.658.658,0,0,0,.167-.454.642.642,0,0,0-.167-.444.6.6,0,0,0-.393-.163.617.617,0,0,0-.411.163A.675.675,0,0,0,477.544,101.165Z" transform="translate(-466.537 -99.233)" fill="#263238"/>
          <path id="Path_518" data-name="Path 518" d="M480.634,100.318a.228.228,0,0,1-.227.227.412.412,0,0,0-.257.08.658.658,0,0,0-.2.205,1.338,1.338,0,0,0-.175.36V102a.232.232,0,0,1-.235.226.228.228,0,0,1-.227-.226v-1.685a.225.225,0,0,1,.227-.222.229.229,0,0,1,.235.222v.03a.544.544,0,0,1,.09-.085.93.93,0,0,1,.539-.167A.222.222,0,0,1,480.634,100.318Z" transform="translate(-466.089 -99.232)" fill="#263238"/>
          <path id="Path_519" data-name="Path 519" d="M482.753,102.142a.231.231,0,0,1-.457.047,1.038,1.038,0,0,1-.582.184,1.069,1.069,0,0,1,0-2.138,1.011,1.011,0,0,1,.574.18v-.8a.233.233,0,0,1,.466,0v2.531Zm-1.039-1.442a.555.555,0,0,0-.4.175.6.6,0,0,0-.172.432.6.6,0,0,0,.172.424.548.548,0,0,0,.8,0,.6.6,0,0,0,.172-.424.609.609,0,0,0-.172-.432A.549.549,0,0,0,481.713,100.7Z" transform="translate(-465.817 -99.375)" fill="#263238"/>
          <path id="Path_520" data-name="Path 520" d="M482.967,101.161a1.058,1.058,0,0,1,1.043-1.069,1.024,1.024,0,0,1,1.031.991v.022a.105.105,0,0,1,0,.038.207.207,0,0,1-.222.172h-1.36a.565.565,0,0,0,.145.282.661.661,0,0,0,.411.193.7.7,0,0,0,.444-.108.244.244,0,0,1,.322-.012.2.2,0,0,1,0,.277,1.079,1.079,0,0,1-.766.282A1.06,1.06,0,0,1,482.967,101.161Zm.466-.21h1.21a.7.7,0,0,0-.633-.453A.6.6,0,0,0,483.433,100.951Z" transform="translate(-465.358 -99.233)" fill="#263238"/>
          <path id="Path_521" data-name="Path 521" d="M486.5,100.318a.228.228,0,0,1-.227.227.412.412,0,0,0-.257.08.656.656,0,0,0-.2.205,1.338,1.338,0,0,0-.175.36V102a.232.232,0,0,1-.235.226.228.228,0,0,1-.227-.226v-1.685a.225.225,0,0,1,.227-.222.229.229,0,0,1,.235.222v.03a.543.543,0,0,1,.09-.085.93.93,0,0,1,.539-.167A.222.222,0,0,1,486.5,100.318Z" transform="translate(-464.913 -99.232)" fill="#263238"/>
          <path id="Path_522" data-name="Path 522" d="M488.287,99.7a.231.231,0,0,1-.23.235.234.234,0,0,1-.232-.235v-.09a.23.23,0,0,1,.232-.23.227.227,0,0,1,.23.23Zm0,.774v1.667a.227.227,0,0,1-.23.23.23.23,0,0,1-.232-.23v-1.667a.229.229,0,0,1,.232-.235A.226.226,0,0,1,488.287,100.475Z" transform="translate(-464.385 -99.375)" fill="#263238"/>
          <path id="Path_523" data-name="Path 523" d="M488.746,101.619a.222.222,0,0,1,.32-.035.779.779,0,0,0,.471.188.566.566,0,0,0,.291-.082.172.172,0,0,0,.077-.127.066.066,0,0,0-.012-.043c0-.013-.022-.03-.056-.052a.98.98,0,0,0-.342-.119h0a1.643,1.643,0,0,1-.372-.112.715.715,0,0,1-.3-.248.518.518,0,0,1-.073-.269.6.6,0,0,1,.253-.471.913.913,0,0,1,.526-.158,1.1,1.1,0,0,1,.641.235.235.235,0,0,1,.068.317.225.225,0,0,1-.316.059.739.739,0,0,0-.394-.157.433.433,0,0,0-.257.077.131.131,0,0,0-.068.1.044.044,0,0,0,.008.034.116.116,0,0,0,.047.043.873.873,0,0,0,.312.1l0,0h0a1.525,1.525,0,0,1,.4.124.675.675,0,0,1,.3.252.556.556,0,0,1,.08.283.618.618,0,0,1-.269.5.973.973,0,0,1-.556.17,1.236,1.236,0,0,1-.761-.3A.227.227,0,0,1,488.746,101.619Z" transform="translate(-464.21 -99.233)" fill="#263238"/>
          <path id="Path_524" data-name="Path 524" d="M491.522,101.165a1.088,1.088,0,0,1,1.085-1.073,1.124,1.124,0,0,1,.681.235.235.235,0,0,1,.047.317.228.228,0,0,1-.32.042.691.691,0,0,0-.407-.137.614.614,0,1,0,0,1.228.7.7,0,0,0,.407-.137.232.232,0,0,1,.32.047.237.237,0,0,1-.047.317,1.182,1.182,0,0,1-.681.226A1.083,1.083,0,0,1,491.522,101.165Z" transform="translate(-463.644 -99.233)" fill="#263238"/>
          <path id="Path_525" data-name="Path 525" d="M493.841,101.918a1.065,1.065,0,0,1-.3-.753,1.1,1.1,0,0,1,.3-.748,1,1,0,0,1,.736-.325.944.944,0,0,1,.714.325,1.069,1.069,0,0,1,.3.748,1.033,1.033,0,0,1-.3.753.944.944,0,0,1-.714.325A1,1,0,0,1,493.841,101.918Zm.172-.753a.691.691,0,0,0,.154.454.582.582,0,0,0,.411.158.563.563,0,0,0,.394-.158.658.658,0,0,0,.167-.454.642.642,0,0,0-.167-.444.6.6,0,0,0-.394-.163.62.62,0,0,0-.411.163A.674.674,0,0,0,494.013,101.165Z" transform="translate(-463.239 -99.233)" fill="#263238"/>
          <path id="Path_526" data-name="Path 526" d="M497.64,100.981V102a.224.224,0,0,1-.222.226.23.23,0,0,1-.227-.226v-1.023a.44.44,0,0,0-.445-.432.428.428,0,0,0-.427.432V102a.084.084,0,0,1-.008.042.233.233,0,0,1-.227.184.225.225,0,0,1-.227-.226v-1.685a.226.226,0,0,1,.227-.227.233.233,0,0,1,.21.133.845.845,0,0,1,.453-.133A.9.9,0,0,1,497.64,100.981Z" transform="translate(-462.776 -99.233)" fill="#263238"/>
          <path id="Path_527" data-name="Path 527" d="M498.762,100.095v.059h.128a.235.235,0,0,1,0,.471h-.128v1.51a.235.235,0,1,1-.469,0v-1.51h-.112a.235.235,0,1,1,0-.471h.112v-.059a.9.9,0,0,1,.08-.42.518.518,0,0,1,.308-.265.878.878,0,0,1,.257-.034.237.237,0,0,1,0,.474.306.306,0,0,0-.112.013c-.017,0-.022.008-.025.013S498.762,99.937,498.762,100.095Z" transform="translate(-462.358 -99.376)" fill="#263238"/>
          <path id="Path_528" data-name="Path 528" d="M499.8,99.7a.231.231,0,0,1-.23.235.234.234,0,0,1-.232-.235v-.09a.23.23,0,0,1,.232-.23.227.227,0,0,1,.23.23Zm0,.774v1.667a.227.227,0,0,1-.23.23.23.23,0,0,1-.232-.23v-1.667a.229.229,0,0,1,.232-.235A.226.226,0,0,1,499.8,100.475Z" transform="translate(-462.079 -99.375)" fill="#263238"/>
          <path id="Path_529" data-name="Path 529" d="M501.651,100.318a.228.228,0,0,1-.227.227.412.412,0,0,0-.257.08.656.656,0,0,0-.2.205,1.3,1.3,0,0,0-.175.36V102a.232.232,0,0,1-.235.226.228.228,0,0,1-.227-.226v-1.685a.225.225,0,0,1,.227-.222.229.229,0,0,1,.235.222v.03a.5.5,0,0,1,.09-.085.928.928,0,0,1,.539-.167A.222.222,0,0,1,501.651,100.318Z" transform="translate(-461.879 -99.232)" fill="#263238"/>
          <path id="Path_530" data-name="Path 530" d="M503.686,100.977V102a.228.228,0,0,1-.227.226.235.235,0,0,1-.232-.226v-1.027a.436.436,0,0,0-.873.013V102c0,.008,0,.02,0,.03v.012c0,.008,0,.018-.013.025v.022a.247.247,0,0,1-.214.137c-.017,0-.03,0-.043,0A.233.233,0,0,1,501.9,102v-1.682a.227.227,0,0,1,.227-.23.216.216,0,0,1,.205.128.9.9,0,0,1,1.13.167.878.878,0,0,1,.671-.3.893.893,0,0,1,.889.9V102a.227.227,0,0,1-.227.226.231.231,0,0,1-.23-.226V100.99a.438.438,0,0,0-.432-.441A.444.444,0,0,0,503.686,100.977Z" transform="translate(-461.565 -99.233)" fill="#263238"/>
          <path id="Path_531" data-name="Path 531" d="M505.163,101.161a1.059,1.059,0,0,1,1.044-1.069,1.022,1.022,0,0,1,1.03.991v.022a.139.139,0,0,1,0,.038.207.207,0,0,1-.223.172h-1.36a.558.558,0,0,0,.146.282.658.658,0,0,0,.411.193.7.7,0,0,0,.444-.108.242.242,0,0,1,.32-.012.194.194,0,0,1,0,.277,1.074,1.074,0,0,1-.765.282A1.061,1.061,0,0,1,505.163,101.161Zm.467-.21h1.21a.7.7,0,0,0-.633-.453A.6.6,0,0,0,505.63,100.951Z" transform="translate(-460.911 -99.233)" fill="#263238"/>
          <path id="Path_532" data-name="Path 532" d="M509.42,102.142a.233.233,0,0,1-.232.23.229.229,0,0,1-.226-.184,1.044,1.044,0,0,1-.582.184,1.069,1.069,0,0,1,0-2.138,1.011,1.011,0,0,1,.574.18v-.8a.233.233,0,0,1,.466,0v2.531ZM508.38,100.7a.557.557,0,0,0-.4.175.608.608,0,0,0-.17.432.6.6,0,0,0,.17.424.552.552,0,0,0,.4.175.545.545,0,0,0,.4-.175.6.6,0,0,0,.172-.424.61.61,0,0,0-.172-.432A.549.549,0,0,0,508.38,100.7Z" transform="translate(-460.475 -99.375)" fill="#263238"/>
        </g>
        <g id="Group_199" data-name="Group 199" transform="translate(13.257 22.171)">
          <path id="Path_533" data-name="Path 533" d="M480.347,95.049h-.9a.105.105,0,0,1,0-.21h2.009a.105.105,0,0,1,0,.21h-.9v2.682a.1.1,0,0,1-.205,0Z" transform="translate(-479.341 -94.839)" fill="#263238"/>
          <path id="Path_534" data-name="Path 534" d="M483.273,96.563a.667.667,0,0,0-1.33,0v1.18c0,.008,0,.013,0,.017l-.008.018a.1.1,0,0,1-.064.052l-.008,0h-.022a.122.122,0,0,1-.082-.034.114.114,0,0,1-.017-.035.084.084,0,0,1,0-.034V94.942a.105.105,0,0,1,.21,0v1.1a.865.865,0,0,1,.663-.308.835.835,0,0,1,.876.826v1.168a.1.1,0,0,1-.209,0Z" transform="translate(-478.862 -94.839)" fill="#263238"/>
          <path id="Path_535" data-name="Path 535" d="M485.856,95.69v1.891a.1.1,0,0,1-.205,0v-.313a.975.975,0,0,1-.786.415,1.049,1.049,0,0,1,0-2.1.974.974,0,0,1,.786.411V95.69a.1.1,0,1,1,.205,0Zm-.205.945a.789.789,0,1,0-.786.843A.817.817,0,0,0,485.651,96.635Z" transform="translate(-478.433 -94.689)" fill="#263238"/>
          <path id="Path_536" data-name="Path 536" d="M487.729,96.442a.645.645,0,0,0-.646-.646.657.657,0,0,0-.651.646V97.6a.089.089,0,0,1-.022.047.092.092,0,0,1-.077.038h-.025a.113.113,0,0,1-.068-.055l0-.013,0-.008V95.693a.1.1,0,1,1,.2,0v.2a.85.85,0,0,1,1.5.547V97.58a.1.1,0,0,1-.205,0Z" transform="translate(-477.961 -94.688)" fill="#263238"/>
          <path id="Path_537" data-name="Path 537" d="M488.417,94.942a.1.1,0,0,1,.1-.1.1.1,0,0,1,.107.1v2.014l1.241-1.236a.1.1,0,0,1,.145,0,.1.1,0,0,1,0,.145l-.809.809.814.988a.107.107,0,0,1-.01.149.1.1,0,0,1-.068.022.087.087,0,0,1-.08-.038l-.8-.971-.428.429v.479a.1.1,0,0,1-.107.1.1.1,0,0,1-.1-.1Z" transform="translate(-477.523 -94.839)" fill="#263238"/>
          <path id="Path_538" data-name="Path 538" d="M491.336,95.685a.1.1,0,0,1,.1-.1.1.1,0,0,1,.107.1v1.138a.646.646,0,1,0,1.292,0V95.685a.071.071,0,0,1,.018-.05l0-.013.008,0a.089.089,0,0,1,.038-.025h.01l.012,0h.025a.276.276,0,0,1,.052.022.111.111,0,0,1,.026.035.08.08,0,0,1,.012.042v1.83a.987.987,0,0,1-1,.984,1.07,1.07,0,0,1-.432-.1.105.105,0,0,1-.042-.137.109.109,0,0,1,.132-.052.772.772,0,0,0,.342.082.786.786,0,0,0,.791-.779v-.137a.849.849,0,0,1-1.5-.556Z" transform="translate(-476.938 -94.689)" fill="#263238"/>
          <path id="Path_539" data-name="Path 539" d="M494.381,95.587a1.049,1.049,0,1,1-.992,1.048A1.025,1.025,0,0,1,494.381,95.587Zm0,1.891a.846.846,0,1,0-.787-.843A.819.819,0,0,0,494.381,97.478Z" transform="translate(-476.527 -94.689)" fill="#263238"/>
          <path id="Path_540" data-name="Path 540" d="M495.607,95.686a.1.1,0,0,1,.205,0v1.143a.646.646,0,1,0,1.292,0V95.686a.1.1,0,0,1,.209,0v1.143a.853.853,0,1,1-1.706,0Z" transform="translate(-476.083 -94.69)" fill="#263238"/>
          <path id="Path_541" data-name="Path 541" d="M497.827,94.942a.105.105,0,0,1,.21,0v2.146a.105.105,0,1,1-.21,0Zm0,2.685a.105.105,0,0,1,.21,0v.1a.105.105,0,0,1-.21,0Z" transform="translate(-475.638 -94.839)" fill="#263238"/>
        </g>
        <g id="Group_203" data-name="Group 203" transform="translate(12.053)">
          <path id="Path_542" data-name="Path 542" d="M488.61,87.867l-3.085-3.123,1.036-1.024,1.8,1.824,3.744-5.87,1.229.783Z" transform="translate(-476.899 -75.706)" fill="#f0d634"/>
          <path id="Path_543" data-name="Path 543" d="M490.125,92.5a8.065,8.065,0,1,1,8.065-8.065A8.074,8.074,0,0,1,490.125,92.5Zm0-15.034a6.97,6.97,0,1,0,6.969,6.969A6.977,6.977,0,0,0,490.125,77.464Z" transform="translate(-477.593 -76.368)" fill="#f0d634"/>
          <g id="Group_202" data-name="Group 202" transform="translate(0 2.804)">
            <g id="Group_200" data-name="Group 200" transform="translate(0 0)">
              <rect id="Rectangle_149" data-name="Rectangle 149" width="2.395" height="0.365" transform="translate(0 5.079)" fill="#f0d634"/>
              <rect id="Rectangle_150" data-name="Rectangle 150" width="0.365" height="2.395" transform="matrix(0.707, -0.707, 0.707, 0.707, 1.307, 0.258)" fill="#f0d634"/>
              <rect id="Rectangle_151" data-name="Rectangle 151" width="2.395" height="0.365" transform="translate(1.307 10.185) rotate(-45)" fill="#f0d634"/>
            </g>
            <g id="Group_201" data-name="Group 201" transform="translate(21.805 0)">
              <rect id="Rectangle_152" data-name="Rectangle 152" width="2.395" height="0.365" transform="translate(0.864 5.079)" fill="#f0d634"/>
              <rect id="Rectangle_153" data-name="Rectangle 153" width="2.395" height="0.365" transform="translate(0 1.694) rotate(-45)" fill="#f0d634"/>
              <rect id="Rectangle_154" data-name="Rectangle 154" width="0.365" height="2.395" transform="matrix(0.707, -0.707, 0.707, 0.707, 0, 8.749)" fill="#f0d634"/>
            </g>
          </g>
        </g>
        <g id="Group_205" data-name="Group 205" transform="translate(13.693 45.066)">
          <rect id="Rectangle_155" data-name="Rectangle 155" width="21.785" height="7.32" fill="#f0d634"/>
          <g id="Group_204" data-name="Group 204" transform="translate(5.179 2.121)">
            <path id="Path_544" data-name="Path 544" d="M484.019,118.509v-2.523a.232.232,0,0,1,.235-.235h.5a1.5,1.5,0,0,1,0,2.994h-.5A.234.234,0,0,1,484.019,118.509Zm.474-.239h.265a1.023,1.023,0,0,0,0-2.045h-.265Z" transform="translate(-484.019 -115.666)" fill="#fff"/>
            <path id="Path_545" data-name="Path 545" d="M488.911,116.137a1.571,1.571,0,0,1,0,2.164,1.4,1.4,0,0,1-1.023.457,1.448,1.448,0,0,1-1.048-.457,1.6,1.6,0,0,1,0-2.164,1.43,1.43,0,0,1,1.048-.457A1.385,1.385,0,0,1,488.911,116.137Zm-.056,1.081a1.108,1.108,0,0,0-.29-.748.922.922,0,0,0-.676-.3.933.933,0,0,0-.693.3,1.091,1.091,0,0,0-.29.748,1.071,1.071,0,0,0,.29.744.933.933,0,0,0,.693.308.922.922,0,0,0,.676-.308A1.087,1.087,0,0,0,488.855,117.219Z" transform="translate(-483.538 -115.68)" fill="#fff"/>
            <path id="Path_546" data-name="Path 546" d="M489.935,118.5a.233.233,0,1,1-.466,0v-2.488a.23.23,0,0,1,.094-.2.236.236,0,0,1,.325.05l1.382,1.912V116.02a.232.232,0,0,1,.23-.23.236.236,0,0,1,.235.23V118.5a.237.237,0,0,1-.235.235.231.231,0,0,1-.175-.085.139.139,0,0,1-.022-.026l-1.368-1.9Z" transform="translate(-482.927 -115.661)" fill="#fff"/>
            <path id="Path_547" data-name="Path 547" d="M491.982,118.509v-2.523a.233.233,0,0,1,.235-.235h1.4a.237.237,0,0,1,.235.235.24.24,0,0,1-.235.239h-1.158v.784h1a.237.237,0,0,1,0,.474h-1v.787h1.158a.237.237,0,0,1,0,.474H492.23c-.008,0-.008,0-.008,0l0,0A.235.235,0,0,1,491.982,118.509Z" transform="translate(-482.424 -115.666)" fill="#fff"/>
          </g>
        </g>
        <g id="Group_206" data-name="Group 206" transform="translate(3.882 34.157)">
          <path id="Path_548" data-name="Path 548" d="M472.1,105.685l-.556-.76a.06.06,0,0,1,.012-.08.054.054,0,0,1,.08.01l.519.712.521-.712a.054.054,0,0,1,.08-.01.057.057,0,0,1,.012.08l-.555.755v.743a.057.057,0,0,1-.056.058.058.058,0,0,1-.058-.058Z" transform="translate(-471.531 -104.824)" fill="#c7c7c7"/>
          <path id="Path_549" data-name="Path 549" d="M473.081,105.239a.581.581,0,1,1-.55.58A.567.567,0,0,1,473.081,105.239Zm0,1.047a.469.469,0,1,0-.436-.467A.455.455,0,0,0,473.081,106.286Z" transform="translate(-471.33 -104.742)" fill="#c7c7c7"/>
          <path id="Path_550" data-name="Path 550" d="M473.758,105.295a.056.056,0,1,1,.113,0v.631a.358.358,0,1,0,.715,0v-.631a.058.058,0,0,1,.056-.058.057.057,0,0,1,.06.058v.631a.472.472,0,1,1-.945,0Z" transform="translate(-471.085 -104.742)" fill="#c7c7c7"/>
          <path id="Path_551" data-name="Path 551" d="M475.979,106.388a.043.043,0,0,1-.024-.026l-.436-1.037a.057.057,0,0,1,.029-.073.056.056,0,0,1,.073.031l.385.913.268-.637a.064.064,0,0,1,.055-.035.064.064,0,0,1,.056.035l.268.637.384-.913a.056.056,0,1,1,.1.042l-.433,1.032a.074.074,0,0,1-.02.029.05.05,0,0,1-.029.012h-.012a.052.052,0,0,1-.044-.036l0,0-.27-.641-.268.639,0,0a.056.056,0,0,1-.049.036.069.069,0,0,1-.022,0Z" transform="translate(-470.732 -104.74)" fill="#c7c7c7"/>
          <path id="Path_552" data-name="Path 552" d="M477.156,104.98a.058.058,0,0,1,.116,0v.054a.058.058,0,1,1-.116,0Zm0,.378a.058.058,0,0,1,.116,0v1.047a.058.058,0,0,1-.116,0Z" transform="translate(-470.404 -104.805)" fill="#c7c7c7"/>
          <path id="Path_553" data-name="Path 553" d="M477.681,104.881a.058.058,0,0,1,.056-.056.059.059,0,0,1,.06.056v1.544a.059.059,0,0,1-.06.058.058.058,0,0,1-.056-.058Z" transform="translate(-470.299 -104.825)" fill="#c7c7c7"/>
          <path id="Path_554" data-name="Path 554" d="M478.172,104.881a.058.058,0,0,1,.056-.056.059.059,0,0,1,.06.056v1.544a.059.059,0,0,1-.06.058.058.058,0,0,1-.056-.058Z" transform="translate(-470.2 -104.825)" fill="#c7c7c7"/>
          <path id="Path_555" data-name="Path 555" d="M479.241,105.928v-1.047a.058.058,0,0,1,.056-.056.059.059,0,0,1,.06.056v.669a.553.553,0,0,1,.445-.228.581.581,0,0,1,0,1.161.551.551,0,0,1-.445-.226v.168a.059.059,0,0,1-.06.058.058.058,0,0,1-.056-.058Zm.116-.024a.457.457,0,1,0,0-.018Z" transform="translate(-469.986 -104.825)" fill="#c7c7c7"/>
          <path id="Path_556" data-name="Path 556" d="M480.474,105.821a.562.562,0,0,1,1.122-.042v.01a.054.054,0,0,1-.058.052h-.951a.455.455,0,0,0,.449.445.436.436,0,0,0,.375-.211.055.055,0,0,1,.076-.018.06.06,0,0,1,.019.08.554.554,0,0,1-.469.263A.571.571,0,0,1,480.474,105.821Zm.12-.091h.879a.447.447,0,0,0-.436-.377A.454.454,0,0,0,480.594,105.73Z" transform="translate(-469.739 -104.742)" fill="#c7c7c7"/>
          <path id="Path_557" data-name="Path 557" d="M482.336,105.3a.056.056,0,0,1,.059-.056.055.055,0,0,1,.054.056v.256a.23.23,0,0,1,.017-.028.558.558,0,0,1,.464-.284.056.056,0,0,1,.056.056.058.058,0,0,1-.056.058.418.418,0,0,0-.336.19,1.04,1.04,0,0,0-.14.27.031.031,0,0,0,0,.018v.509a.055.055,0,0,1-.054.058.056.056,0,0,1-.059-.058Z" transform="translate(-469.366 -104.742)" fill="#c7c7c7"/>
          <path id="Path_558" data-name="Path 558" d="M483.034,105.821a.562.562,0,0,1,1.122-.042v.01a.054.054,0,0,1-.056.052h-.953a.457.457,0,0,0,.45.445.435.435,0,0,0,.375-.211.055.055,0,0,1,.076-.018.06.06,0,0,1,.019.08.554.554,0,0,1-.469.263A.571.571,0,0,1,483.034,105.821Zm.12-.091h.879a.448.448,0,0,0-.436-.377A.454.454,0,0,0,483.154,105.73Z" transform="translate(-469.226 -104.742)" fill="#c7c7c7"/>
          <path id="Path_559" data-name="Path 559" d="M484.235,105.816a.584.584,0,0,1,.6-.577.6.6,0,0,1,.37.128.055.055,0,0,1,.007.078.058.058,0,0,1-.078.01.473.473,0,1,0-.3.831.491.491,0,0,0,.3-.1.059.059,0,0,1,.078.01.057.057,0,0,1-.012.083.6.6,0,0,1-.365.124A.585.585,0,0,1,484.235,105.816Z" transform="translate(-468.986 -104.742)" fill="#c7c7c7"/>
          <path id="Path_560" data-name="Path 560" d="M485.332,105.821a.562.562,0,0,1,1.122-.042v.01a.054.054,0,0,1-.058.052h-.952a.457.457,0,0,0,.45.445.435.435,0,0,0,.375-.211.055.055,0,0,1,.076-.018.061.061,0,0,1,.019.08.554.554,0,0,1-.469.263A.571.571,0,0,1,485.332,105.821Zm.12-.091h.879a.448.448,0,0,0-.436-.377A.454.454,0,0,0,485.452,105.73Z" transform="translate(-468.766 -104.742)" fill="#c7c7c7"/>
          <path id="Path_561" data-name="Path 561" d="M486.6,104.98a.058.058,0,0,1,.115,0v.054a.058.058,0,1,1-.115,0Zm0,.378a.058.058,0,0,1,.115,0v1.047a.058.058,0,1,1-.115,0Z" transform="translate(-468.511 -104.805)" fill="#c7c7c7"/>
          <path id="Path_562" data-name="Path 562" d="M487.543,106.388a.074.074,0,0,1-.019-.026l-.436-1.037a.057.057,0,0,1,.029-.073.056.056,0,0,1,.073.031l.385.913.387-.913a.055.055,0,1,1,.1.042l-.433,1.027a.081.081,0,0,1-.014.029.05.05,0,0,1-.037.017.049.049,0,0,1-.019,0l0,0Z" transform="translate(-468.415 -104.74)" fill="#c7c7c7"/>
          <path id="Path_563" data-name="Path 563" d="M488.306,104.98a.057.057,0,0,1,.056-.056.058.058,0,0,1,.06.056v.054a.058.058,0,1,1-.116,0Zm0,.378a.056.056,0,0,1,.056-.056.057.057,0,0,1,.06.056v1.047a.059.059,0,0,1-.06.058.058.058,0,0,1-.056-.058Z" transform="translate(-468.17 -104.805)" fill="#c7c7c7"/>
          <path id="Path_564" data-name="Path 564" d="M489.687,105.713a.357.357,0,0,0-.358-.358.364.364,0,0,0-.36.358v.639a.054.054,0,0,1-.012.026.049.049,0,0,1-.042.022H488.9a.063.063,0,0,1-.038-.031l0-.007,0,0V105.3a.057.057,0,0,1,.058-.056.056.056,0,0,1,.054.056v.112a.47.47,0,0,1,.831.3v.629a.056.056,0,1,1-.113,0Z" transform="translate(-468.06 -104.742)" fill="#c7c7c7"/>
          <path id="Path_565" data-name="Path 565" d="M491.094,106.307a.546.546,0,0,1-.547.544.59.59,0,0,1-.241-.054.06.06,0,0,1-.024-.076.053.053,0,0,1,.076-.026.416.416,0,0,0,.19.043.43.43,0,0,0,.433-.431v-.142a.526.526,0,0,1-.433.227.578.578,0,0,1,0-1.153.531.531,0,0,1,.433.228V105.3a.057.057,0,0,1,.114,0Zm-.114-.492a.433.433,0,1,0-.433.466A.446.446,0,0,0,490.98,105.815Z" transform="translate(-467.831 -104.742)" fill="#c7c7c7"/>
          <path id="Path_566" data-name="Path 566" d="M492.956,105.3v1.047a.057.057,0,1,1-.114,0v-.173a.541.541,0,0,1-.436.23.581.581,0,0,1,0-1.161.538.538,0,0,1,.436.228V105.3a.057.057,0,0,1,.114,0Zm-.114.523a.437.437,0,1,0-.436.467A.453.453,0,0,0,492.841,105.819Z" transform="translate(-467.459 -104.742)" fill="#c7c7c7"/>
          <path id="Path_567" data-name="Path 567" d="M493.7,105.816a.584.584,0,0,1,.6-.577.6.6,0,0,1,.37.128.053.053,0,0,1,.007.078.058.058,0,0,1-.078.01.473.473,0,1,0-.3.831.491.491,0,0,0,.3-.1.059.059,0,0,1,.078.01.056.056,0,0,1-.012.083.6.6,0,0,1-.365.124A.585.585,0,0,1,493.7,105.816Z" transform="translate(-467.089 -104.742)" fill="#c7c7c7"/>
          <path id="Path_568" data-name="Path 568" d="M495.374,105.239a.581.581,0,1,1-.549.58A.567.567,0,0,1,495.374,105.239Zm0,1.047a.469.469,0,1,0-.436-.467A.455.455,0,0,0,495.374,106.286Z" transform="translate(-466.864 -104.742)" fill="#c7c7c7"/>
          <path id="Path_569" data-name="Path 569" d="M496.931,105.713a.357.357,0,0,0-.358-.358.363.363,0,0,0-.359.358v.639a.067.067,0,0,1-.012.026.051.051,0,0,1-.043.022h-.014a.064.064,0,0,1-.037-.031l0-.007,0,0V105.3a.056.056,0,1,1,.112,0v.112a.468.468,0,0,1,.359-.168.473.473,0,0,1,.472.472v.629a.057.057,0,1,1-.114,0Z" transform="translate(-466.608 -104.742)" fill="#c7c7c7"/>
          <path id="Path_570" data-name="Path 570" d="M497.834,104.886a.058.058,0,0,1-.056.058c-.082,0-.124.016-.148.044a.291.291,0,0,0-.047.192v.122h.163a.058.058,0,1,1,0,.116h-.163v1.008a.058.058,0,0,1-.056.058.059.059,0,0,1-.06-.058v-1.008h-.154a.058.058,0,0,1,0-.116h.154v-.122a.414.414,0,0,1,.076-.27.312.312,0,0,1,.235-.083A.058.058,0,0,1,497.834,104.886Z" transform="translate(-466.377 -104.825)" fill="#c7c7c7"/>
          <path id="Path_571" data-name="Path 571" d="M498.028,104.98a.056.056,0,0,1,.056-.056.058.058,0,0,1,.06.056v.054a.06.06,0,0,1-.06.061.059.059,0,0,1-.056-.061Zm0,.378a.056.056,0,0,1,.056-.056.057.057,0,0,1,.06.056v1.047a.059.059,0,0,1-.06.058.057.057,0,0,1-.056-.058Z" transform="translate(-466.223 -104.805)" fill="#c7c7c7"/>
          <path id="Path_572" data-name="Path 572" d="M498.58,105.3a.057.057,0,0,1,.059-.056.055.055,0,0,1,.054.056v.256c.006-.008.01-.018.017-.028a.558.558,0,0,1,.465-.284.056.056,0,0,1,.056.056.057.057,0,0,1-.056.058.418.418,0,0,0-.336.19.986.986,0,0,0-.139.27.026.026,0,0,0-.006.018v.509a.055.055,0,0,1-.054.058.057.057,0,0,1-.059-.058Z" transform="translate(-466.112 -104.742)" fill="#c7c7c7"/>
          <path id="Path_573" data-name="Path 573" d="M501.106,105.713a.366.366,0,0,0-.36-.36.361.361,0,0,0-.358.36v.639l0,0v0a.061.061,0,0,1-.029.031.063.063,0,0,1-.028.007h-.012l0,0-.014-.007-.007,0-.007-.007,0,0,0,0,0,0,0-.007v-.643a.357.357,0,1,0-.714,0v.631a.054.054,0,0,1-.026.046l-.014.007-.01,0h-.014a.063.063,0,0,1-.047-.043V105.3a.055.055,0,0,1,.054-.054.055.055,0,0,1,.058.054v.112a.461.461,0,0,1,.357-.166.473.473,0,0,1,.415.246.48.48,0,0,1,.416-.246.471.471,0,0,1,.471.472v.631a.056.056,0,0,1-.056.055.055.055,0,0,1-.054-.055Z" transform="translate(-465.939 -104.742)" fill="#c7c7c7"/>
          <path id="Path_574" data-name="Path 574" d="M502.315,105.3v1.047a.056.056,0,1,1-.113,0v-.173a.542.542,0,0,1-.436.23.581.581,0,0,1,0-1.161.54.54,0,0,1,.436.228V105.3a.056.056,0,0,1,.113,0Zm-.113.523a.437.437,0,1,0-.436.467A.453.453,0,0,0,502.2,105.819Z" transform="translate(-465.584 -104.742)" fill="#c7c7c7"/>
          <path id="Path_575" data-name="Path 575" d="M502.968,105.377a.062.062,0,0,1-.058.058h-.149v.845a.092.092,0,0,0,.085.085.065.065,0,0,1,.059.059.063.063,0,0,1-.059.058.2.2,0,0,1-.2-.2v-.845H502.5c-.056,0-.056-.029-.056-.058s0-.056.056-.056h.144v-.431a.061.061,0,0,1,.058-.056.063.063,0,0,1,.061.056v.431h.149A.062.062,0,0,1,502.968,105.377Z" transform="translate(-465.339 -104.823)" fill="#c7c7c7"/>
          <path id="Path_576" data-name="Path 576" d="M503.333,104.98a.058.058,0,0,1,.116,0v.054a.058.058,0,1,1-.116,0Zm0,.378a.058.058,0,0,1,.116,0v1.047a.058.058,0,0,1-.116,0Z" transform="translate(-465.16 -104.805)" fill="#c7c7c7"/>
          <path id="Path_577" data-name="Path 577" d="M504.39,105.239a.581.581,0,1,1-.55.58A.567.567,0,0,1,504.39,105.239Zm0,1.047a.469.469,0,1,0-.436-.467A.455.455,0,0,0,504.39,106.286Z" transform="translate(-465.059 -104.742)" fill="#c7c7c7"/>
          <path id="Path_578" data-name="Path 578" d="M505.947,105.713a.357.357,0,0,0-.358-.358.364.364,0,0,0-.36.358v.639a.054.054,0,0,1-.012.026.051.051,0,0,1-.042.022h-.014a.063.063,0,0,1-.038-.031l0-.007,0,0V105.3a.057.057,0,0,1,.057-.056.056.056,0,0,1,.054.056v.112a.471.471,0,0,1,.832.3v.629a.057.057,0,0,1-.058.058.056.056,0,0,1-.056-.058Z" transform="translate(-464.803 -104.742)" fill="#c7c7c7"/>
          <path id="Path_579" data-name="Path 579" d="M477.272,108.188a.562.562,0,0,1,1.122-.042v.01a.053.053,0,0,1-.056.052h-.952a.457.457,0,0,0,.45.445.434.434,0,0,0,.373-.211.058.058,0,0,1,.077-.019.062.062,0,0,1,.018.082.549.549,0,0,1-.468.262A.57.57,0,0,1,477.272,108.188Zm.121-.092h.879a.445.445,0,0,0-.879,0Z" transform="translate(-470.381 -104.268)" fill="#c7c7c7"/>
          <path id="Path_580" data-name="Path 580" d="M480.2,108.079a.358.358,0,1,0-.717,0v.64l0,0v0a.06.06,0,0,1-.029.031.082.082,0,0,1-.029.006h-.011l0,0-.014-.007-.007,0-.007-.007,0,0,0,0,0,0,0-.007v-.645a.358.358,0,1,0-.715,0v.633a.05.05,0,0,1-.025.044l-.015.007-.01,0h-.014a.059.059,0,0,1-.047-.042v-1.061a.055.055,0,0,1,.054-.054.054.054,0,0,1,.056.054v.112a.463.463,0,0,1,.358-.166.471.471,0,0,1,.414.246.48.48,0,0,1,.418-.246.471.471,0,0,1,.471.471v.633a.056.056,0,0,1-.112,0Z" transform="translate(-470.126 -104.268)" fill="#c7c7c7"/>
          <path id="Path_581" data-name="Path 581" d="M481.412,107.662v1.047a.057.057,0,0,1-.114,0v-.173a.538.538,0,0,1-.436.229.581.581,0,0,1,0-1.16.539.539,0,0,1,.436.227v-.17a.057.057,0,0,1,.114,0Zm-.114.523a.437.437,0,1,0-.436.467A.452.452,0,0,0,481.3,108.186Z" transform="translate(-469.771 -104.268)" fill="#c7c7c7"/>
          <path id="Path_582" data-name="Path 582" d="M481.641,107.348a.058.058,0,0,1,.056-.058.059.059,0,0,1,.06.058v.054a.058.058,0,1,1-.116,0Zm0,.378a.056.056,0,0,1,.056-.056.057.057,0,0,1,.06.056v1.047a.058.058,0,0,1-.06.056.057.057,0,0,1-.056-.056Z" transform="translate(-469.505 -104.331)" fill="#c7c7c7"/>
          <path id="Path_583" data-name="Path 583" d="M482.166,107.248a.057.057,0,0,1,.056-.056.059.059,0,0,1,.06.056v1.544a.058.058,0,0,1-.06.056.056.056,0,0,1-.056-.056Z" transform="translate(-469.4 -104.351)" fill="#c7c7c7"/>
          <path id="Path_584" data-name="Path 584" d="M483.635,108.754a.035.035,0,0,1-.023-.025l-.436-1.037a.058.058,0,0,1,.028-.073.057.057,0,0,1,.074.03l.385.915.268-.637a.06.06,0,0,1,.054-.035.063.063,0,0,1,.058.035l.268.637.383-.915a.058.058,0,0,1,.073-.03.056.056,0,0,1,.031.073l-.433,1.032a.065.065,0,0,1-.022.029.048.048,0,0,1-.029.011H484.3a.054.054,0,0,1-.046-.035l0,0-.27-.642-.268.64,0,0a.054.054,0,0,1-.049.035.135.135,0,0,1-.022,0Z" transform="translate(-469.199 -104.266)" fill="#c7c7c7"/>
          <path id="Path_585" data-name="Path 585" d="M484.813,107.348a.058.058,0,1,1,.115,0v.054a.058.058,0,1,1-.115,0Zm0,.378a.058.058,0,0,1,.115,0v1.047a.058.058,0,0,1-.115,0Z" transform="translate(-468.87 -104.331)" fill="#c7c7c7"/>
          <path id="Path_586" data-name="Path 586" d="M485.79,107.744a.061.061,0,0,1-.056.058h-.149v.845a.091.091,0,0,0,.085.085.066.066,0,0,1,.059.059.063.063,0,0,1-.059.056.2.2,0,0,1-.2-.2V107.8h-.144c-.058,0-.058-.029-.058-.058s0-.056.058-.056h.144v-.431a.061.061,0,0,1,.056-.056.064.064,0,0,1,.062.056v.431h.149A.061.061,0,0,1,485.79,107.744Z" transform="translate(-468.78 -104.349)" fill="#c7c7c7"/>
          <path id="Path_587" data-name="Path 587" d="M486.967,108.146a.37.37,0,0,0-.737,0v.653l0,.01,0,.01a.051.051,0,0,1-.035.028l0,0h-.012a.064.064,0,0,1-.046-.018l-.01-.019v-1.563a.057.057,0,0,1,.056-.056.058.058,0,0,1,.059.056v.611a.48.48,0,0,1,.367-.17.462.462,0,0,1,.485.457v.646a.057.057,0,0,1-.059.056.056.056,0,0,1-.056-.056Z" transform="translate(-468.609 -104.351)" fill="#c7c7c7"/>
          <path id="Path_588" data-name="Path 588" d="M488.42,107.606a.581.581,0,1,1-.55.58A.567.567,0,0,1,488.42,107.606Zm0,1.047a.469.469,0,1,0-.436-.467A.455.455,0,0,0,488.42,108.653Z" transform="translate(-468.258 -104.268)" fill="#c7c7c7"/>
          <path id="Path_589" data-name="Path 589" d="M489.108,107.664a.057.057,0,0,1,.06-.056.055.055,0,0,1,.054.056v.256a.134.134,0,0,1,.017-.028.558.558,0,0,1,.465-.284.056.056,0,0,1,.056.056.057.057,0,0,1-.056.056.42.42,0,0,0-.336.19,1.037,1.037,0,0,0-.14.27.036.036,0,0,0,0,.019v.509a.054.054,0,0,1-.054.056.057.057,0,0,1-.06-.056Z" transform="translate(-468.01 -104.268)" fill="#c7c7c7"/>
          <path id="Path_590" data-name="Path 590" d="M490.866,108.624a.551.551,0,0,1-.444.224.58.58,0,0,1,0-1.16.553.553,0,0,1,.444.227v-.667a.059.059,0,0,1,.06-.056.058.058,0,0,1,.056.056v1.544a.057.057,0,0,1-.056.056.058.058,0,0,1-.06-.056Zm0-.334v-.037a.462.462,0,1,0,0,.037Z" transform="translate(-467.859 -104.351)" fill="#c7c7c7"/>
          <path id="Path_591" data-name="Path 591" d="M491.128,108.188a.562.562,0,0,1,1.122-.042v.01a.053.053,0,0,1-.056.052h-.952a.457.457,0,0,0,.45.445.438.438,0,0,0,.375-.211.057.057,0,0,1,.076-.019.062.062,0,0,1,.018.082.551.551,0,0,1-.468.262A.57.57,0,0,1,491.128,108.188Zm.121-.092h.879a.445.445,0,0,0-.879,0Z" transform="translate(-467.605 -104.268)" fill="#c7c7c7"/>
          <path id="Path_592" data-name="Path 592" d="M492.357,107.664a.057.057,0,0,1,.06-.056.056.056,0,0,1,.054.056v.256a.131.131,0,0,1,.017-.028.558.558,0,0,1,.463-.284.057.057,0,0,1,.058.056.057.057,0,0,1-.058.056.421.421,0,0,0-.336.19,1.06,1.06,0,0,0-.139.27.036.036,0,0,0,0,.019v.509a.055.055,0,0,1-.054.056.057.057,0,0,1-.06-.056Z" transform="translate(-467.359 -104.268)" fill="#c7c7c7"/>
          <path id="Path_593" data-name="Path 593" d="M494.756,108.624a.553.553,0,0,1-.445.224.58.58,0,0,1,0-1.16.555.555,0,0,1,.445.227v-.667a.058.058,0,0,1,.116,0v1.544a.058.058,0,0,1-.116,0Zm0-.334v-.037a.462.462,0,1,0,0,.037Z" transform="translate(-467.08 -104.351)" fill="#c7c7c7"/>
          <path id="Path_594" data-name="Path 594" d="M495.018,108.188a.562.562,0,0,1,1.122-.042v.01a.054.054,0,0,1-.058.052h-.951a.455.455,0,0,0,.449.445.435.435,0,0,0,.375-.211.057.057,0,0,1,.076-.019.061.061,0,0,1,.019.082.553.553,0,0,1-.469.262A.57.57,0,0,1,495.018,108.188Zm.121-.092h.877a.447.447,0,0,0-.436-.376A.452.452,0,0,0,495.139,108.1Z" transform="translate(-466.826 -104.268)" fill="#c7c7c7"/>
          <path id="Path_595" data-name="Path 595" d="M496.634,107.744a.061.061,0,0,1-.056.058h-.149v.845a.091.091,0,0,0,.085.085.066.066,0,0,1,.059.059.063.063,0,0,1-.059.056.2.2,0,0,1-.2-.2V107.8h-.144c-.056,0-.056-.029-.056-.058s0-.056.056-.056h.144v-.431a.061.061,0,0,1,.058-.056.063.063,0,0,1,.061.056v.431h.149A.061.061,0,0,1,496.634,107.744Z" transform="translate(-466.607 -104.349)" fill="#c7c7c7"/>
          <path id="Path_596" data-name="Path 596" d="M497.933,107.662v1.047a.057.057,0,0,1-.114,0v-.173a.539.539,0,0,1-.436.229.581.581,0,0,1,0-1.16.54.54,0,0,1,.436.227v-.17a.057.057,0,0,1,.114,0Zm-.114.523a.437.437,0,1,0-.436.467A.453.453,0,0,0,497.819,108.186Z" transform="translate(-466.462 -104.268)" fill="#c7c7c7"/>
          <path id="Path_597" data-name="Path 597" d="M498.162,107.348a.057.057,0,0,1,.057-.058.059.059,0,0,1,.06.058v.054a.06.06,0,0,1-.06.061.059.059,0,0,1-.057-.061Zm0,.378a.056.056,0,0,1,.057-.056.057.057,0,0,1,.06.056v1.047a.058.058,0,0,1-.06.056.056.056,0,0,1-.057-.056Z" transform="translate(-466.196 -104.331)" fill="#c7c7c7"/>
          <path id="Path_598" data-name="Path 598" d="M498.686,107.248a.058.058,0,0,1,.116,0v1.544a.058.058,0,0,1-.116,0Z" transform="translate(-466.091 -104.351)" fill="#c7c7c7"/>
          <path id="Path_599" data-name="Path 599" d="M499.1,108.524a.058.058,0,0,1,.08-.007.613.613,0,0,0,.355.136.351.351,0,0,0,.22-.071.175.175,0,0,0,.088-.143.18.18,0,0,0-.083-.142.567.567,0,0,0-.246-.085l0,0a.671.671,0,0,1-.263-.09.242.242,0,0,1-.125-.209.288.288,0,0,1,.125-.227.494.494,0,0,1,.285-.078.618.618,0,0,1,.346.126.06.06,0,0,1,.016.08.057.057,0,0,1-.078.016.509.509,0,0,0-.283-.115.348.348,0,0,0-.221.066.174.174,0,0,0-.073.132.14.14,0,0,0,.066.116.588.588,0,0,0,.238.08h0a.8.8,0,0,1,.281.095.289.289,0,0,1,.131.236.3.3,0,0,1-.133.235.474.474,0,0,1-.288.091.7.7,0,0,1-.429-.166A.053.053,0,0,1,499.1,108.524Z" transform="translate(-466.011 -104.268)" fill="#c7c7c7"/>
          <path id="Path_600" data-name="Path 600" d="M500.231,108.375a.118.118,0,1,1-.119.119A.118.118,0,0,1,500.231,108.375Z" transform="translate(-465.805 -104.114)" fill="#c7c7c7"/>
        </g>
      </g>
    </g>
    <g id="Group_265" data-name="Group 265" transform="translate(0 51.14)">
      <g id="Group_218" data-name="Group 218" transform="translate(0 30.778)">
        <g id="Group_211" data-name="Group 211" transform="translate(36.038 25.693)">
          <g id="Group_210" data-name="Group 210">
            <g id="Group_209" data-name="Group 209">
              <path id="Path_601" data-name="Path 601" d="M455.439,129.339l.866,5.2,5.869,31.7h.946l-4.268-31.7-.631-5.2Z" transform="translate(-455.439 -129.339)" fill="#90a1a1"/>
            </g>
          </g>
          <path id="Path_602" data-name="Path 602" d="M458.222,129.339h-2.783l.866,5.2h2.547Z" transform="translate(-455.439 -129.339)" fill="#90a1a1"/>
        </g>
        <g id="Group_214" data-name="Group 214" transform="translate(17.605 25.693)">
          <g id="Group_213" data-name="Group 213">
            <g id="Group_212" data-name="Group 212">
              <path id="Path_603" data-name="Path 603" d="M440.083,166.233h.946l5.87-31.7.867-5.2h-2.783l-.631,5.2Z" transform="translate(-440.083 -129.339)" fill="#90a1a1"/>
            </g>
          </g>
          <path id="Path_604" data-name="Path 604" d="M444.27,129.339l-.631,5.2h2.548l.867-5.2Z" transform="translate(-439.371 -129.339)" fill="#90a1a1"/>
        </g>
        <g id="Group_217" data-name="Group 217" transform="translate(0 25.693)">
          <g id="Group_216" data-name="Group 216">
            <g id="Group_215" data-name="Group 215">
              <path id="Path_605" data-name="Path 605" d="M425.416,166.233h.946l5.869-31.7.866-5.2h-2.783l-.631,5.2Z" transform="translate(-425.416 -129.339)" fill="#90a1a1"/>
            </g>
          </g>
          <path id="Path_606" data-name="Path 606" d="M428.972,134.535h2.547l.866-5.2H429.6Z" transform="translate(-424.704 -129.339)" fill="#90a1a1"/>
        </g>
        <path id="Path_607" data-name="Path 607" d="M426.666,136.069h43.01v-4.532h-16.1l-5.411-23.6H428.306Z" transform="translate(-425.165 -107.934)" fill="#90a1a1"/>
        <path id="Path_608" data-name="Path 608" d="M426.666,136.069h2.345l1.528-28.134h-2.233Z" transform="translate(-425.165 -107.934)" fill="#455a64"/>
      </g>
      <g id="Group_264" data-name="Group 264" transform="translate(2.955)">
        <g id="Group_225" data-name="Group 225" transform="translate(6.148 34.57)">
          <g id="Group_221" data-name="Group 221" transform="translate(1.134 0.002)">
            <g id="Group_219" data-name="Group 219" transform="translate(12.794 38.259)">
              <path id="Path_609" data-name="Path 609" d="M470.315,166.814c-.81.276-24.656.283-25.54-.277-.106-.064-.1-2.964-.169-5.172-.107-3.373,4.41-18.4,4.41-18.4l14.8.72-4.125,15.142s3.408,1.51,6.22,2.832l.007.006a34.029,34.029,0,0,1,3.585,1.826C470.4,164.211,471.125,166.542,470.315,166.814Z" transform="translate(-444.603 -142.969)" fill="#edb38c"/>
              <path id="Path_610" data-name="Path 610" d="M470.315,163.744c-.81.276-24.656.283-25.54-.277a39.954,39.954,0,0,1-.169-5.172c5.91,1.223,21.644,3.106,22.086,1.864.175-.495-.208-1.05-.778-1.56a34.023,34.023,0,0,1,3.585,1.826C470.4,161.141,471.125,163.472,470.315,163.744Z" transform="translate(-444.603 -139.899)" fill="#263238"/>
            </g>
            <g id="Group_220" data-name="Group 220" transform="translate(0.001 0.001)">
              <path id="Path_611" data-name="Path 611" d="M437.123,125.855c2.918,2.9,15.429,8.891,16.381,10.991.839,1.852-4.952,21.785-4.952,21.785l14.319,2.737s8.6-23.317,6.408-30.518c-2.031-6.682-24.913-19.754-24.913-19.754h-9.185S431.374,120.139,437.123,125.855Z" transform="translate(-433.945 -111.096)" fill="#edb38c"/>
            </g>
            <path id="Path_612" data-name="Path 612" d="M466.2,126.524c-5.271,1.888-12.5,4.971-17.654,6.613-4.141-2.51-9.617-5.483-11.423-7.282-5.752-5.715-1.944-14.759-1.944-14.759h9.186S459.44,119.7,466.2,126.524Z" transform="translate(-433.945 -111.095)" opacity="0.1"/>
          </g>
          <g id="Group_224" data-name="Group 224">
            <g id="Group_222" data-name="Group 222" transform="translate(39.398 31.243)">
              <path id="Path_613" data-name="Path 613" d="M494.755,163.822c-.839.166-24.47-3.03-25.27-3.7a39.5,39.5,0,0,1,.526-5.147l-4.188-17.85,15.563,1.91,4.9,15.334a37.674,37.674,0,0,0,4.8,3.759l.007.007a33.455,33.455,0,0,1,3.306,2.29C495.19,161.253,495.6,163.661,494.755,163.822Z" transform="translate(-465.823 -137.122)" fill="#edb38c"/>
              <path id="Path_614" data-name="Path 614" d="M494.148,160.843c-.839.166-24.47-3.03-25.27-3.7a39.5,39.5,0,0,1,.526-5.147c5.693,2,21.031,5.984,21.636,4.811.239-.466-.065-1.069-.561-1.65a33.453,33.453,0,0,1,3.306,2.29C494.582,158.274,494.988,160.682,494.148,160.843Z" transform="translate(-465.215 -134.143)" fill="#263238"/>
            </g>
            <g id="Group_223" data-name="Group 223" transform="translate(0.275)">
              <path id="Path_615" data-name="Path 615" d="M491.174,154.451l-15.353,2.686-6.349-19.408c.191-6.625-.784-9.025-4.51-10.179-6.342-1.965-21.845,5.292-28.863.423-5.7-3.955-1.152-16.88-1.152-16.88h16.479a15.022,15.022,0,0,1,2.357,3.847s20.41-1.574,24.977,4.218C484.88,126.918,491.174,154.451,491.174,154.451Z" transform="translate(-433.229 -111.093)" fill="#edb38c"/>
              <path id="Path_616" data-name="Path 616" d="M453.465,124.953s5.819-1.02,8.6.312c2.5,1.2,3.551,2.917,3.351,9.762" transform="translate(-429.176 -108.391)" fill="#edb38c"/>
            </g>
            <path id="Path_617" data-name="Path 617" d="M434.994,111.093s-4.483,11.705,0,16.018,9.754,3.565,22.313.87c0,0,6.422-8.126,10.236-9.785a22.38,22.38,0,0,1,7.293-1.782s-7.3-2.363-20.916-1.865a12.993,12.993,0,0,0-2.444-3.456Z" transform="translate(-433 -111.093)" fill="#263238"/>
          </g>
        </g>
        <g id="Group_226" data-name="Group 226" transform="translate(5.035 0)">
          <path id="Path_618" data-name="Path 618" d="M450.953,108.228a14.284,14.284,0,0,1-2.743,1.7c1.488-2.511,1.263-8.185,1.082-7.376-.87,3.869-3.3,8.106-4.23,8.315l-.016,0a10.67,10.67,0,0,1-6.627-1.4l.006-.012c1.921-2.841,1.842-8.609,1.712-8.258-1.408,3.763-4.32,5.961-4.823,5.955h0c-1.868-1.786-2.857-3.57-2.59-3.75,1.937-1.317,3.588-4.711,5.076-8.3v0c1.47-3.537,2.213-6.9,4.283-10.06,1.9-2.889,5.677-3.437,7.819-1.959C455.515,86.964,452.152,107.29,450.953,108.228Z" transform="translate(-431.951 -82.293)" fill="#263238"/>
          <path id="Path_619" data-name="Path 619" d="M445.23,83.085a6.6,6.6,0,0,0-3.654,3.115,59.809,59.809,0,0,0-2.7,5.595,38.968,38.968,0,0,1-6.787,9.977.068.068,0,0,0,.092.1c3.022-2.277,5.094-5.544,6.791-8.9.868-1.718,1.55-3.515,2.371-5.254a11.688,11.688,0,0,1,1.659-2.67,7.207,7.207,0,0,1,2.325-1.694A.144.144,0,0,0,445.23,83.085Z" transform="translate(-432.072 -82.135)" fill="#263238"/>
        </g>
        <g id="Group_263" data-name="Group 263">
          <g id="Group_234" data-name="Group 234" transform="translate(19.385 6.617)">
            <g id="Group_232" data-name="Group 232" transform="translate(0.398)">
              <g id="Group_227" data-name="Group 227" transform="translate(15.382)">
                <path id="Path_620" data-name="Path 620" d="M461.2,88.247l-3.963,9.742a.364.364,0,0,0,.257.583l5.212.732a.854.854,0,0,0,.8-.436l3.962-9.742a.365.365,0,0,0-.256-.585L462,87.811A.849.849,0,0,0,461.2,88.247Z" transform="translate(-457.175 -87.805)" fill="#37474f"/>
                <path id="Path_621" data-name="Path 621" d="M461.719,88.313l-3.963,9.743a.364.364,0,0,0,.257.583l5.212.732a.854.854,0,0,0,.8-.436l3.962-9.742a.365.365,0,0,0-.256-.585l-5.212-.731A.848.848,0,0,0,461.719,88.313Z" transform="translate(-457.071 -87.792)" fill="#455a64"/>
                <path id="Path_622" data-name="Path 622" d="M462.331,88.879a.447.447,0,1,1-.37-.514A.448.448,0,0,1,462.331,88.879Z" transform="translate(-456.32 -87.695)" fill="#263238"/>
              </g>
              <path id="Path_623" data-name="Path 623" d="M444.823,99.78c2.008,6.712,7.4,15.847,10.134,16.291,1.3.212,3.578.87,5.509-.37a27.39,27.39,0,0,0,9.433-11.962c.417-1.238-5.356-4.915-6.424-4.017-2.5,2.105-5.7,6.489-6.071,6.4-1.384-.316-6.179-5.693-9.521-9.477C443.826,92.057,444.024,97.1,444.823,99.78Z" transform="translate(-444.36 -86.406)" fill="#edb38c"/>
              <g id="Group_231" data-name="Group 231" transform="translate(14.693 2.246)">
                <path id="Path_624" data-name="Path 624" d="M467.187,98.074c-.269-2.678-.749-3.325.224-5.705.639-1.563-.084-2.641-1.428-1.511-2.2,1.847-2.577,5.375-2.356,6.637Z" transform="translate(-455.204 -89.534)" fill="#edb38c"/>
                <g id="Group_228" data-name="Group 228" transform="translate(2.214)">
                  <path id="Path_625" data-name="Path 625" d="M466.612,105.825a17.222,17.222,0,0,0,1.685-6.306,10.464,10.464,0,0,0-5.621-9.346c-1.216-.715-3.457-.873-1.894,1.018,1.109,1.343,2.218,1.859,2.722,2.757,0,0-2.874.139-3.543,1.385a26.169,26.169,0,0,0-1.516,3.382,5.528,5.528,0,0,0,.607.341,4.227,4.227,0,0,0,.071,3.094Z" transform="translate(-458.445 -89.677)" fill="#edb38c"/>
                </g>
                <path id="Path_626" data-name="Path 626" d="M468.361,97.129A15.683,15.683,0,0,0,464.5,93.78c-1.87-1.021-5.746-2.486-6.487-1.1-.543,1.018.888,1.707.888,1.707s-1.73-.268-2.019.759c-.264.935.875,1.4.875,1.4s-1.077.018-1.157.969c-.1,1.143,2.177.917,3.079,2.158C459.885,99.956,468.361,97.129,468.361,97.129Z" transform="translate(-456.6 -89.189)" fill="#edb38c"/>
                <g id="Group_229" data-name="Group 229" transform="translate(2.294 5.174)">
                  <path id="Path_627" data-name="Path 627" d="M463.37,95.561a8.49,8.49,0,0,0-4.811-1.571c-.043,0-.066.035-.026.042a20.919,20.919,0,0,1,4.828,1.547C463.371,95.583,463.378,95.568,463.37,95.561Z" transform="translate(-458.512 -93.987)" fill="#263238"/>
                </g>
                <g id="Group_230" data-name="Group 230" transform="translate(1.125 7.313)">
                  <path id="Path_628" data-name="Path 628" d="M462.479,97.061a9.536,9.536,0,0,0-4.9-1.281c-.043,0-.064.037-.023.043a22.459,22.459,0,0,1,4.91,1.256C462.481,97.083,462.487,97.067,462.479,97.061Z" transform="translate(-457.538 -95.769)" fill="#263238"/>
                </g>
              </g>
            </g>
            <g id="Group_233" data-name="Group 233" transform="translate(0 8.379)">
              <path id="Path_629" data-name="Path 629" d="M469.635,106.367s-6.572,9.245-9.689,9.963a10.2,10.2,0,0,1-5.914-.134,2.986,2.986,0,0,1-1.074-.735c-2.653-2.564-6.843-10.858-8.369-15.4-1.144-3.41-.533-6.251,1.781-4.96a8.3,8.3,0,0,1,2.048,1.787c3.945,4.458,8.642,8.845,8.911,8.752s3.481-3.812,3.481-3.812Z" transform="translate(-444.028 -94.786)" fill="#fbf557"/>
              <path id="Path_630" data-name="Path 630" d="M465.431,106.541c-.307-.236-3.3-1.949-3.957-2.307s-3.333-1.848-4.043-2.162a.027.027,0,0,0-.026.047c.637.439,3.332,1.949,3.995,2.329s3.66,2.007,4.013,2.141C465.44,106.6,465.452,106.558,465.431,106.541Z" transform="translate(-441.351 -93.327)" fill="#263238"/>
              <path id="Path_631" data-name="Path 631" d="M462.161,115.006a5.961,5.961,0,0,1-2.216,1.322,10.19,10.19,0,0,1-5.911-.134,2.92,2.92,0,0,1-1.077-.735c-2.65-2.563-6.842-10.858-8.369-15.4-1.036-3.092-.631-5.714,1.176-5.213C449.894,99.891,457.74,109.556,462.161,115.006Z" transform="translate(-444.028 -94.786)" opacity="0.1"/>
            </g>
          </g>
          <g id="Group_237" data-name="Group 237" transform="translate(6.006 14.04)">
            <g id="Group_236" data-name="Group 236">
              <path id="Path_632" data-name="Path 632" d="M452.73,109.715l.682,6.881-20.53.409s4.762-17.294,8.483-21.124c2.517-2.591,5.385-2.317,7.166-.411.45.483,5.141,6.195,5.649,9C454.622,106.949,452.73,109.715,452.73,109.715Z" transform="translate(-432.882 -93.99)" fill="#fbf557"/>
              <g id="Group_235" data-name="Group 235" transform="translate(12.082 14.919)">
                <path id="Path_633" data-name="Path 633" d="M448.312,106.419a18.215,18.215,0,0,0-2.7.356c-.441.1-.874.216-1.306.343-.216.064-.432.12-.651.175a2.9,2.9,0,0,1-.7.109.016.016,0,0,0,0,.032,4.92,4.92,0,0,0,.665.008,4.774,4.774,0,0,0,.639-.1c.448-.1.892-.211,1.338-.312.9-.2,1.8-.4,2.716-.539C448.364,106.487,448.355,106.415,448.312,106.419Z" transform="translate(-442.948 -106.419)" fill="#263238"/>
                <path id="Path_634" data-name="Path 634" d="M449.343,107.086a12.586,12.586,0,0,0-1.774-.16,8.462,8.462,0,0,0-.889.041c-.142.013-.283.03-.425.048s-.31.067-.466.085c-.016,0-.017.034,0,.032.146-.012.3.008.443.008l.444,0c.3,0,.592,0,.888,0,.594-.007,1.185-.008,1.778.01C449.373,107.148,449.373,107.091,449.343,107.086Z" transform="translate(-442.381 -106.317)" fill="#263238"/>
              </g>
            </g>
          </g>
          <g id="Group_247" data-name="Group 247" transform="translate(0 14.48)">
            <g id="Group_238" data-name="Group 238">
              <path id="Path_635" data-name="Path 635" d="M442.97,94.865c-7.244,3.678-15.558,11.979-15.071,14.742.543,3.078,10.952-2.121,10.845-2.584-.09-.393,2.1-3.7,5.223-8.432C447.147,93.774,444.76,93.956,442.97,94.865Z" transform="translate(-427.878 -94.356)" fill="#fbf557"/>
            </g>
            <g id="Group_246" data-name="Group 246" transform="translate(0.002 5.403)">
              <g id="Group_241" data-name="Group 241" transform="translate(0 6.674)">
                <path id="Path_636" data-name="Path 636" d="M427.9,107.592c.635,2.149,3.84,3.589,11.568,7.971,1.069.606,7.38-5.789,6.27-6.495-1.4-.889-7.009-4.039-7.448-4.218C434.582,103.344,427.466,106.135,427.9,107.592Z" transform="translate(-427.879 -104.417)" fill="#edb38c"/>
                <g id="Group_240" data-name="Group 240" transform="translate(8.499 3.721)">
                  <path id="Path_637" data-name="Path 637" d="M442.79,107.517a25.8,25.8,0,0,1,4.8,3.134,13.211,13.211,0,0,1,3.2,5.447c.666,2.207.749,8.006-.917,8.321-1.508.286-1.294-5.645-1.294-5.645s.78,6.083-1.1,6.093-1.238-6.861-1.238-6.861.66,6.268-1.278,5.973c-1.466-.224-1.236-6.48-1.236-6.48s.531,5.392-.987,5.226c-1.676-.182-1.827-5.97-1.827-5.97a8.621,8.621,0,0,1-5.946-4.705C434.77,111.665,442.79,107.517,442.79,107.517Z" transform="translate(-434.96 -107.517)" fill="#edb38c"/>
                  <g id="Group_239" data-name="Group 239" transform="translate(8.577 8.99)">
                    <path id="Path_638" data-name="Path 638" d="M446.2,115.13c.118.711.241,1.43.3,2.15s.083,1.44.068,2.162a12.268,12.268,0,0,1-.319,2.8,26.5,26.5,0,0,0,.053-4.955c-.054-.718-.071-1.438-.125-2.157C446.167,115.112,446.193,115.113,446.2,115.13Z" transform="translate(-441.292 -114.985)" fill="#edb38c"/>
                    <path id="Path_639" data-name="Path 639" d="M444.028,115.252c.112.915.254,1.818.325,2.739s.055,1.79.062,2.708c0,.07-.037.047-.041-.024-.043-.917-.155-1.761-.209-2.677s-.072-1.835-.16-2.745C444,115.238,444.026,115.238,444.028,115.252Z" transform="translate(-441.725 -114.96)" fill="#edb38c"/>
                    <path id="Path_640" data-name="Path 640" d="M442.154,115.024a20.63,20.63,0,0,1,.175,4.225c0,.07-.048.035-.05-.036-.031-1.407-.047-2.51-.173-4.181C442.1,115.006,442.149,115,442.154,115.024Z" transform="translate(-442.106 -115.007)" fill="#edb38c"/>
                  </g>
                </g>
              </g>
              <g id="Group_245" data-name="Group 245" transform="translate(0.017)">
                <g id="Group_242" data-name="Group 242" transform="translate(0 6.658)">
                  <path id="Path_641" data-name="Path 641" d="M445.863,108.324s-8.9,6.778-8.993,6.743-8.836-5.167-8.975-7.473,7.1-4.031,10.384-2.758S445.863,108.324,445.863,108.324Z" transform="translate(-427.893 -104.404)" fill="#fbf557"/>
                  <path id="Path_642" data-name="Path 642" d="M441.59,106.853c-.348.21-3.157,2.473-3.757,2.978s-3.072,2.546-3.647,3.117a.028.028,0,0,0,.035.044c.671-.454,3.17-2.505,3.792-3.007s3.351-2.8,3.615-3.1C441.651,106.866,441.614,106.839,441.59,106.853Z" transform="translate(-426.635 -103.915)" fill="#263238"/>
                </g>
                <g id="Group_244" data-name="Group 244" transform="translate(6.401)">
                  <path id="Path_643" data-name="Path 643" d="M433.251,104.5a8.185,8.185,0,0,1,4.57.559c.019.01.011.034-.01.026a14.014,14.014,0,0,0-4.554-.558C433.238,104.524,433.232,104.5,433.251,104.5Z" transform="translate(-433.223 -97.748)" fill="#263238"/>
                  <g id="Group_243" data-name="Group 243" transform="translate(4.47)">
                    <path id="Path_644" data-name="Path 644" d="M443.5,109.853l.549-.418a75.53,75.53,0,0,0-7.1-3.415,68.209,68.209,0,0,1,4.428-7.163" transform="translate(-436.95 -98.857)" fill="none" stroke="#263238" stroke-miterlimit="10" stroke-width="0.228"/>
                    <path id="Path_645" data-name="Path 645" d="M439.154,101.295c.056-.024,1.485-1.466,1.485-1.466" transform="translate(-436.508 -98.662)" fill="none" stroke="#263238" stroke-miterlimit="10" stroke-width="0.152"/>
                  </g>
                  <path id="Path_646" data-name="Path 646" d="M433.226,111.959s1.524.981,2.05,1.288" transform="translate(-433.226 -96.232)" fill="none" stroke="#263238" stroke-miterlimit="10" stroke-width="0.152"/>
                </g>
              </g>
            </g>
          </g>
          <g id="Group_262" data-name="Group 262" transform="translate(14.811)">
            <g id="Group_248" data-name="Group 248" transform="translate(2.789 9.11)">
              <path id="Path_647" data-name="Path 647" d="M442.542,95.677c.1.541,1.377,2.994,3.025,2.938.846-.029.864-3,.864-3l.042-.218.583-3.055L442.9,89.883S442.515,95.523,442.542,95.677Z" transform="translate(-442.541 -89.882)" fill="#edb38c"/>
              <path id="Path_648" data-name="Path 648" d="M442.721,91.987a6.244,6.244,0,0,0,3.717,3.412l.583-3.055-4.161-2.463S442.794,90.845,442.721,91.987Z" transform="translate(-442.505 -89.882)" fill="#263238"/>
            </g>
            <g id="Group_261" data-name="Group 261" transform="translate(0.651)">
              <path id="Path_649" data-name="Path 649" d="M451.523,89.088c.478,5.437-2.725,6.336-3.9,6.438-1.065.092-4.7.271-5.738-5.088s1.341-7.3,3.764-7.639S451.047,83.651,451.523,89.088Z" transform="translate(-440.583 -82.202)" fill="#edb38c"/>
              <g id="Group_255" data-name="Group 255" transform="translate(5.989 5.086)">
                <path id="Path_650" data-name="Path 650" d="M449.225,87.112c-.128-.012-.245-.043-.371-.067a.613.613,0,0,1-.365-.14.2.2,0,0,1-.007-.238.485.485,0,0,1,.472-.126.714.714,0,0,1,.451.238A.208.208,0,0,1,449.225,87.112Z" transform="translate(-445.209 -86.53)" fill="#263238"/>
                <path id="Path_651" data-name="Path 651" d="M446.227,87.212a3.189,3.189,0,0,0,.366-.089.607.607,0,0,0,.357-.161.193.193,0,0,0-.007-.236.48.48,0,0,0-.478-.1.711.711,0,0,0-.436.263A.207.207,0,0,0,446.227,87.212Z" transform="translate(-445.701 -86.515)" fill="#263238"/>
                <g id="Group_250" data-name="Group 250" transform="translate(0 1.683)">
                  <g id="Group_249" data-name="Group 249" transform="translate(0.494)">
                    <path id="Path_652" data-name="Path 652" d="M446.886,88.241c0-.013-.029.019-.028.035.031.371,0,.8-.324.941-.011,0-.008.023,0,.02C446.945,89.158,446.975,88.587,446.886,88.241Z" transform="translate(-446.087 -87.871)" fill="#263238"/>
                    <path id="Path_653" data-name="Path 653" d="M446.608,87.932c-.6-.014-.583,1.186-.029,1.2S447.109,87.944,446.608,87.932Z" transform="translate(-446.16 -87.932)" fill="#263238"/>
                  </g>
                  <path id="Path_654" data-name="Path 654" d="M446.455,87.992c-.1.07-.205.191-.331.205-.145.016-.258-.108-.355-.228-.01-.012-.019,0-.019.014,0,.23.09.465.337.5.226.029.384-.178.438-.409C446.535,88.026,446.5,87.964,446.455,87.992Z" transform="translate(-445.749 -87.925)" fill="#263238"/>
                </g>
                <g id="Group_252" data-name="Group 252" transform="translate(3.312 1.548)">
                  <g id="Group_251" data-name="Group 251" transform="translate(0 0.023)">
                    <path id="Path_655" data-name="Path 655" d="M448.533,88.166c0-.014.029.018.029.032-.011.372.041.8.378.921.011,0,.01.023,0,.02C448.526,89.084,448.464,88.516,448.533,88.166Z" transform="translate(-448.509 -87.774)" fill="#263238"/>
                    <path id="Path_656" data-name="Path 656" d="M448.861,87.84c.6-.048.652,1.15.1,1.2S448.36,87.881,448.861,87.84Z" transform="translate(-448.507 -87.839)" fill="#263238"/>
                  </g>
                  <path id="Path_657" data-name="Path 657" d="M449.024,87.912c.1.059.2.17.311.173.131,0,.222-.132.3-.259.008-.013.018,0,.019.012.017.228-.048.471-.266.525-.2.049-.355-.142-.42-.367C448.955,87.954,448.985,87.888,449.024,87.912Z" transform="translate(-448.417 -87.82)" fill="#263238"/>
                </g>
                <path id="Path_658" data-name="Path 658" d="M446.742,90.682c.068.1.131.24.26.278a.962.962,0,0,0,.409-.007.014.014,0,0,1,.012.023.5.5,0,0,1-.5.1.4.4,0,0,1-.216-.383C446.7,90.668,446.733,90.666,446.742,90.682Z" transform="translate(-445.558 -85.7)" fill="#263238"/>
                <g id="Group_253" data-name="Group 253" transform="translate(1.554 0.013)">
                  <path id="Path_659" data-name="Path 659" d="M448.334,90.156s.09.553.1.815a1.408,1.408,0,0,1-1.38-.389c-.022-.023.013-.053.037-.037a1.875,1.875,0,0,0,1.145.3c.016-.073-.187-.941-.145-.946a2.277,2.277,0,0,1,.6.12c-.155-1.157-.495-2.281-.631-3.435a.036.036,0,0,1,.068-.018,18.932,18.932,0,0,1,.838,3.671C448.984,90.381,448.44,90.2,448.334,90.156Z" transform="translate(-447.043 -86.541)" fill="#263238"/>
                </g>
                <g id="Group_254" data-name="Group 254" transform="translate(1.425 4.027)">
                  <path id="Path_660" data-name="Path 660" d="M448.094,90.282a1.341,1.341,0,0,1-.539.423.6.6,0,0,1-.369.026c-.268-.068-.276-.314-.229-.525a1.509,1.509,0,0,1,.118-.322A1.758,1.758,0,0,0,448.094,90.282Z" transform="translate(-446.936 -89.885)" fill="#263238"/>
                  <path id="Path_661" data-name="Path 661" d="M447.555,90.651a.6.6,0,0,1-.369.026c-.268-.068-.276-.314-.229-.525A.628.628,0,0,1,447.555,90.651Z" transform="translate(-446.936 -89.831)" fill="#ff9bbc"/>
                </g>
              </g>
              <g id="Group_257" data-name="Group 257" transform="translate(0.419)">
                <g id="Group_256" data-name="Group 256">
                  <path id="Path_662" data-name="Path 662" d="M442.3,90.378c1.016.146,1.317-2.183,1.317-2.183s4.352-.664,4.78-4.191a5.983,5.983,0,0,0,2.962,3.322s-.086-3.877-3.146-4.681c0,0-3.788-1.451-5.982,1.538S441.618,90.281,442.3,90.378Z" transform="translate(-441.109 -82.293)" fill="#263238"/>
                </g>
                <path id="Path_663" data-name="Path 663" d="M447.855,83.5a3.854,3.854,0,0,1-.22,1.611,4.011,4.011,0,0,1-.844,1.413,3.382,3.382,0,0,1-.3.289l-.152.139c-.055.042-.112.082-.168.121-.114.078-.224.161-.341.234s-.244.128-.366.19c-.061.03-.121.062-.184.091l-.193.07-.384.14c-.263.068-.529.124-.793.174.251-.1.508-.181.753-.287l.363-.169.18-.084c.059-.031.114-.068.17-.1.113-.071.226-.139.34-.205s.21-.158.316-.236l.156-.119.143-.134a3.2,3.2,0,0,0,.278-.277,4.563,4.563,0,0,0,.849-1.316,4.661,4.661,0,0,0,.256-.751A4.584,4.584,0,0,0,447.855,83.5Z" transform="translate(-440.547 -82.051)" fill="#263238"/>
              </g>
              <g id="Group_260" data-name="Group 260" transform="translate(0 6.548)">
                <g id="Group_258" data-name="Group 258">
                  <path id="Path_664" data-name="Path 664" d="M443.018,89.092s-1.193-1.7-1.965-1.276.125,2.894,1.033,3.231a.924.924,0,0,0,1.236-.5Z" transform="translate(-440.76 -87.748)" fill="#edb38c"/>
                  <path id="Path_665" data-name="Path 665" d="M441.235,88.389a.012.012,0,0,0,0,.024,2.335,2.335,0,0,1,1.208,1.458.509.509,0,0,0-.762-.138c-.017.012,0,.037.017.034a.569.569,0,0,1,.625.2,2.744,2.744,0,0,1,.3.505c.03.058.133.026.112-.038l-.006-.016C442.738,89.6,442.107,88.469,441.235,88.389Z" transform="translate(-440.667 -87.62)" fill="#263238"/>
                </g>
                <g id="Group_259" data-name="Group 259" transform="translate(1.422 2.801)">
                  <path id="Path_666" data-name="Path 666" d="M441.952,90.377a.234.234,0,1,0,.164-.288A.234.234,0,0,0,441.952,90.377Z" transform="translate(-441.944 -90.081)" fill="#455a64"/>
                  <path id="Path_667" data-name="Path 667" d="M442.051,90.324a.111.111,0,1,0,.078-.137A.112.112,0,0,0,442.051,90.324Z" transform="translate(-441.923 -90.061)" fill="#263238"/>
                </g>
                <path id="Path_668" data-name="Path 668" d="M441.61,90.125a.166.166,0,1,0,.116-.2A.166.166,0,0,0,441.61,90.125Z" transform="translate(-440.59 -87.314)" fill="#455a64"/>
              </g>
            </g>
            <path id="Path_669" data-name="Path 669" d="M440.217,95.085s2.671,4.171,5.691,4.113c2.4-.046,2.577-2.88,2.577-2.88a5.869,5.869,0,0,0-4.428-2.327A6.533,6.533,0,0,0,440.217,95.085Z" transform="translate(-440.217 -79.951)" fill="#edb38c"/>
          </g>
        </g>
      </g>
    </g>
    <g id="Group_267" data-name="Group 267" transform="translate(29.152 37.895)">
      <g id="Group_266" data-name="Group 266">
        <path id="Path_670" data-name="Path 670" d="M467.322,79.582A7.936,7.936,0,0,1,454.06,84.6l-3.971.583,1.986-3.433a7.938,7.938,0,1,1,15.246-2.17Z" transform="translate(-449.821 -70.747)" fill="#fff"/>
        <path id="Path_671" data-name="Path 671" d="M467.367,79.593a8,8,0,0,1-1.6,4.023,7.166,7.166,0,0,1-1.557,1.538,8.026,8.026,0,0,1-4.052,1.575,7.674,7.674,0,0,1-1.1.022,7.027,7.027,0,0,1-1.1-.114,8,8,0,0,1-3.927-1.94l.094.03-3.967.609-.288.044.146-.254,1.975-3.439-.008.136a8.032,8.032,0,0,1,9.951-10.661,8.116,8.116,0,0,1,3.062,1.877A7.984,7.984,0,0,1,467.367,79.593Zm0,0a7.853,7.853,0,0,0-9-8.591,7.8,7.8,0,0,0-3.278,1.3,8.2,8.2,0,0,0-2.375,2.59,7.829,7.829,0,0,0-1.007,3.358,7.934,7.934,0,0,0,.558,3.458l.029.071-.037.065-2,3.427-.143-.21,3.975-.557.054-.007.04.037a7.825,7.825,0,0,0,3.8,1.958,6.922,6.922,0,0,0,1.078.131,7.614,7.614,0,0,0,1.085,0,7.8,7.8,0,0,0,2.121-.467,7.4,7.4,0,0,0,1.915-1.031,9.152,9.152,0,0,0,.838-.7,8.82,8.82,0,0,0,.721-.82A7.986,7.986,0,0,0,467.367,79.593Z" transform="translate(-449.866 -70.759)" fill="#263238"/>
      </g>
      <path id="Path_672" data-name="Path 672" d="M457.661,82.7l-3.39-3.432,1.139-1.125,1.98,2L461.5,73.7l1.35.861Z" transform="translate(-448.984 -70.169)" fill="#f0d634"/>
    </g>
  </g>
</svg>
