<svg xmlns="http://www.w3.org/2000/svg" xmlns:xlink="http://www.w3.org/1999/xlink" width="130.673" height="148" viewBox="0 0 130.673 148">
  <defs>
    <clipPath id="clip-path">
      <path id="Path_363" data-name="Path 363" d="M669.089,92.337v14.746a1.553,1.553,0,0,0,1.55,1.55h13.8a1.5,1.5,0,0,1,1.108.466l3.6,3.682a1.5,1.5,0,0,0,1.109.466h8.935a1.55,1.55,0,0,0,1.43-2.15L692.5,91.738a1.523,1.523,0,0,0-1.43-.951H670.639A1.553,1.553,0,0,0,669.089,92.337Z" transform="translate(-669.089 -90.787)" fill="none" clip-rule="evenodd"/>
    </clipPath>
  </defs>
  <g id="card-2" transform="translate(0)">
    <g id="Group_181" data-name="Group 181" transform="translate(6.641 67.9)">
      <g id="Group_177" data-name="Group 177">
        <rect id="Rectangle_140" data-name="Rectangle 140" width="71.986" height="51.888" rx="1.45" transform="translate(1.485)" fill="#fbf557"/>
        <path id="Path_324" data-name="Path 324" d="M588.282,82.583v3.291h67.8V82.583Zm0,4.419v6.87h67.8V87Zm0,8v6.87h67.8V95Zm0,8v6.87h67.8V103Zm0,8v6.87h67.8V111Zm0,8v6.87h67.8V119Zm0,8v3.29h67.8v-3.29Z" transform="translate(-584.704 -80.49)" fill="#f0d634" fill-rule="evenodd"/>
        <rect id="Rectangle_141" data-name="Rectangle 141" width="75.473" height="2.871" transform="translate(0.254 53.323)"/>
        <g id="Group_173" data-name="Group 173" transform="translate(78.423 6.768)">
          <path id="Path_325" data-name="Path 325" d="M667,87.668h25.732a1.523,1.523,0,0,1,1.43.951l10.659,25.423a1.482,1.482,0,0,1,.12.6v32.913a1.029,1.029,0,0,1-1.026,1.026h-4.357a13.28,13.28,0,1,0-26.559,0h-6a1.029,1.029,0,0,1-1.026-1.026V88.693A1.029,1.029,0,0,1,667,87.668Z" transform="translate(-665.969 -87.668)" fill="#fbf557" fill-rule="evenodd"/>
          <path id="Path_326" data-name="Path 326" d="M668.077,92.256a2.484,2.484,0,0,1,2.481-2.481H690.99a2.454,2.454,0,0,1,2.288,1.522l8.116,19.36a2.481,2.481,0,0,1-2.288,3.44h-8.935a2.426,2.426,0,0,1-1.774-.747l-3.6-3.682a.572.572,0,0,0-.443-.187h-13.8a2.484,2.484,0,0,1-2.481-2.48Z" transform="translate(-666.139 -87.838)" fill="#f0d634" fill-rule="evenodd"/>
          <path id="Path_327" data-name="Path 327" d="M669.089,92.337v14.746a1.553,1.553,0,0,0,1.55,1.55h13.8a1.5,1.5,0,0,1,1.108.466l3.6,3.682a1.5,1.5,0,0,0,1.109.466h8.935a1.55,1.55,0,0,0,1.43-2.15L692.5,91.738a1.523,1.523,0,0,0-1.43-.951H670.639A1.553,1.553,0,0,0,669.089,92.337Z" transform="translate(-666.22 -87.919)" fill="#fff" fill-rule="evenodd"/>
          <path id="Path_328" data-name="Path 328" d="M669.584,117.479v26.348a1.552,1.552,0,0,0,.815,1.364,17.129,17.129,0,0,1,30.48-3.738v-19.36a1.553,1.553,0,0,0-1.55-1.55h-9.916a1.5,1.5,0,0,1-1.109-.467l-3.6-3.682a1.5,1.5,0,0,0-1.108-.466H671.134A1.553,1.553,0,0,0,669.584,117.479Z" transform="translate(-666.26 -89.944)" fill="#f0d634" fill-rule="evenodd"/>
          <path id="Path_329" data-name="Path 329" d="M708.08,121.306h-2.513a.566.566,0,0,0-.564.565v20.868a.565.565,0,0,0,.564.564h2.513Z" transform="translate(-669.112 -90.377)" fill-rule="evenodd"/>
          <path id="Path_330" data-name="Path 330" d="M708.169,122.909h-1.756a.3.3,0,0,0-.3.3v.692a.3.3,0,0,0,.3.294h1.756v-1.282Zm0,19.048v-1.282h-1.756a.3.3,0,0,0-.3.3v.691a.3.3,0,0,0,.3.3Zm0-1.974V138.7h-1.756a.3.3,0,0,0-.3.3v.691a.3.3,0,0,0,.3.3Zm0-1.974v-1.282h-1.756a.3.3,0,0,0-.3.3v.692a.3.3,0,0,0,.3.294Zm0-1.973v-1.283h-1.756a.3.3,0,0,0-.3.3v.692a.3.3,0,0,0,.3.3Zm0-1.974V132.78h-1.756a.3.3,0,0,0-.3.294v.692a.3.3,0,0,0,.3.3Zm0-1.974v-1.282h-1.756a.3.3,0,0,0-.3.294v.692a.3.3,0,0,0,.3.3Zm0-1.974v-1.282h-1.756a.3.3,0,0,0-.3.3v.691a.3.3,0,0,0,.3.3Zm0-1.974v-1.282h-1.756a.3.3,0,0,0-.3.3v.691a.3.3,0,0,0,.3.3Zm0-1.974v-1.282h-1.756a.3.3,0,0,0-.3.3v.692a.3.3,0,0,0,.3.294Z" transform="translate(-669.202 -90.506)" fill="#4e4e4e" fill-rule="evenodd"/>
          <rect id="Rectangle_142" data-name="Rectangle 142" width="4.358" height="1.692" rx="0.53" transform="translate(5.96 28.11)" fill="#fbf557"/>
          <path id="Path_331" data-name="Path 331" d="M708.2,125.869a5.5,5.5,0,0,0,0,8.056Z" transform="translate(-669.228 -90.744)" fill="#eeb400" fill-rule="evenodd"/>
        </g>
        <path id="Path_332" data-name="Path 332" d="M647.044,138.3h7.626a6.717,6.717,0,0,1,6.7,6.7h0a6.717,6.717,0,0,1-6.7,6.7h-7.626a6.717,6.717,0,0,1-6.7-6.7h0A6.717,6.717,0,0,1,647.044,138.3Z" transform="translate(-587.007 -84.977)" fill="#fbf557" fill-rule="evenodd"/>
        <path id="Path_333" data-name="Path 333" d="M649.311,138.3v13.395h-1.72c-.152,0-.3-.006-.452-.016V138.316c.15-.01.3-.016.452-.016Zm4.185,0h1.72c.152,0,.3.006.452.016v13.364c-.15.01-.3.016-.452.016H653.5Z" transform="translate(-587.576 -84.977)" fill="#f0d634" fill-rule="evenodd"/>
        <g id="Group_174" data-name="Group 174" transform="translate(86.385 55.387)">
          <path id="Path_334" data-name="Path 334" d="M686.985,140.545A12.356,12.356,0,1,1,674.628,152.9a12.355,12.355,0,0,1,12.357-12.356Zm0,4.762a7.594,7.594,0,1,0,7.594,7.594A7.595,7.595,0,0,0,686.985,145.307Z" transform="translate(-674.628 -140.545)" fill="#111c3e" fill-rule="evenodd"/>
          <path id="Path_335" data-name="Path 335" d="M687.4,145.724a7.594,7.594,0,1,1-7.595,7.594,7.594,7.594,0,0,1,7.595-7.594Zm-2.719,4.092,1.091,1.092a2.89,2.89,0,0,1,1.073-.445v-1.544a4.415,4.415,0,0,0-2.164.9Zm.308,1.876L683.9,150.6a4.408,4.408,0,0,0-.9,2.164h1.544a2.89,2.89,0,0,1,.445-1.073Zm-.445,2.181H683a4.415,4.415,0,0,0,.9,2.164l1.092-1.091a2.89,2.89,0,0,1-.445-1.073Zm1.228,1.856-1.091,1.091a4.408,4.408,0,0,0,2.164.9v-1.544a2.889,2.889,0,0,1-1.073-.445Zm2.181.445v1.544a4.414,4.414,0,0,0,2.164-.9l-1.091-1.092a2.889,2.889,0,0,1-1.073.445Zm1.856-1.228,1.091,1.091a4.407,4.407,0,0,0,.9-2.164h-1.544a2.89,2.89,0,0,1-.445,1.073Zm.445-2.181H691.8a4.415,4.415,0,0,0-.9-2.164l-1.092,1.091a2.873,2.873,0,0,1,.445,1.073Zm-1.228-1.856,1.091-1.091a4.407,4.407,0,0,0-2.164-.9v1.544A2.89,2.89,0,0,1,689.029,150.908Z" transform="translate(-675.045 -140.962)" fill="#90a1a1" fill-rule="evenodd"/>
          <path id="Path_336" data-name="Path 336" d="M687.47,146.567a6.819,6.819,0,1,1-6.82,6.819,6.82,6.82,0,0,1,6.82-6.819Zm0,1.072a5.747,5.747,0,1,0,5.747,5.747A5.747,5.747,0,0,0,687.47,147.639Z" transform="translate(-675.113 -141.03)" fill="#979797" fill-rule="evenodd" style="mix-blend-mode: multiply;isolation: isolate"/>
          <path id="Path_337" data-name="Path 337" d="M687.954,152.577a1.293,1.293,0,1,1-1.294,1.293A1.293,1.293,0,0,1,687.954,152.577Z" transform="translate(-675.597 -141.514)" fill="#979797" fill-rule="evenodd" style="mix-blend-mode: multiply;isolation: isolate"/>
        </g>
        <g id="Group_175" data-name="Group 175" transform="translate(26.238 55.387)">
          <path id="Path_338" data-name="Path 338" d="M624.233,140.545A12.356,12.356,0,1,1,611.876,152.9a12.356,12.356,0,0,1,12.357-12.356Zm0,4.762a7.594,7.594,0,1,0,7.595,7.594A7.594,7.594,0,0,0,624.233,145.307Z" transform="translate(-611.876 -140.545)" fill="#111c3e" fill-rule="evenodd"/>
          <path id="Path_339" data-name="Path 339" d="M624.65,145.724a7.594,7.594,0,1,1-7.595,7.594,7.595,7.595,0,0,1,7.595-7.594Zm-2.718,4.092,1.091,1.092a2.891,2.891,0,0,1,1.072-.445v-1.544a4.412,4.412,0,0,0-2.164.9Zm.307,1.876-1.091-1.091a4.415,4.415,0,0,0-.9,2.164h1.544a2.888,2.888,0,0,1,.444-1.073Zm-.444,2.181h-1.544a4.4,4.4,0,0,0,.9,2.164l1.091-1.091a2.888,2.888,0,0,1-.444-1.073Zm1.228,1.856-1.091,1.091a4.4,4.4,0,0,0,2.164.9v-1.544a2.891,2.891,0,0,1-1.072-.445Zm2.181.445v1.544a4.418,4.418,0,0,0,2.164-.9l-1.092-1.092a2.891,2.891,0,0,1-1.072.445Zm1.856-1.228,1.091,1.091a4.407,4.407,0,0,0,.9-2.164H627.5a2.887,2.887,0,0,1-.444,1.073Zm.445-2.181h1.544a4.408,4.408,0,0,0-.9-2.164l-1.091,1.091a2.905,2.905,0,0,1,.445,1.073Zm-1.229-1.856,1.092-1.091a4.411,4.411,0,0,0-2.164-.9v1.544A2.892,2.892,0,0,1,626.276,150.908Z" transform="translate(-612.293 -140.962)" fill="#90a1a1" fill-rule="evenodd"/>
          <path id="Path_340" data-name="Path 340" d="M624.718,146.567a6.819,6.819,0,1,1-6.819,6.819,6.819,6.819,0,0,1,6.819-6.819Zm0,1.072a5.747,5.747,0,1,0,5.748,5.747A5.746,5.746,0,0,0,624.718,147.639Z" transform="translate(-612.361 -141.03)" fill="#979797" fill-rule="evenodd" style="mix-blend-mode: multiply;isolation: isolate"/>
          <path id="Path_341" data-name="Path 341" d="M625.2,152.577a1.293,1.293,0,1,1-1.293,1.293A1.293,1.293,0,0,1,625.2,152.577Z" transform="translate(-612.845 -141.514)" fill="#979797" fill-rule="evenodd" style="mix-blend-mode: multiply;isolation: isolate"/>
        </g>
        <g id="Group_176" data-name="Group 176" transform="translate(0 55.387)">
          <path id="Path_342" data-name="Path 342" d="M596.747,140.545A12.356,12.356,0,1,1,584.391,152.9a12.356,12.356,0,0,1,12.356-12.356Zm0,4.762a7.594,7.594,0,1,0,7.595,7.594A7.594,7.594,0,0,0,596.747,145.307Z" transform="translate(-584.391 -140.545)" fill="#111c3e" fill-rule="evenodd"/>
          <path id="Path_343" data-name="Path 343" d="M597.164,145.724a7.594,7.594,0,1,1-7.594,7.594,7.595,7.595,0,0,1,7.594-7.594Zm-2.718,4.092,1.091,1.092a2.89,2.89,0,0,1,1.073-.445v-1.544a4.415,4.415,0,0,0-2.164.9Zm.308,1.876-1.091-1.091a4.407,4.407,0,0,0-.9,2.164h1.544a2.889,2.889,0,0,1,.445-1.073Zm-.445,2.181h-1.544a4.414,4.414,0,0,0,.9,2.164l1.092-1.091a2.874,2.874,0,0,1-.445-1.073Zm1.228,1.856-1.091,1.091a4.407,4.407,0,0,0,2.164.9v-1.544a2.89,2.89,0,0,1-1.073-.445Zm2.181.445v1.544a4.414,4.414,0,0,0,2.164-.9l-1.091-1.092a2.888,2.888,0,0,1-1.073.445Zm1.856-1.228,1.091,1.091a4.408,4.408,0,0,0,.9-2.164H600.02a2.886,2.886,0,0,1-.445,1.073Zm.445-2.181h1.544a4.416,4.416,0,0,0-.9-2.164l-1.092,1.091a2.886,2.886,0,0,1,.445,1.073Zm-1.228-1.856,1.091-1.091a4.407,4.407,0,0,0-2.164-.9v1.544A2.889,2.889,0,0,1,598.791,150.908Z" transform="translate(-584.808 -140.962)" fill="#90a1a1" fill-rule="evenodd"/>
          <path id="Path_344" data-name="Path 344" d="M597.232,146.567a6.819,6.819,0,1,1-6.819,6.819,6.82,6.82,0,0,1,6.819-6.819Zm0,1.072a5.747,5.747,0,1,0,5.748,5.747A5.747,5.747,0,0,0,597.232,147.639Z" transform="translate(-584.876 -141.03)" fill="#979797" fill-rule="evenodd" style="mix-blend-mode: multiply;isolation: isolate"/>
          <path id="Path_345" data-name="Path 345" d="M597.716,152.577a1.293,1.293,0,1,1-1.293,1.293A1.294,1.294,0,0,1,597.716,152.577Z" transform="translate(-585.36 -141.514)" fill="#979797" fill-rule="evenodd" style="mix-blend-mode: multiply;isolation: isolate"/>
        </g>
      </g>
      <g id="Group_180" data-name="Group 180" transform="translate(81.292 9.636)">
        <g id="Group_179" data-name="Group 179" clip-path="url(#clip-path)">
          <g id="Group_178" data-name="Group 178" transform="translate(4.633 1.838)">
            <path id="Path_346" data-name="Path 346" d="M685.48,113.65a2.642,2.642,0,0,0-.212-.861l-.678-1.833c-.073-.2-.144-.391-.222-.584-.1-.254-.214-.5-.326-.753l-.1-.234-.489-1.091a.8.8,0,0,0-.214-.324.9.9,0,0,0-.658-.071,3.882,3.882,0,0,1-2.954-.9,8.707,8.707,0,0,0,.89,3.81,10.7,10.7,0,0,0,1.824,2.693,2.61,2.61,0,0,0,2.109,1.052C685.03,114.556,685.49,114.3,685.48,113.65Z" transform="translate(-674.57 -93.93)" fill="#f0d634"/>
            <path id="Path_347" data-name="Path 347" d="M685.9,99.357c.084.556.268,1.092.366,1.646a5.377,5.377,0,0,1-.371,3.077,2.976,2.976,0,0,1-1.655,1.712c-.405.135-.842.139-1.256.245a2.643,2.643,0,0,0-1.806,1.663,11.817,11.817,0,0,1-3.546-2.1,12.22,12.22,0,0,0-.44-6.217.908.908,0,0,1-.03-.786.84.84,0,0,1,.394-.269,12.96,12.96,0,0,1,8-.655c.4.1.48.133.375.53A2.863,2.863,0,0,0,685.9,99.357Z" transform="translate(-674.366 -93.151)" fill="#edb38c"/>
            <path id="Path_348" data-name="Path 348" d="M686.469,100.213a2.92,2.92,0,0,1,.818,1.993,5.8,5.8,0,0,1-.789,2.529,4.525,4.525,0,0,1-.7,1.124,1.522,1.522,0,0,1-1.168.532,2.277,2.277,0,0,1-1.315-.761l-1.154-1.081a.931.931,0,0,1-.34-.5.162.162,0,0,0,.234-.029.473.473,0,0,0,.076-.254c.057-.554.1-1.112.123-1.668.009-.193-.054-.592.092-.743.121-.124.569-.16.739-.207Z" transform="translate(-674.748 -93.384)" fill="#b7e2e1"/>
            <path id="Path_349" data-name="Path 349" d="M677.659,102.475a.1.1,0,0,0-.048.188c.041.024.113-.006.106-.061a.871.871,0,0,0-.183-.439c-.085-.1-.256-.28-.393-.16a.371.371,0,0,0-.029.433,1.023,1.023,0,0,0,.389.367c.068.044.142-.054.085-.11a.24.24,0,0,0-.359.049.607.607,0,0,0-.093.22.364.364,0,0,0-.005.217.217.217,0,0,0,.35.058.642.642,0,0,0,.135-.193q.077-.143.155-.287c.042-.08-.079-.152-.122-.072l-.167.312c-.031.056-.109.209-.2.158-.07-.04,0-.2.018-.258s.11-.179.186-.1l.085-.11a1.143,1.143,0,0,1-.281-.227c-.062-.076-.139-.231-.074-.326.036-.053.093.01.128.041a.684.684,0,0,1,.108.121.718.718,0,0,1,.121.311l.106-.061-.023.074C677.749,102.608,677.749,102.467,677.659,102.475Z" transform="translate(-674.364 -93.525)" fill="#b7e2e1"/>
            <path id="Path_350" data-name="Path 350" d="M682.393,102.909a1.647,1.647,0,0,0,.83,1.964l.909.691a1.59,1.59,0,0,0,.758.382.548.548,0,0,0,.623-.447.808.808,0,0,0-.337-.562l-.824-.758,1.941-.009.047-.933-1.577-.12,1.5-.305a.792.792,0,0,0,.375-.148.53.53,0,0,0,.15-.454,1.563,1.563,0,0,0-.154-.47l-1.58.446a.393.393,0,0,1-.212.019.135.135,0,0,1-.1-.165l1.3-.679a.807.807,0,0,0,.364-.294.278.278,0,0,0-.12-.4,2.167,2.167,0,0,0-.689.131c-.248.049-.495.1-.741.155q-.713.157-1.419.339c-.291.075-.715.1-.865.4A4.155,4.155,0,0,0,682.393,102.909Z" transform="translate(-674.79 -93.42)" fill="#a3cecc"/>
            <path id="Path_351" data-name="Path 351" d="M682.618,97.4a37.842,37.842,0,0,1,5.145.36.278.278,0,0,0,.209-.493,3.463,3.463,0,0,0-.585-.367,3.591,3.591,0,0,1-1.182-.784,6.56,6.56,0,0,1-.664-1.429,3.443,3.443,0,0,0-2.206-1.727,6.24,6.24,0,0,0-2.861-.02,5.969,5.969,0,0,0-3.247,1.6,3.219,3.219,0,0,0-.749,3.389,1.836,1.836,0,0,0,.293.474c.181.2.258.111.487.015a11.33,11.33,0,0,1,1.239-.44,14.314,14.314,0,0,1,2.612-.493C681.611,97.437,682.114,97.41,682.618,97.4Z" transform="translate(-674.3 -92.786)" fill="#f0d634"/>
            <path id="Path_352" data-name="Path 352" d="M685.856,96.258a7.379,7.379,0,0,0-1.646-2.324,3.166,3.166,0,0,0-2.643-.817,3.061,3.061,0,0,0-2.177,2.235,1.507,1.507,0,0,1-.393.836c-.34.269-.9.147-1.2.455-.214.217-.226.575-.433.8a1.774,1.774,0,0,1-.358.254.587.587,0,0,0-.277.328c-.175.717,1.114,0,1.32-.086q.907-.361,1.842-.647a24.309,24.309,0,0,1,3.81-.838q.546-.074,1.1-.124A5.144,5.144,0,0,1,685.856,96.258Z" transform="translate(-674.336 -92.809)" fill="#fbf557"/>
            <path id="Path_353" data-name="Path 353" d="M680.2,100.648l-.542.073a2.651,2.651,0,0,0-.2-1.079,1.041,1.041,0,0,0-.84-.631,1,1,0,0,0-.9.624,1.967,1.967,0,0,0-.079,1.148c.07.383.2.754.268,1.137a1.973,1.973,0,0,1-.077,1.148,2.147,2.147,0,0,0-.671-1.51c.079.013.126-.1.094-.174s-.106-.12-.16-.178a.864.864,0,0,1-.166-.524l-.079-.908a1.158,1.158,0,0,1,.066-.645,1.112,1.112,0,0,1,.587-.44,11.287,11.287,0,0,1,2.492-.74c.218-.038.436-.069.656-.095.2-.023.338-.072.281.163-.1.4-.357.792-.474,1.2A6.825,6.825,0,0,0,680.2,100.648Z" transform="translate(-674.346 -93.192)" fill="#2d1416"/>
            <path id="Path_354" data-name="Path 354" d="M684.762,99.348l.568.1c.123.022.269.028.322-.11a.2.2,0,0,0-.092-.257c-.1-.032-.3.057-.4.09C685.08,99.2,684.837,99.361,684.762,99.348Z" transform="translate(-674.984 -93.292)" fill="#e5e2da"/>
            <path id="Path_355" data-name="Path 355" d="M686.023,98.464a.826.826,0,0,0-.444-.2.958.958,0,0,0-.445,0,1.529,1.529,0,0,0-.709.481l0,0a.987.987,0,0,1,.725-.333,2.3,2.3,0,0,1,.382,0,1.167,1.167,0,0,1,.2.051c.077.028.147.071.224.1S686.063,98.509,686.023,98.464Z" transform="translate(-674.957 -93.225)" fill="#2d1416"/>
            <path id="Path_356" data-name="Path 356" d="M685.88,98.932a1.733,1.733,0,0,0-.206.029.338.338,0,0,0,.146-.251c0-.039-.055-.038-.059,0l0,.013a.3.3,0,0,1-.163.236.016.016,0,0,0-.009.019l0,0c-.1.025-.208.057-.308.087a5.338,5.338,0,0,0-.585.221.042.042,0,0,0,0,.073.634.634,0,0,0,.254.057l.323.023c.1.006.192.01.287.019a.018.018,0,0,0,.028,0h0a.276.276,0,0,1,.142.049c.033.024.052.06.085.083a.013.013,0,0,0,.018-.007.17.17,0,0,0-.1-.161.284.284,0,0,0-.1-.038.484.484,0,0,0,.03-.355c.075-.022.149-.044.223-.071C685.9,98.958,685.9,98.931,685.88,98.932Zm-.312.129a.409.409,0,0,1-.01.116.336.336,0,0,1-.019.058c-.047,0-.06-.045-.059-.091.013-.025.029-.05.04-.069Zm-.475.286a1.867,1.867,0,0,1-.266-.025c.158-.067.319-.129.482-.183l.047-.016a.268.268,0,0,0-.007.21.187.187,0,0,0,.021.034Z" transform="translate(-674.977 -93.261)" fill="#2d1416"/>
            <path id="Path_357" data-name="Path 357" d="M682.168,101.358l-.059.1-2.276-1.149c-.062-.031-.233-.133-.154-.229.06-.073.256.065.315.094.251.119.5.245.746.373C680.862,100.613,682.182,101.335,682.168,101.358Z" transform="translate(-674.574 -93.372)" fill="#b7e2e1"/>
            <path id="Path_358" data-name="Path 358" d="M677.744,102.773l3.147,1.273.884.357a.107.107,0,0,0,.131-.074.108.108,0,0,0-.075-.13l-3.146-1.273-.884-.357a.106.106,0,0,0-.131.074A.108.108,0,0,0,677.744,102.773Z" transform="translate(-674.413 -93.573)" fill="#b7e2e1"/>
            <path id="Path_359" data-name="Path 359" d="M679.07,99.823a.455.455,0,0,0-.53-.2.673.673,0,0,0-.414.426,1.346,1.346,0,0,0-.045.609,2.725,2.725,0,0,0,.433,1.186c.089.134.233.277.387.23.374-.111.176-.812.092-1.054C678.853,100.613,679.26,100.2,679.07,99.823Z" transform="translate(-674.445 -93.335)" fill="#c48d69"/>
            <path id="Path_360" data-name="Path 360" d="M681.612,107.456a2.688,2.688,0,0,0,.276.968,2.643,2.643,0,0,1,.272.968.909.909,0,0,1-.45.847l1.05,0,.5,4.23-8.534-.342c-.093-1.082-.438-2.129-.557-3.208a3.823,3.823,0,0,1,.771-3.06c.439-.469,1.053-.759,1.444-1.269a4,4,0,0,0,.551-1.177c.054-.161.165-.787.323-.856.2-.088.393.258.491.382a7.369,7.369,0,0,0,1.1,1.109,7.447,7.447,0,0,0,1.308.855C680.279,106.963,681.611,107.446,681.612,107.456Z" transform="translate(-674.128 -93.732)" fill="#f0d634"/>
            <path id="Path_361" data-name="Path 361" d="M674.692,110.667a10.668,10.668,0,0,0,.883,3.415,16.57,16.57,0,0,0,4.632.131,8.424,8.424,0,0,0-.533-3.139c-.151-.382-.337-.75-.522-1.118a5.385,5.385,0,0,0-.542-.919,2.773,2.773,0,0,0-2.172-1.014,1.5,1.5,0,0,0-1.544.943A3.249,3.249,0,0,0,674.692,110.667Z" transform="translate(-674.172 -94.013)" fill="#fbf557"/>
            <path id="Path_362" data-name="Path 362" d="M695.815,118.575h0a.669.669,0,0,1-.413-.851l2.123-6.112a.67.67,0,0,1,.852-.413h0a.67.67,0,0,1,.412.852l-2.123,6.111A.669.669,0,0,1,695.815,118.575Z" transform="translate(-675.838 -94.266)" fill="#0b0c0c"/>
          </g>
        </g>
      </g>
      <path id="Path_364" data-name="Path 364" d="M670.553,105.749l25.9.05a1.523,1.523,0,0,1,1.427.951l2.349,5.6c.21.5.593.962.3,1.407a1.511,1.511,0,0,1-1.291.691h-8.935a1.5,1.5,0,0,1-1.109-.466l-3.6-3.682a1.5,1.5,0,0,0-1.108-.466h-13.8a1.545,1.545,0,0,1-.958-.333v-2.936A.823.823,0,0,1,670.553,105.749Z" transform="translate(-587.849 -82.356)" fill="#cbd7d7" fill-rule="evenodd" style="mix-blend-mode: multiply;isolation: isolate"/>
    </g>
    <g id="Group_185" data-name="Group 185" transform="translate(0 0)">
      <g id="Group_182" data-name="Group 182" transform="translate(0 0.573)">
        <path id="Path_365" data-name="Path 365" d="M602.318,64.551a1.067,1.067,0,0,0-.03.353.806.806,0,0,0,.645.594c.3.075.619.056.924.116a10.775,10.775,0,0,1,1.481.61,2.78,2.78,0,0,0,1.71.045c.264-.078.547-.235.6-.506.07-.371-.325-.646-.661-.818a5.817,5.817,0,0,1-1.332-.852,2.117,2.117,0,0,1-.726-1.367c-.025-.365.039-.816-.267-1.016a.858.858,0,0,0-.4-.1,3.4,3.4,0,0,0-1.18-.066c-.27.127-.248.467-.312.785Z" transform="translate(-579.19 -15.333)" fill="#281b1c"/>
        <path id="Path_366" data-name="Path 366" d="M601.227,48.9a4.186,4.186,0,0,1,.492,1.317c.032.287-.006.578,0,.867a5.134,5.134,0,0,0,.185,1.038q.254,1.012.507,2.025a.954.954,0,0,1-.053.836c-.092.111-.242.2-.249.339-.01.193.234.281.358.431.249.3-.051.735-.1,1.124-.059.443.229.873.195,1.319-.031.4-.32.753-.33,1.156a1.176,1.176,0,0,0,.817,1.044,3.431,3.431,0,0,0,1.4.118.586.586,0,0,0,.3-.071c.39-.258-.118-1.079.309-1.273.064-.029.138-.033.2-.063a.56.56,0,0,0,.237-.411c.531-2.2,1.849-4.276,1.661-6.529a10.029,10.029,0,0,0-.465-2.053q-.342-1.132-.683-2.265a2.526,2.526,0,0,0-1.775-1.936c-.555-.273-4.185-2.4-4.508-1.953-.221.308.467,2.08.575,2.455A15.6,15.6,0,0,0,601.227,48.9Z" transform="translate(-578.981 -13.915)" fill="#274459"/>
        <path id="Path_367" data-name="Path 367" d="M605.468,52.746a6.985,6.985,0,0,1,.155,2.151c-.108.816-.493,1.582-.564,2.4a4.148,4.148,0,0,1-.148,1.22c-.123.3-.363.553-.474.862s-.017.743.3.816c.255-.336.215-.806.378-1.194a3.465,3.465,0,0,1,.342-.556,7.883,7.883,0,0,0,.951-2.64A12.886,12.886,0,0,0,606.843,53a10.751,10.751,0,0,0-1.145-4.392,3.041,3.041,0,0,0-.79-1.188.584.584,0,0,0-.4-.156c-.431.04-.08.534,0,.75a12.4,12.4,0,0,1,.348,1.592Q605.183,51.171,605.468,52.746Z" transform="translate(-579.352 -14.186)" fill="#35526d"/>
        <path id="Path_368" data-name="Path 368" d="M604.217,55.1a2.092,2.092,0,0,0-.7.332.71.71,0,0,0-.273.682,5.605,5.605,0,0,0,.863-.2c.278-.081.614-.239.6-.528a.406.406,0,0,0-.383-.359.661.661,0,0,0-.508.228" transform="translate(-579.267 -14.812)" fill="#ca0007"/>
        <path id="Path_369" data-name="Path 369" d="M603.53,56.784c-.066.04-.131.078-.2.116a.822.822,0,0,0,.553.469c.137.034.315.01.368-.12s-.065-.278-.193-.346a.829.829,0,0,0-.686-.04" transform="translate(-579.275 -14.953)" fill="#ca0007"/>
        <path id="Path_370" data-name="Path 370" d="M590.792,59.623h-2.026V49.394h2.026Zm-1.835-.192H590.6V49.586h-1.644Z" transform="translate(-578.102 -14.358)" fill="#99caca"/>
        <path id="Path_371" data-name="Path 371" d="M590.617,60.191l-1.756-1.014,5.115-8.857,1.755,1.013Zm-1.494-1.084,1.423.823,4.923-8.527-1.423-.822Z" transform="translate(-578.11 -14.433)" fill="#99caca"/>
        <path id="Path_372" data-name="Path 372" d="M590.24,60.819l-1.013-1.755,8.857-5.114,1.014,1.755Zm-.752-1.685.822,1.424,8.526-4.923-.822-1.423Z" transform="translate(-578.139 -14.725)" fill="#99caca"/>
        <path id="Path_373" data-name="Path 373" d="M599.992,61.339H589.764V59.312h10.228Zm-10.037-.192H599.8V59.5h-9.846Z" transform="translate(-578.182 -15.157)" fill="#99caca"/>
        <path id="Path_374" data-name="Path 374" d="M598.084,66.277l-8.857-5.114,1.013-1.755,8.858,5.114Zm-8.6-5.184,8.526,4.923.822-1.424L590.31,59.67Z" transform="translate(-578.139 -15.165)" fill="#99caca"/>
        <path id="Path_375" data-name="Path 375" d="M593.976,69.644l-5.115-8.857,1.756-1.014,5.114,8.858Zm-4.853-8.787,4.923,8.526,1.423-.822-4.923-8.526Z" transform="translate(-578.11 -15.194)" fill="#99caca"/>
        <path id="Path_376" data-name="Path 376" d="M590.792,70.539h-2.026V60.31h2.026Zm-1.835-.192H590.6V60.5h-1.644Z" transform="translate(-578.102 -15.237)" fill="#99caca"/>
        <path id="Path_377" data-name="Path 377" d="M585.158,69.644,583.4,68.631l5.115-8.858,1.755,1.014Zm-1.493-1.083,1.423.822,4.923-8.526-1.423-.822Z" transform="translate(-577.67 -15.194)" fill="#99caca"/>
        <path id="Path_378" data-name="Path 378" d="M580.786,66.277l-1.013-1.755,8.858-5.114,1.013,1.755Zm-.751-1.685.821,1.424,8.527-4.923-.822-1.423Z" transform="translate(-577.378 -15.165)" fill="#99caca"/>
        <path id="Path_379" data-name="Path 379" d="M589.076,61.34H578.848V59.313h10.228Zm-10.037-.192h9.846V59.5h-9.846Z" transform="translate(-577.303 -15.157)" fill="#99caca"/>
        <path id="Path_380" data-name="Path 380" d="M588.631,60.819l-8.858-5.114,1.013-1.755,8.858,5.114Zm-8.6-5.184,8.526,4.923.822-1.424-8.527-4.922Z" transform="translate(-577.378 -14.725)" fill="#99caca"/>
        <path id="Path_381" data-name="Path 381" d="M588.517,60.191,583.4,51.333l1.755-1.013,5.115,8.857ZM583.665,51.4l4.923,8.527,1.423-.823-4.923-8.526Z" transform="translate(-577.67 -14.433)" fill="#99caca"/>
        <path id="Path_382" data-name="Path 382" d="M627.159,59.623h-2.027V49.394h2.027Zm-1.835-.192h1.643V49.586h-1.643Z" transform="translate(-581.03 -14.358)" fill="#99caca"/>
        <path id="Path_383" data-name="Path 383" d="M626.983,60.191l-1.755-1.014,5.114-8.857,1.755,1.013Zm-1.493-1.084,1.423.823,4.923-8.527-1.424-.822Z" transform="translate(-581.038 -14.433)" fill="#99caca"/>
        <path id="Path_384" data-name="Path 384" d="M626.607,60.819l-1.014-1.755,8.858-5.114,1.014,1.755Zm-.752-1.685.822,1.424,8.526-4.923-.822-1.423Z" transform="translate(-581.067 -14.725)" fill="#99caca"/>
        <path id="Path_385" data-name="Path 385" d="M636.359,61.339H626.13V59.312h10.229Zm-10.037-.192h9.845V59.5h-9.845Z" transform="translate(-581.111 -15.157)" fill="#99caca"/>
        <path id="Path_386" data-name="Path 386" d="M634.451,66.277l-8.858-5.114,1.014-1.755,8.858,5.114Zm-8.6-5.184,8.526,4.923.822-1.424-8.526-4.922Z" transform="translate(-581.067 -15.165)" fill="#99caca"/>
        <path id="Path_387" data-name="Path 387" d="M630.342,69.644l-5.114-8.857,1.755-1.014,5.114,8.858Zm-4.852-8.787,4.922,8.526,1.424-.822-4.923-8.526Z" transform="translate(-581.038 -15.194)" fill="#99caca"/>
        <path id="Path_388" data-name="Path 388" d="M627.159,70.539h-2.027V60.31h2.027Zm-1.835-.192h1.643V60.5h-1.643Z" transform="translate(-581.03 -15.237)" fill="#99caca"/>
        <path id="Path_389" data-name="Path 389" d="M621.525,69.644l-1.755-1.013,5.114-8.858,1.755,1.014Zm-1.493-1.083,1.423.822,4.923-8.526-1.423-.822Z" transform="translate(-580.599 -15.194)" fill="#99caca"/>
        <path id="Path_390" data-name="Path 390" d="M617.153,66.277l-1.013-1.755L625,59.408l1.013,1.755Zm-.752-1.685.822,1.424,8.526-4.923-.822-1.423Z" transform="translate(-580.306 -15.165)" fill="#99caca"/>
        <path id="Path_391" data-name="Path 391" d="M625.443,61.34H615.214V59.313h10.229Zm-10.037-.192h9.845V59.5h-9.845Z" transform="translate(-580.232 -15.157)" fill="#99caca"/>
        <path id="Path_392" data-name="Path 392" d="M625,60.819l-8.858-5.114,1.013-1.755,8.858,5.114Zm-8.6-5.184,8.526,4.923.822-1.424-8.526-4.922Z" transform="translate(-580.306 -14.725)" fill="#99caca"/>
        <path id="Path_393" data-name="Path 393" d="M624.884,60.191l-5.114-8.858,1.755-1.013,5.114,8.857ZM620.031,51.4l4.924,8.527,1.423-.823-4.923-8.526Z" transform="translate(-580.599 -14.433)" fill="#99caca"/>
        <path id="Path_394" data-name="Path 394" d="M620.094,41.5V39.254a.443.443,0,0,1,.3-.434h0l2.177-.782a.721.721,0,0,0-.487-1.356l-2.177.783h0a1.881,1.881,0,0,0-1.258,1.789V41.5a.72.72,0,0,0,1.441,0Z" transform="translate(-580.509 -13.331)"/>
        <path id="Path_395" data-name="Path 395" d="M588.845,47.587a11.677,11.677,0,1,1-11.677,11.677A11.677,11.677,0,0,1,588.845,47.587Zm0,1.171a10.506,10.506,0,1,0,10.506,10.506A10.506,10.506,0,0,0,588.845,48.758Z" transform="translate(-577.168 -14.213)" fill="#000039" fill-rule="evenodd"/>
        <path id="Path_396" data-name="Path 396" d="M588.948,48.861a10.506,10.506,0,1,1-10.506,10.506A10.506,10.506,0,0,1,588.948,48.861Zm0,.742a9.764,9.764,0,1,0,9.764,9.764A9.764,9.764,0,0,0,588.948,49.6Z" transform="translate(-577.271 -14.315)" fill="#98b8b8" fill-rule="evenodd"/>
        <path id="Path_397" data-name="Path 397" d="M589.779,61.213a1.015,1.015,0,1,0-1.015-1.015A1.017,1.017,0,0,0,589.779,61.213Z" transform="translate(-578.102 -15.146)" fill="#99caca" fill-rule="evenodd"/>
        <path id="Path_398" data-name="Path 398" d="M589.7,47.334c-.183,0-.364,0-.545.013v.225a.592.592,0,0,0,.588.591,11.08,11.08,0,0,1,11.032,10.716.59.59,0,0,0,.589.571h.243c0-.069,0-.137,0-.206A11.91,11.91,0,0,0,589.7,47.334Z" transform="translate(-578.133 -14.192)" fill="#f0d634" fill-rule="evenodd"/>
        <path id="Path_399" data-name="Path 399" d="M625.212,47.587a11.677,11.677,0,1,1-11.678,11.677A11.677,11.677,0,0,1,625.212,47.587Zm0,1.171a10.506,10.506,0,1,0,10.506,10.506A10.506,10.506,0,0,0,625.212,48.758Z" transform="translate(-580.096 -14.213)" fill="#000039" fill-rule="evenodd"/>
        <path id="Path_400" data-name="Path 400" d="M625.315,48.861a10.506,10.506,0,1,1-10.506,10.506A10.506,10.506,0,0,1,625.315,48.861Zm0,.742a9.764,9.764,0,1,0,9.763,9.764A9.764,9.764,0,0,0,625.315,49.6Z" transform="translate(-580.199 -14.315)" fill="#98b8b8" fill-rule="evenodd"/>
        <path id="Path_401" data-name="Path 401" d="M626.146,61.213A1.015,1.015,0,1,0,625.13,60.2,1.016,1.016,0,0,0,626.146,61.213Z" transform="translate(-581.03 -15.146)" fill="#99caca" fill-rule="evenodd"/>
        <path id="Path_402" data-name="Path 402" d="M625.192,47.334c.182,0,.364,0,.545.013v.225a.593.593,0,0,1-.588.591,11.079,11.079,0,0,0-11.032,10.716.59.59,0,0,1-.59.571h-.243c0-.069,0-.137,0-.206A11.91,11.91,0,0,1,625.192,47.334Z" transform="translate(-580.076 -14.192)" fill="#f0d634" fill-rule="evenodd"/>
        <path id="Path_403" data-name="Path 403" d="M605.184,62.7a.518.518,0,1,1-.273,1l-15.225-4.179a.519.519,0,0,1-.364-.637.525.525,0,0,1,.049-.12l8.741-15.349a.52.52,0,0,1,.9.513L590.6,58.7Z" transform="translate(-578.145 -13.856)" fill="#fbf557" fill-rule="evenodd"/>
        <path id="Path_404" data-name="Path 404" d="M605.142,62.952,590.269,58.87l8.562-15.033a.283.283,0,0,0-.492-.279L589.6,58.906l-.027.065a.283.283,0,0,0,.2.347L604.994,63.5a.282.282,0,1,0,.148-.545Z" transform="translate(-578.166 -13.877)" fill="#f0d634" fill-rule="evenodd"/>
        <path id="Path_405" data-name="Path 405" d="M598.623,43.886A.726.726,0,0,1,600,43.43l6.483,19.528a.726.726,0,0,1-1.378.456Z" transform="translate(-578.893 -13.838)" fill="#fbf557" fill-rule="evenodd"/>
        <path id="Path_406" data-name="Path 406" d="M598.868,43.833l6.483,19.528a.489.489,0,1,0,.93-.307L599.8,43.526a.489.489,0,1,0-.929.307Z" transform="translate(-578.913 -13.858)" fill="#f0d634" fill-rule="evenodd"/>
        <path id="Path_407" data-name="Path 407" d="M625.813,58.618a.519.519,0,1,1-.35.976c-1.365-.492-3.477-2.819-4.937-5.841a15.409,15.409,0,0,1-1.669-7.651.52.52,0,1,1,1.037.077,14.362,14.362,0,0,0,1.568,7.122C622.809,56.09,624.663,58.2,625.813,58.618Z" transform="translate(-580.523 -14.054)" fill="#779696" fill-rule="evenodd"/>
        <path id="Path_408" data-name="Path 408" d="M606.64,63.363a.519.519,0,0,1-.854-.59l11.858-17.127V43.7a43.2,43.2,0,0,1-5.549,6.957,15.686,15.686,0,0,1-7.818,4.393.51.51,0,0,1-.116.024c-.32-.011-.489-.712-.331-.971.018-.029.082-.04.115-.047a14.635,14.635,0,0,0,7.427-4.143,48.17,48.17,0,0,0,6.344-8.2.521.521,0,0,1,.969.264v3.828h0a.511.511,0,0,1-.091.294Z" transform="translate(-579.31 -13.719)" fill="#fbf557" fill-rule="evenodd"/>
        <path id="Path_409" data-name="Path 409" d="M618.468,45.59V42a.284.284,0,0,0-.53-.143l0,0,0,0a47.884,47.884,0,0,1-6.378,8.243,14.9,14.9,0,0,1-7.522,4.2c-.029.164.05.517.141.554l.075-.019a15.47,15.47,0,0,0,7.7-4.332,42.742,42.742,0,0,0,5.516-6.919l.432-.643v2.789L606,62.927a.283.283,0,0,0,.466.321l11.951-17.262a.276.276,0,0,0,.051-.16V45.59Z" transform="translate(-579.331 -13.74)" fill="#f0d634" fill-rule="evenodd"/>
        <path id="Path_410" data-name="Path 410" d="M606.089,66.64a2.167,2.167,0,1,0-2.167-2.167A2.172,2.172,0,0,0,606.089,66.64Z" transform="translate(-579.322 -15.398)" fill="#99caca" fill-rule="evenodd"/>
        <path id="Path_411" data-name="Path 411" d="M606.176,65.732a1.172,1.172,0,1,0-1.171-1.171A1.173,1.173,0,0,0,606.176,65.732Z" transform="translate(-579.41 -15.485)" fill="#7ba3a3" fill-rule="evenodd"/>
        <path id="Path_412" data-name="Path 412" d="M590.751,14.831l12.084,5.923c.235.116.286.5.112.854l-7.833,15.977c-.174.354-.508.55-.743.435L582.287,32.1c-.235-.115-.286-.5-.112-.854l7.833-15.977C590.181,14.911,590.516,14.715,590.751,14.831Z" transform="translate(-577.563 -11.572)" fill="#fbf557" fill-rule="evenodd"/>
        <path id="Path_413" data-name="Path 413" d="M591.232,16.275l10.7,5.246c.208.1.252.442.1.756l-2.878,5.871c-4.963.462-7.255-7.41-13.689-1.064l5.11-10.424C590.727,16.346,591.023,16.173,591.232,16.275Z" transform="translate(-577.836 -11.689)" fill="#f0d634" fill-rule="evenodd"/>
        <path id="Path_414" data-name="Path 414" d="M616.143,17.9a5.136,5.136,0,0,1,.359.434.439.439,0,0,1-.012.522c-.127.126-.336.111-.49.2a.644.644,0,0,0-.257.545,5.739,5.739,0,0,1-.246.74,1.5,1.5,0,0,1-1.268,1.137c-.577.02-1.224-.332-1.791-.223a1.939,1.939,0,0,0-1.363.937,7.753,7.753,0,0,0-.845,1.783l-1.669-.767a1.052,1.052,0,0,1-.511-.377.76.76,0,0,1-.014-.634,5.155,5.155,0,0,1,.3-.582,2.676,2.676,0,0,0,.224-1.861c-.184-.747-.685-1.384-.88-2.128a4.372,4.372,0,0,1,.988-4.036,5.679,5.679,0,0,1,3.973-1.1c3.245.41,3.991,2.686,3.582,3.906C616.049,16.924,615.758,17.384,616.143,17.9Z" transform="translate(-579.615 -11.384)" fill="#9e765a"/>
        <path id="Path_415" data-name="Path 415" d="M614.7,21.9a.5.5,0,0,0,.2.092.409.409,0,0,0,.208-.037,2.4,2.4,0,0,0,1.012-1.019l.569-.874a3.748,3.748,0,0,0,.354-.629.649.649,0,0,0,.062-.292.7.7,0,0,0-.124-.315,3.229,3.229,0,0,0-.311-.42.185.185,0,0,0-.086-.065.165.165,0,0,0-.12.026c-.124.068-.221.178-.349.239a1.031,1.031,0,0,1-.575.039l-1.392-.174a.521.521,0,0,0-.028.335,1.491,1.491,0,0,1-.211.725,2.952,2.952,0,0,1-.631.952c-.33.291.129.462.349.635Q614.15,21.527,614.7,21.9Z" transform="translate(-580.067 -11.857)" fill="#d6e8e8"/>
        <path id="Path_416" data-name="Path 416" d="M614.431,19.14a.468.468,0,0,1,.091-.193c.12-.124.325-.056.491-.006a1.606,1.606,0,0,0,1.193-.114.481.481,0,0,1,.321-.091c.167.041.21.284.113.428a.752.752,0,0,1-.44.255,1,1,0,0,0-.464.217l-.045.079c-.009.074.072.122.139.154a.453.453,0,0,1,.247.223c.039.108-.029.256-.143.254a.294.294,0,0,1-.131-.049c-.152-.085-.385-.132-.466.022s.081.308.183.444a.194.194,0,0,1,.045.1c.008.123-.174.166-.284.11s-.2-.163-.317-.188a.271.271,0,0,0-.283.366c.049.1.156.156.221.245s.052.256-.058.268a.217.217,0,0,1-.13-.046c-.288-.183-.573-.37-.871-.538-.177-.1-.392-.195-.331-.432a2.892,2.892,0,0,1,.5-.733A2.8,2.8,0,0,0,614.431,19.14Z" transform="translate(-580.094 -11.889)" fill="#c1d3d2"/>
        <path id="Path_417" data-name="Path 417" d="M615.482,13.446a4.594,4.594,0,0,0-2.037-1.061,4.261,4.261,0,0,0-1.3-.173,4.892,4.892,0,0,0-.969.166,10.432,10.432,0,0,0-2.077.749,3.162,3.162,0,0,0-1.626,1.52,3.87,3.87,0,0,0-.208,1.111,3.811,3.811,0,0,0,.276,2.286c.095.16.215.36.111.513a.848.848,0,0,1-.151.136.475.475,0,0,0,.06.72c.078.05.18.086.2.176.02.069-.019.142-.021.213a.222.222,0,0,0,.166.218c.109.026.259-.019.31.081.038.074-.024.157-.053.234-.086.231.16.487.406.47a.628.628,0,0,0,.511-.468,1.784,1.784,0,0,0,.014-.732.646.646,0,0,0,.574-.1.334.334,0,0,0-.011-.518.365.365,0,0,0,.1-.448c-.06-.156-.175-.285-.241-.439a1.207,1.207,0,0,1,.205-1.115,1.29,1.29,0,0,1,.838-.608.668.668,0,0,1,.769.554,1.124,1.124,0,0,0,.008.223.355.355,0,0,0,.506.176.725.725,0,0,0,.319-.506.408.408,0,0,1,.133-.281.321.321,0,0,1,.147-.038,4.6,4.6,0,0,0,.6-.037.555.555,0,0,0,.442-.358,4.136,4.136,0,0,0,.015-.415.479.479,0,0,1,.564-.377.345.345,0,0,1,.175.1,1.86,1.86,0,0,1,.142.248.405.405,0,0,0,.567.086c.089-.072.144-.18.234-.252s.249-.082.3.021a.774.774,0,0,1,.025.169.264.264,0,0,0,.3.171.772.772,0,0,0,.336-.173.155.155,0,0,0,.238-.044c.054-.1-.009-.129-.03-.213-.054-.225-.052-.462-.108-.691A2.746,2.746,0,0,0,615.482,13.446Z" transform="translate(-579.588 -11.364)" fill="#252828"/>
        <path id="Path_418" data-name="Path 418" d="M615.454,17.723l-.028.014v.049l.043.031a2.076,2.076,0,0,0,.426.157l.058.007c.059-.006.095-.066.115-.121.04-.11.053-.293-.108-.271A4.459,4.459,0,0,0,615.454,17.723Z" transform="translate(-580.249 -11.797)" fill="#e0dad7"/>
        <path id="Path_419" data-name="Path 419" d="M616.329,16.923c-.3-.409-.947-.126-1.2.189-.058.071.043.173.1.1a.912.912,0,0,1,.445-.307.486.486,0,0,1,.533.089C616.259,17.069,616.384,17,616.329,16.923Z" transform="translate(-580.223 -11.727)" fill="#252828"/>
        <path id="Path_420" data-name="Path 420" d="M616.2,17.369l-.013,0a.459.459,0,0,1-.267.187l-.019.006c-.052.015-.1.027-.156.039-.16.036-.319.072-.476.117l-.023.02-.006,0-.006.02a.563.563,0,0,0,.253.127l.2.077a.873.873,0,0,1,.244.106l.023-.006.005-.03.007,0a.364.364,0,0,0,.115-.464A.275.275,0,0,0,616.2,17.369Zm-.267.6.006,0,0,.006Zm.012-.337.019,0h.014l.017.024,0,.023a.153.153,0,0,1-.056.082c-.038.019-.062.012-.075-.007l0-.038.05-.072Zm-.473.119c.1-.018.192-.038.286-.062a.319.319,0,0,0-.029.147l0,.026-.018-.006C615.656,17.829,615.564,17.78,615.473,17.748Z" transform="translate(-580.233 -11.779)" fill="#252828"/>
        <path id="Path_421" data-name="Path 421" d="M613.087,20.759a13.8,13.8,0,0,1-2.233-1.365l-.088.028a13.749,13.749,0,0,0,2.276,1.415A.045.045,0,0,0,613.087,20.759Z" transform="translate(-579.873 -11.942)" fill="#c1d3d2"/>
        <path id="Path_422" data-name="Path 422" d="M614.1,18.428a6.817,6.817,0,0,0-2.611-1.482.694.694,0,0,1,.106.108.933.933,0,0,1,.077.115,8.269,8.269,0,0,1,2.364,1.322C614.077,18.529,614.142,18.466,614.1,18.428Z" transform="translate(-579.931 -11.745)" fill="#c1d3d2"/>
        <path id="Path_423" data-name="Path 423" d="M610.967,17.735c.046-.056.111-.095.155-.152a.309.309,0,0,0,.008-.34.248.248,0,0,0-.08-.084.3.3,0,0,0-.25-.017.68.68,0,0,0-.436.516,1.2,1.2,0,0,0,.09.692c.055.135.154.282.3.281l.079-.028.035-.06c.053-.131.173-.3.1-.438S610.859,17.867,610.967,17.735Z" transform="translate(-579.84 -11.76)" fill="#775a46"/>
        <path id="Path_424" data-name="Path 424" d="M608.458,18.365c.237-.022.518-.074.611-.292a.864.864,0,0,0,.023-.386,1.508,1.508,0,0,1,1.231-1.5,5.305,5.305,0,0,1,1.045.032,1.262,1.262,0,0,0,.974-.29c.163-.168.249-.41.445-.54a1.016,1.016,0,0,1,.423-.131q1.681-.261,3.382-.356a2.951,2.951,0,0,0-.987-2.421,4.683,4.683,0,0,0-2.436-1.1,6.722,6.722,0,0,0-4.461.832,4.855,4.855,0,0,0-1.821,1.78A4.447,4.447,0,0,0,606.6,17.4a1.81,1.81,0,0,0,.549.924C607.487,18.588,608.061,18.4,608.458,18.365Z" transform="translate(-579.521 -11.29)" fill="#f0d634"/>
        <path id="Path_425" data-name="Path 425" d="M609.468,16.306a2.682,2.682,0,0,1,1.811-.341,2.185,2.185,0,0,0,.457.037,1.358,1.358,0,0,0,.732-.353,7.209,7.209,0,0,1,.633-.529,2.87,2.87,0,0,1,1.406-.382,2.269,2.269,0,0,0,.691-.108.645.645,0,0,0,.431-.508c.024-.309-.256-.554-.533-.691a3.685,3.685,0,0,0-1.389-.317,6.3,6.3,0,0,0-3.257.628,4.678,4.678,0,0,0-2.239,2.4,3.405,3.405,0,0,0-.245,1.193,1.023,1.023,0,0,0,.094.5.457.457,0,0,0,.417.257c.219-.018.213-.17.2-.336a1.465,1.465,0,0,1,.083-.566A1.786,1.786,0,0,1,609.468,16.306Z" transform="translate(-579.648 -11.436)" fill="#fbf557"/>
        <path id="Path_426" data-name="Path 426" d="M608.423,14a5.251,5.251,0,0,1,3.256-1.7,11.425,11.425,0,0,1,2.038-.007c.126.007.3-.021.307-.147a.207.207,0,0,0-.035-.12.859.859,0,0,0-.446-.326,3.659,3.659,0,0,0-2.042-.047,10.066,10.066,0,0,0-1.661.489,4.787,4.787,0,0,0-2.412,1.779,4.1,4.1,0,0,0-.443,1.036,5.3,5.3,0,0,0-.177,2.215c.016.108.15.818.348.734.118-.051.046-.576.045-.674a4.842,4.842,0,0,1,.5-2.143A4.894,4.894,0,0,1,608.423,14Z" transform="translate(-579.551 -11.309)" fill="#fbf557"/>
        <path id="Path_427" data-name="Path 427" d="M609.969,23.8q-.1.3-.206.611a3.924,3.924,0,0,1,.821,2.368,7.8,7.8,0,0,1-.382,2.115,26.1,26.1,0,0,1-2.863,7.34,1.551,1.551,0,0,0-.352.895,2.8,2.8,0,0,1,.09.639,1.5,1.5,0,0,1-.33.548,1.356,1.356,0,0,0-.182,1.148,16.166,16.166,0,0,1-5.483.637,9.275,9.275,0,0,1-2.758-.714,1.841,1.841,0,0,1-1.129-.988,1.979,1.979,0,0,1,.052-1.053,35.742,35.742,0,0,1,3.837-9.761A9.711,9.711,0,0,1,604.79,23.6a6.529,6.529,0,0,0,1.863-1.056c.638-.657.792-.454,1.467,0A19.117,19.117,0,0,1,609.969,23.8Z" transform="translate(-578.776 -12.162)" fill="#f0d634"/>
        <path id="Path_428" data-name="Path 428" d="M606.6,27.771a53.183,53.183,0,0,0,3.357,6.887,4.834,4.834,0,0,0,.664.952,5.087,5.087,0,0,0,1.828,1.057,7.453,7.453,0,0,0,3.711.763l1.534,0a.308.308,0,0,0,.2-.047.312.312,0,0,0,.086-.2q.139-.818.279-1.636a.361.361,0,0,0-.029-.285.355.355,0,0,0-.213-.106l-.616-.148-.206.227c.048-.268-.248-.459-.5-.568l-2.372-1.042a.522.522,0,0,0-.36-.063c-.08.026-.144.091-.226.112-.167.044-.33-.122-.35-.293a.918.918,0,0,1,.13-.494,3.405,3.405,0,0,1-1.109-1.4q-1.055-1.974-2.111-3.945a3.8,3.8,0,0,0-1.055-1.394C608.082,25.335,605.983,26.225,606.6,27.771Z" transform="translate(-579.529 -12.462)" fill="#f0d634"/>
        <path id="Path_429" data-name="Path 429" d="M610.049,30.154c.709,1.027,1.643,2.038,1.657,3.285a.751.751,0,0,0,.034.283.325.325,0,0,0,.62-.177c.24,0,.291.343.236.577s-.093.554.13.645l.493-.586c.073.211.146.423.219.634.66-.276,1.376.158,2.033.442a5.017,5.017,0,0,0,2,.41,1.476,1.476,0,0,0-.612-.52,9.726,9.726,0,0,0-2.6-.988c-.4-.09-.9-.232-.981-.636-.025-.118-.007-.24-.028-.359-.058-.332-.38-.537-.641-.75-1.33-1.088-2.053-3.406-2.519-5a2.123,2.123,0,0,0-.8-1.338c-1.073-.74-1.28.088-.88.991A18.827,18.827,0,0,0,610.049,30.154Z" transform="translate(-579.669 -12.458)" fill="#fbf557"/>
        <path id="Path_430" data-name="Path 430" d="M608.972,33.759a1.874,1.874,0,0,1-.062,1.536,5.273,5.273,0,0,1-.918,1.286,1.819,1.819,0,0,0-.645,1.4.825.825,0,0,1,.034.393c-.074.231-.411.291-.489.52s.128.474.018.678-.416.154-.546-.018a.869.869,0,0,1-.1-.625A4.645,4.645,0,0,1,607,36.91a5.647,5.647,0,0,0,.834-1.375,5.651,5.651,0,0,0,.11-1.39C607.985,33.2,608.491,32.73,608.972,33.759Z" transform="translate(-579.51 -13.052)" fill="#fbf557"/>
        <path id="Path_431" data-name="Path 431" d="M610.76,25.622q.014.7.029,1.395c0,.085.013.187.088.227.115.061.233-.081.272-.205a1.457,1.457,0,0,0-.43-1.514" transform="translate(-579.87 -12.436)" fill="#fbf557"/>
        <path id="Path_432" data-name="Path 432" d="M620.53,37.491c.24-.264.435-.641.79-.676.264-.027.539.159.783.055a.489.489,0,0,1,.13-.051c.136-.018.222.136.292.255a1.071,1.071,0,0,0,.468.424,1.373,1.373,0,0,0,.241-.968.384.384,0,0,0-.078-.21.555.555,0,0,0-.336-.127c-.233-.045-.447-.155-.676-.217a3.345,3.345,0,0,0-1.125-.045l-1.237.09a.656.656,0,0,0-.377.106.69.69,0,0,0-.179.492c-.033.35-.349,1.193-.044,1.387C619.516,38.219,620.324,37.717,620.53,37.491Z" transform="translate(-580.541 -13.272)" fill="#9e765a"/>
        <path id="Path_433" data-name="Path 433" d="M619.749,35.978a.054.054,0,0,1-.059-.065,2.1,2.1,0,0,0,.582-.585c.093-.142.214-.318.381-.289a.408.408,0,0,1,.236.208.64.64,0,0,1,.136.339.431.431,0,0,1-.3.366,1.25,1.25,0,0,1-.493.05,2.194,2.194,0,0,1-.585-.073.806.806,0,0,0,.54-.145" transform="translate(-580.589 -13.202)" fill="#9e765a"/>
        <path id="Path_434" data-name="Path 434" d="M603.149,55.69q.3-.4.6-.8" transform="translate(-579.26 -14.801)" fill="#fbf557"/>
        <path id="Path_435" data-name="Path 435" d="M607.651,57.622c-.271.461-.622,1.009-.375,1.483.235.452.847.5,1.308.719a6.375,6.375,0,0,1,.977.705,3.551,3.551,0,0,0,1.738.664,1.08,1.08,0,0,0,.583-.067.464.464,0,0,0,.274-.479.713.713,0,0,0-.141-.26c-.84-1.128-1.763-2.347-1.744-3.754a.815.815,0,0,0-.142-.622.711.711,0,0,0-.338-.146c-.562-.133-1.175-.5-1.479.014S607.981,57.086,607.651,57.622Z" transform="translate(-579.586 -14.859)" fill="#281b1c"/>
        <path id="Path_436" data-name="Path 436" d="M598.59,43.275a4.079,4.079,0,0,0,1.164.84,31.8,31.8,0,0,0,7.854,3.471,1.524,1.524,0,0,1,1.1.611,1.669,1.669,0,0,1-.12,1.246c-.133.407-.183.936.164,1.19a1.148,1.148,0,0,0-.692,1.422,1.1,1.1,0,0,1,.1.327c.008.245-.213.425-.368.614a1.341,1.341,0,0,0-.133,1.457,4.856,4.856,0,0,0,1.935.743.4.4,0,0,0,.2.01c.248-.077.129-.474.273-.691.1-.149.3-.18.457-.261a1.448,1.448,0,0,0,.552-.673l2.309-4.418a3.877,3.877,0,0,0,.477-1.246,2.768,2.768,0,0,0-.351-1.617,7.9,7.9,0,0,0-2.94-2.849,23.582,23.582,0,0,1-3.428-2.316.812.812,0,0,0-.333-.219.783.783,0,0,0-.262,0,24.481,24.481,0,0,1-6.366-.175c-.648-.1-1.988-.723-2.357.081C597.507,41.509,598.151,42.764,598.59,43.275Z" transform="translate(-578.825 -13.635)" fill="#35526d"/>
        <path id="Path_437" data-name="Path 437" d="M609.136,45.772c.284.109.61.257.678.554.063.277-.133.574-.039.842.11.312.539.389.706.675a1,1,0,0,1-.149.94c-.18.332-.359.665-.54,1a.822.822,0,0,0-.131.389c0,.283.276.472.455.691s.2.651-.084.69a.987.987,0,0,0-.529-.277c-.2-.014-.427.16-.382.358.037.164.236.282.2.447-.047.245-.52.212-.535.461-.006.092.064.171.092.259a.627.627,0,0,1-.1.446,5.064,5.064,0,0,0-.437,1.325c-.306-.04-.415-.45-.321-.744s.308-.54.384-.839c.15-.586-.235-1.315.176-1.758.177-.191.482-.288.547-.541a1.139,1.139,0,0,0-.089-.525c-.177-.744.544-1.6.108-2.228a1.325,1.325,0,0,0-.5-.383,43.21,43.21,0,0,0-4.461-1.583,21.909,21.909,0,0,1-4.63-2.711,2.46,2.46,0,0,1-.853-.851.85.85,0,0,1,.225-1.085,1.246,1.246,0,0,1,.719-.1,4.809,4.809,0,0,1,2.159.345c.779.452,1.468,1.105,2.227,1.6A27.419,27.419,0,0,0,609.136,45.772Z" transform="translate(-578.895 -13.699)" fill="#3d5e77"/>
        <path id="Path_438" data-name="Path 438" d="M604.587,22.416q1.652,1.175,3.3,2.351c1.427,1.015,2.648,1.972,2.785,3.854.021.287.472.29.451,0a4.492,4.492,0,0,0-1.729-3.314c-1.442-1.185-3.062-2.2-4.582-3.28C604.578,21.859,604.354,22.25,604.587,22.416Z" transform="translate(-579.368 -12.151)" fill="#fbf557"/>
        <path id="Path_439" data-name="Path 439" d="M597.074,37.85c3.081-2,6.511-3.384,9.574-5.418.24-.16.015-.55-.227-.389-3.063,2.034-6.492,3.414-9.575,5.418C596.6,37.618,596.829,38.008,597.074,37.85Z" transform="translate(-578.744 -12.958)" fill="#fbf557"/>
      </g>
      <g id="Group_184" data-name="Group 184" transform="translate(66.267)">
        <path id="Path_440" data-name="Path 440" d="M661.065,53.436a9.275,9.275,0,1,1-9.275,9.275,9.275,9.275,0,0,1,9.275-9.275m0,2.382a6.892,6.892,0,1,0,6.892,6.892,6.892,6.892,0,0,0-6.892-6.892" transform="translate(-646.03 -14.11)" fill="#004" fill-rule="evenodd"/>
        <path id="Path_441" data-name="Path 441" d="M661.274,56.027a6.892,6.892,0,1,1-6.892,6.892,6.892,6.892,0,0,1,6.892-6.892m0,2.6a4.3,4.3,0,1,0,4.3,4.3,4.3,4.3,0,0,0-4.3-4.3" transform="translate(-646.239 -14.319)" fill="#a9c2c2" fill-rule="evenodd"/>
        <path id="Path_442" data-name="Path 442" d="M661.324,67.846A4.876,4.876,0,1,1,666.2,62.97a4.876,4.876,0,0,1-4.876,4.876m0-11.19a6.314,6.314,0,1,0,6.314,6.314,6.315,6.315,0,0,0-6.314-6.314" transform="translate(-646.289 -14.37)" fill="#7e9191"/>
        <path id="Path_443" data-name="Path 443" d="M660.627,61.585a1.743,1.743,0,0,1,.354-.147l.231-3h.511l.231,3a1.773,1.773,0,0,1,.355.147l2.288-1.961.181.18.18.18L663,62.273a1.712,1.712,0,0,1,.146.354l3,.232v.51l-3,.232a1.732,1.732,0,0,1-.146.354l1.961,2.288-.18.181-.181.18-2.289-1.961a1.688,1.688,0,0,1-.354.146l-.231,3h-.511l-.231-3a1.744,1.744,0,0,1-.354-.147L658.338,66.6l-.18-.18-.18-.181,1.96-2.288a1.76,1.76,0,0,1-.146-.354l-3-.232v-.51l3-.232a1.76,1.76,0,0,1,.146-.354l-1.96-2.289.18-.18.18-.18Z" transform="translate(-646.432 -14.513)" fill="#a9c2c2" fill-rule="evenodd"/>
        <path id="Path_444" data-name="Path 444" d="M705.3,65.434a2.095,2.095,0,1,0-2.095-2.095A2.1,2.1,0,0,0,705.3,65.434Z" transform="translate(-650.17 -14.739)" fill="#a9c2c2" fill-rule="evenodd"/>
        <path id="Path_445" data-name="Path 445" d="M706.782,61.859a2.094,2.094,0,1,1-2.962,0A2.093,2.093,0,0,1,706.782,61.859Z" transform="translate(-650.17 -14.739)" fill="#a9c2c2" fill-rule="evenodd"/>
        <path id="Path_446" data-name="Path 446" d="M707.4,63.34a2.095,2.095,0,1,1-2.095-2.095A2.094,2.094,0,0,1,707.4,63.34Z" transform="translate(-650.17 -14.739)" fill="#a9c2c2" fill-rule="evenodd"/>
        <path id="Path_447" data-name="Path 447" d="M706.782,64.821a2.094,2.094,0,1,1,0-2.962A2.093,2.093,0,0,1,706.782,64.821Z" transform="translate(-650.17 -14.739)" fill="#a9c2c2" fill-rule="evenodd"/>
        <path id="Path_448" data-name="Path 448" d="M705.3,65.434A2.095,2.095,0,1,1,707.4,63.34,2.094,2.094,0,0,1,705.3,65.434Z" transform="translate(-650.17 -14.739)" fill="#a9c2c2" fill-rule="evenodd"/>
        <path id="Path_449" data-name="Path 449" d="M703.82,64.821a2.094,2.094,0,1,1,2.962,0A2.093,2.093,0,0,1,703.82,64.821Z" transform="translate(-650.17 -14.739)" fill="#a9c2c2" fill-rule="evenodd"/>
        <path id="Path_450" data-name="Path 450" d="M703.206,63.34a2.095,2.095,0,1,1,2.095,2.095A2.095,2.095,0,0,1,703.206,63.34Z" transform="translate(-650.17 -14.739)" fill="#a9c2c2" fill-rule="evenodd"/>
        <path id="Path_451" data-name="Path 451" d="M704.672,53.436a9.275,9.275,0,1,1-9.275,9.275,9.275,9.275,0,0,1,9.275-9.275m0,2.382a6.892,6.892,0,1,0,6.892,6.892,6.892,6.892,0,0,0-6.892-6.892" transform="translate(-649.542 -14.11)" fill="#004" fill-rule="evenodd"/>
        <path id="Path_452" data-name="Path 452" d="M704.88,56.027a6.892,6.892,0,1,1-6.892,6.892,6.892,6.892,0,0,1,6.892-6.892m0,2.6a4.3,4.3,0,1,0,4.3,4.3,4.3,4.3,0,0,0-4.3-4.3" transform="translate(-649.75 -14.319)" fill="#a9c2c2" fill-rule="evenodd"/>
        <path id="Path_453" data-name="Path 453" d="M704.931,67.846a4.876,4.876,0,1,1,4.876-4.876,4.876,4.876,0,0,1-4.876,4.876m0-11.19a6.314,6.314,0,1,0,6.314,6.314,6.314,6.314,0,0,0-6.314-6.314" transform="translate(-649.801 -14.37)" fill="#7e9191"/>
        <path id="Path_454" data-name="Path 454" d="M704.234,61.585a1.745,1.745,0,0,1,.354-.147l.232-3h.51l.231,3a1.777,1.777,0,0,1,.355.147l2.288-1.961.181.18.18.18L706.6,62.273a1.712,1.712,0,0,1,.146.354l3.006.232v.51l-3.006.232a1.732,1.732,0,0,1-.146.354l1.961,2.288-.18.181-.181.18-2.288-1.961a1.721,1.721,0,0,1-.355.146l-.231,3h-.51l-.232-3a1.745,1.745,0,0,1-.354-.147L701.945,66.6l-.18-.18-.18-.181,1.961-2.288a1.718,1.718,0,0,1-.147-.354l-3-.232v-.51l3-.232a1.718,1.718,0,0,1,.147-.354l-1.961-2.289.18-.18.18-.18Z" transform="translate(-649.944 -14.513)" fill="#a9c2c2" fill-rule="evenodd"/>
        <path id="Path_455" data-name="Path 455" d="M696.871,50.7l1.681-.971,7.01,12.3a1.1,1.1,0,0,1-.355,1.326c-.378.378-1.062.109-1.326-.355Z" transform="translate(-649.66 -13.812)" fill-rule="evenodd"/>
        <path id="Path_456" data-name="Path 456" d="M704.445,50.625a11.9,11.9,0,0,1,3.122.416.849.849,0,0,1,.377,1.421L694.422,65.984A.849.849,0,0,1,693,65.607a11.868,11.868,0,0,1,11.444-14.982Z" transform="translate(-649.315 -13.884)" fill="#f0d634" fill-rule="evenodd"/>
        <path id="Path_457" data-name="Path 457" d="M660.383,48.082l18.4-.269c-3.474,6.823-3.627,11.755,0,15.869h-8.429l-.6-.589H649.451a1.724,1.724,0,0,1-1.707-1.95c.926-6.929,5.158-12.072,11.891-12.429C660.437,48.67,660.536,48.263,660.383,48.082Z" transform="translate(-645.703 -13.658)" fill="#f0d634" fill-rule="evenodd"/>
        <path id="Path_458" data-name="Path 458" d="M678.255,62.839h.93c-2.828-4.405-1.8-9.29.371-13.993l-.727.01a1.52,1.52,0,0,0-1.414.976c-1.609,4.068-2.255,8.2-.577,12.076A1.517,1.517,0,0,0,678.255,62.839Z" transform="translate(-647.967 -13.741)" fill="#fbf557" fill-rule="evenodd"/>
        <path id="Path_459" data-name="Path 459" d="M672.128,62.262h8.2c2.609,0,6.116.375,7.757-2.348l7.2-11.953c.915-1.521.925-2.682.429-4.75l-1.646-6.858c-.146-.61-.213-1.09.371-1.09h.754a1.528,1.528,0,0,1,1.5,1.18l1.456,5.99c.3,1.212,1.294,5.217.656,6.287L690,63.5H671.958A12.1,12.1,0,0,0,672.128,62.262Z" transform="translate(-647.654 -12.647)" fill="#fbf557" fill-rule="evenodd"/>
        <rect id="Rectangle_143" data-name="Rectangle 143" width="18.429" height="1.239" rx="0.237" transform="translate(23.941 50.75)" fill="#fbf557"/>
        <path id="Path_460" data-name="Path 460" d="M660.713,50.2a13.09,13.09,0,0,1,12.971,11.338,1.544,1.544,0,0,1-1.531,1.749H649.274a1.543,1.543,0,0,1-1.531-1.749A13.089,13.089,0,0,1,660.713,50.2Z" transform="translate(-645.703 -13.85)" fill="#fbf557" fill-rule="evenodd"/>
        <path id="Path_461" data-name="Path 461" d="M660.885,51.574A11.112,11.112,0,0,1,671.9,61.2a1.272,1.272,0,0,1-.314,1.038,1.417,1.417,0,0,1-.1.107,11.114,11.114,0,0,0-21.189,0c-.036-.033-.071-.069-.1-.107a1.275,1.275,0,0,1-.313-1.038A11.111,11.111,0,0,1,660.885,51.574Z" transform="translate(-645.875 -13.96)" fill="#fbf557" fill-rule="evenodd"/>
        <path id="Rectangle_144" data-name="Rectangle 144" d="M.445,0H19.172a.444.444,0,0,1,.444.444V2.953a.445.445,0,0,1-.445.445H.445A.445.445,0,0,1,0,2.953V.445A.445.445,0,0,1,.445,0Z" transform="translate(13.946 31.028)"/>
        <rect id="Rectangle_145" data-name="Rectangle 145" width="23.192" height="20.536" rx="0.833" transform="translate(0 10.448)" fill="#fbf557"/>
        <path id="Path_462" data-name="Path 462" d="M647.649,23.309h19.179a.68.68,0,0,1,.679.679V30.97c-6.846,2.776-15.734-3.7-20.536,5.415v-12.4A.68.68,0,0,1,647.649,23.309Z" transform="translate(-645.642 -11.684)" fill="#f0d634" fill-rule="evenodd"/>
        <path id="Path_463" data-name="Path 463" d="M701.819,38.056c.469-.04.933.93,1.038,2.165s-.19,2.269-.659,2.309-.932-.93-1.037-2.165S701.351,38.1,701.819,38.056Z" transform="translate(-650.004 -12.872)" fill="#f1cf00" fill-rule="evenodd"/>
        <path id="Path_464" data-name="Path 464" d="M701.447,37.735h.012a.31.31,0,0,1,.341.272l.507,4.436a.309.309,0,0,1-.27.342h-.012a2.561,2.561,0,1,1-.577-5.05Z" transform="translate(-649.821 -12.846)" fill="#f0d634" fill-rule="evenodd"/>
        <path id="Path_465" data-name="Path 465" d="M701.132,37.831l.648,4.974a3.343,3.343,0,0,0,.427-.021h.012a.309.309,0,0,0,.27-.342l-.507-4.436a.31.31,0,0,0-.341-.272h-.012A3.238,3.238,0,0,0,701.132,37.831Z" transform="translate(-650.003 -12.846)" fill="#9dc6c6" fill-rule="evenodd"/>
        <rect id="Rectangle_146" data-name="Rectangle 146" width="1.022" height="4.189" rx="0.361" transform="matrix(0.249, -0.969, 0.969, 0.249, 43.236, 23.185)"/>
        <line id="Line_1" data-name="Line 1" x1="0.02" y2="0.022" transform="translate(47.742 22.578)" fill="#edb38c"/>
        <g id="Group_183" data-name="Group 183" transform="translate(22.03)">
          <path id="Path_466" data-name="Path 466" d="M681.606,61.662a4.718,4.718,0,0,0-.377.975,1.322,1.322,0,0,0,.147,1.009c.372.549,1.159.564,1.821.521l.976-.063c.417-.027.9-.094,1.109-.456a1.4,1.4,0,0,0-.049-1.081,8.321,8.321,0,0,1-.349-2.488,1.918,1.918,0,0,0-.077-.739,1.154,1.154,0,0,0-.789-.631c-.76-.206-1.337-.188-1.543.542A16.523,16.523,0,0,1,681.606,61.662Z" transform="translate(-670.428 -14.526)" fill="#191213"/>
          <path id="Path_467" data-name="Path 467" d="M684.23,49.3a1.527,1.527,0,0,1,.405.625,1.316,1.316,0,0,1-.058.686,13.343,13.343,0,0,0-.988,2.892,6.982,6.982,0,0,1-.039.922,2.985,2.985,0,0,1-.421.942l-.7,1.17a1.428,1.428,0,0,0-.276.786c.034.531.611.833,1.114,1,.291.1.657.169.872-.051a.859.859,0,0,0,.171-.335q1.312-3.892,2.624-7.785a3.042,3.042,0,0,0,.2-2,3.048,3.048,0,0,0-1.678-1.431l-1.886-.925c-.551-.269-1.3-.507-1.7-.045-.563.645-.018,1.17.44,1.514A15.969,15.969,0,0,1,684.23,49.3Z" transform="translate(-670.463 -13.47)" fill="#2e4c5e"/>
          <path id="Path_468" data-name="Path 468" d="M683.019,61.971a3.67,3.67,0,0,0-.38,1.717.565.565,0,0,0,.138.353.637.637,0,0,0,.3.137,12.944,12.944,0,0,0,5.651.22,1.728,1.728,0,0,0,.767-.282.646.646,0,0,0,.241-.728c-.135-.311-.534-.383-.871-.422a4.562,4.562,0,0,1-1.747-.462,1.77,1.77,0,0,1-.964-1.445c0-.461.2-1.017-.148-1.319a1.023,1.023,0,0,0-.621-.18c-.726-.047-1.105-.2-1.547.329A8.587,8.587,0,0,0,683.019,61.971Z" transform="translate(-670.544 -14.599)" fill="#281b1c"/>
          <path id="Path_469" data-name="Path 469" d="M672.705,28.485a39.419,39.419,0,0,0-3.126,9.445,1.762,1.762,0,0,0-.059.869.6.6,0,0,0,.645.471c0,.279.008.557.013.836a2.373,2.373,0,0,0,1.77.911,7.046,7.046,0,0,0,2.037-.226l4.354-.921a1.315,1.315,0,0,0,.8-.371c.186-.234.118-.672-.177-.723,1.03-.185,1.463-1.4,1.7-2.415l.723-3.066a23.034,23.034,0,0,0,.789-4.931c.017-1.233-.1-2.643.771-3.513.273-.272.639-.482.774-.843.208-.553-.223-1.124-.624-1.558l-1.566-1.7a.374.374,0,0,0-.667.016,6.332,6.332,0,0,1-2.235,1.633,11.405,11.405,0,0,0-2.426,1.617A12.777,12.777,0,0,0,672.705,28.485Z" transform="translate(-669.485 -11.463)" fill="#f0d634"/>
          <path id="Path_470" data-name="Path 470" d="M676.014,31.084a6,6,0,0,0,1.6,5.109,5.952,5.952,0,0,0,3.4,1.4,17.7,17.7,0,0,0,3.729-.118c.077-.142.154-.282.231-.424l.888.31.322-.386a.677.677,0,0,0,.8.421,7.339,7.339,0,0,1,.739-2.458,26,26,0,0,1-6.588-1.917,1.488,1.488,0,0,0-1.039-.239,17.423,17.423,0,0,0,.22-4.549,3.573,3.573,0,0,0-.647-2.037C677.485,23.583,676.151,29.882,676.014,31.084Z" transform="translate(-670.007 -11.866)" fill="#f0d634"/>
          <path id="Path_471" data-name="Path 471" d="M680.687,27.3a3.8,3.8,0,0,0-.28-1.027c-.161-.333-.513-.65-.864-.533-.428.142-.438.736-.365,1.18q.318,1.945.637,3.891a5.77,5.77,0,0,1,0,2.772l.6-.06c.013.219.027.438.039.657a24.03,24.03,0,0,0,4.7.873c-.034-.588-.758-.82-1.331-.953a8.978,8.978,0,0,1-2.025-.689c-.782-.4-.681-.539-.692-1.433A30.677,30.677,0,0,0,680.687,27.3Z" transform="translate(-670.263 -11.878)" fill="#fbf557"/>
          <path id="Path_472" data-name="Path 472" d="M683.31,24.913a5.339,5.339,0,0,0,.924-.851l-.827-1.033a.448.448,0,0,0-.147-.135.336.336,0,0,0-.348.079.832.832,0,0,0-.159.923,2.44,2.44,0,0,0,.6.789" transform="translate(-670.548 -11.649)" fill="#fbf557"/>
          <path id="Path_473" data-name="Path 473" d="M679.72,40.051a1.487,1.487,0,0,1-1.077.229,1.1,1.1,0,0,1-.533-.119.374.374,0,0,1-.163-.472.541.541,0,0,1,.465-.19,2.549,2.549,0,0,0,.743-.1.752.752,0,0,0,.5-.515.4.4,0,0,1,.536.247.652.652,0,0,1-.167.621,1.906,1.906,0,0,1-.551.382" transform="translate(-670.164 -12.935)" fill="#fbf557"/>
          <path id="Path_474" data-name="Path 474" d="M672.121,44.557a8.3,8.3,0,0,0,3.231.828l3.72.431c1.716.2,3.624.5,4.672,1.875a.806.806,0,0,0,.394.347,1.128,1.128,0,0,0,.565-.121c.188-.054.453,0,.473.2a.927.927,0,0,0-.3.736l.424-.073a1.326,1.326,0,0,1-.327.965,6.866,6.866,0,0,0-1.048,3.073,5.139,5.139,0,0,1-.423,2.266c-.182.3-.448.544-.635.842a1.979,1.979,0,0,0-.3.907,1.941,1.941,0,0,0,1.972,2.025c1.094-.091,1.83-1.132,2.358-2.094a26.061,26.061,0,0,0,3.179-9.484,3.968,3.968,0,0,0-.064-1.656c-.38-1.2-1.667-1.825-2.837-2.289q-2.974-1.178-6.036-2.114a7.514,7.514,0,0,0-1.7-.372,7.928,7.928,0,0,0-1.546.1l-5.91.775c-.915.12-1.652-.028-1.327,1.093A3.134,3.134,0,0,0,672.121,44.557Z" transform="translate(-669.574 -13.096)" fill="#3d5e77"/>
          <path id="Path_475" data-name="Path 475" d="M686.217,44.447a4.92,4.92,0,0,1,1.65.895c1.1,1.036,1.006,2.82.534,4.256s-1.241,2.825-1.229,4.335c.223.2.542-.1.681-.365A18.05,18.05,0,0,0,689.8,47.32a2.583,2.583,0,0,0-.207-1.687,2.7,2.7,0,0,0-1.179-.886c-2.284-1.114-5.178-2.68-7.726-2.954C680.621,42.927,685.264,44.081,686.217,44.447Z" transform="translate(-670.387 -13.173)" fill="#4a6d82"/>
          <path id="Path_476" data-name="Path 476" d="M689.937,37.764a2.611,2.611,0,0,0,.678-.039c.842-.2,1.318-1.166,2.149-1.409a.341.341,0,0,1,.157-.017.36.36,0,0,1,.184.128,3.023,3.023,0,0,0,.415.439.555.555,0,0,0,.566.088.313.313,0,0,0,.08-.5.36.36,0,1,0,.646-.315.384.384,0,0,0,.712-.162c.022-.234-.165-.43-.323-.606-.23-.257-.422-.547-.662-.8a1.514,1.514,0,0,0-.885-.5,1.881,1.881,0,0,0-.8.14,10.484,10.484,0,0,0-1.683.752,13.213,13.213,0,0,1-1.29.7,2.408,2.408,0,0,1-1.431.191c-.3-.064-.723,1.528-.589,1.753.115.194.656.109.877.116Z" transform="translate(-670.963 -12.551)" fill="#edb38c"/>
          <path id="Path_477" data-name="Path 477" d="M691.215,17.6c.216.348.706.472.877.845a2.233,2.233,0,0,0-1.289,1.329c-.25.716-.149,1.59-.664,2.146a1.964,1.964,0,0,1-1.91.367,15.184,15.184,0,0,0-1.962-.549,2.817,2.817,0,0,0-2.3.849c-.136.143-.3.317-.492.282a.548.548,0,0,1-.31-.251l-.977-1.312a2.756,2.756,0,0,0,.714-1.884c-.009-.535-.175-1.056-.211-1.589a4.317,4.317,0,0,1,3.444-4.136,7.358,7.358,0,0,1,5.245.729C692.663,15.37,690.543,16.519,691.215,17.6Z" transform="translate(-670.508 -10.896)" fill="#edb38c"/>
          <path id="Path_478" data-name="Path 478" d="M689.905,15.425c.091.234-.236.407-.487.406-.486,0-.953-.191-1.437-.233a1.142,1.142,0,0,0-1.217.594,2.146,2.146,0,0,0,.041.966c.041.323-.037.721-.341.839-.267-.342-.174-.9-.5-1.182a.994.994,0,0,0-1.044-.012,1.35,1.35,0,0,0-.7.575c-.324.644.268,1.444.029,2.124a1.75,1.75,0,0,1-.409.588,2.12,2.12,0,0,1-.691.542.789.789,0,0,1-.832-.1c-.363-.343-.164-.944-.256-1.435-.1-.519-.54-.922-.634-1.442a2.177,2.177,0,0,1,.07-.865,6.888,6.888,0,0,1,.757-2.1,4.934,4.934,0,0,1,2.926-2.085,8.464,8.464,0,0,1,3.649-.086,4.344,4.344,0,0,1,1.518.488c.539.322,1.033.861,1.658.8a1.577,1.577,0,0,1-.586.334,2.431,2.431,0,0,1,.769.564.5.5,0,0,1-.4.226.513.513,0,0,1-.318.784c-.265.029-.562-.261-.832-.3.066.036.139.125.208.169C690.677,15.645,690,15.666,689.905,15.425Z" transform="translate(-670.446 -10.803)" fill="#9e5e32"/>
          <path id="Path_479" data-name="Path 479" d="M685.9,18.843c0,.032-.045.049-.073.031a.133.133,0,0,1-.046-.084.61.61,0,0,1-.018-.366.22.22,0,0,1,.3-.137.511.511,0,0,0-.762-.62.887.887,0,0,0-.29.434.773.773,0,0,0-.061.422.875.875,0,0,0,.167.316l.245.339c.079.109.178.23.313.234a.3.3,0,0,0,.272-.256.762.762,0,0,0-.061-.4" transform="translate(-670.73 -11.223)" fill="#c19272"/>
          <path id="Path_480" data-name="Path 480" d="M691.223,18.42a1.231,1.231,0,0,1,.691-.177.777.777,0,0,1,.558.828,2.262,2.262,0,0,1-.4,1.006c-.317.533-.634,1.068-.959,1.6a2.678,2.678,0,0,1-.81.941,1.828,1.828,0,0,1-1.509.1,5.409,5.409,0,0,1-1.357-.76c.019-.279.3-.452.487-.657a1.925,1.925,0,0,0,.392-1.524c-.085-.843.4-.639,1.08-.769A7.833,7.833,0,0,0,691.223,18.42Z" transform="translate(-670.931 -11.276)" fill="#ceeae8"/>
          <path id="Path_481" data-name="Path 481" d="M686.651,18.069a17.9,17.9,0,0,0,1.975,1.265c.109.06.207-.107.1-.167a17.9,17.9,0,0,1-1.975-1.265C686.649,17.828,686.552,18,686.651,18.069Z" transform="translate(-670.864 -11.248)" fill="#ceeae8"/>
          <path id="Path_482" data-name="Path 482" d="M684.427,19.961q1.568,1.058,3.08,2.194c.1.075.2-.093.1-.166q-1.512-1.136-3.08-2.195C684.422,19.725,684.325,19.891,684.427,19.961Z" transform="translate(-670.685 -11.4)" fill="#ceeae8"/>
          <path id="Path_483" data-name="Path 483" d="M688.943,20.373a1.083,1.083,0,0,1,.12-.557.965.965,0,0,1,.576-.291,4.544,4.544,0,0,0,1.09-.454.423.423,0,0,1,.193-.076c.161-.006.272.177.262.337a1.311,1.311,0,0,1-.167.448l-.017.086c.009.032.041.052.066.074a.34.34,0,0,1,.018.451.6.6,0,0,1-.437.2c-.109.008-.241.011-.293.107a.332.332,0,0,0-.025.151,1.156,1.156,0,0,1-.885,1.068.856.856,0,0,1,.045.319.153.153,0,0,1-.039.111c-.05.044-.128.014-.186-.017-.361-.2-.88-.3-.756-.764C688.621,21.147,688.943,20.851,688.943,20.373Z" transform="translate(-671.016 -11.337)" fill="#b7cecc"/>
          <path id="Path_484" data-name="Path 484" d="M684.871,18.92a1.007,1.007,0,0,0,.476-.119.967.967,0,0,0,.31-.376c.385-.718.476-1.637,1.023-2.212.669-.7,1.719-.611,2.643-.612a9.278,9.278,0,0,0,2.2-.268.944.944,0,0,0,.379-.157.934.934,0,0,0,.28-.708,3.068,3.068,0,0,0-1.421-2.4,6.894,6.894,0,0,0-4.505-1.388,7.027,7.027,0,0,0-4.35,1.894,4.321,4.321,0,0,0-1.387,2.265,5.371,5.371,0,0,0,.007,1.712A4.619,4.619,0,0,0,680.9,18C681.65,19.532,683.573,19.019,684.871,18.92Z" transform="translate(-670.368 -10.666)" fill="#f0d634"/>
          <path id="Path_485" data-name="Path 485" d="M683.77,11.475a5.214,5.214,0,0,0-2.552,1.757,3.1,3.1,0,0,0-.438,2.976,1.2,1.2,0,0,0,.611.678,1.113,1.113,0,0,0,1.136-.337c.589-.589.9-1.4,1.5-2.005.489-.491,1.1-.718,1.618-1.149a1.21,1.21,0,0,0,.306-1.538C685.506,11.079,684.474,11.23,683.77,11.475Z" transform="translate(-670.378 -10.716)" fill="#fbf557"/>
          <path id="Path_486" data-name="Path 486" d="M685.654,22.111l.01.091-.062.052a1.88,1.88,0,0,1-.356.138,12.154,12.154,0,0,1-.579-2.643.6.6,0,0,1,.017-.283c.061-.153.432-.367.572-.229.087.084-.013.821,0,.965A6.5,6.5,0,0,0,685.654,22.111Z" transform="translate(-670.707 -11.353)" fill="#681616"/>
          <path id="Path_487" data-name="Path 487" d="M689.932,17.03a2.246,2.246,0,0,1,1.135-.234c.189,0,.391-.054.395-.276l-.016-.021a2.5,2.5,0,0,0-.379.021,2.419,2.419,0,0,0-.475.019,1.134,1.134,0,0,0-.741.409C689.816,17,689.882,17.055,689.932,17.03Z" transform="translate(-671.124 -11.136)" fill="#4c3729"/>
          <path id="Path_488" data-name="Path 488" d="M690.047,17.666a2.035,2.035,0,0,1,.791-.19c.141-.021.307-.043.379-.177a.038.038,0,0,0-.042-.055c-.093.024-.169.08-.262.108s-.206.043-.308.068a1.8,1.8,0,0,0-.561.239Z" transform="translate(-671.141 -11.196)" fill="#4c3729"/>
          <path id="Path_489" data-name="Path 489" d="M690.754,17.46c-.02.086-.075.3.063.325s.154-.2.135-.3l-.054-.054-.016,0-.062.025-.017.074.015.051v.07l.017-.035-.006-.043c-.005-.038-.016-.075-.022-.113Z" transform="translate(-671.196 -11.211)" fill="#4c3729"/>
          <path id="Path_490" data-name="Path 490" d="M690.413,17.81a.612.612,0,0,0,.334.075c.087-.006.219-.026.261-.113l-.017-.029a1.081,1.081,0,0,0-.22.063.537.537,0,0,1-.33-.043C690.409,17.749,690.382,17.793,690.413,17.81Z" transform="translate(-671.169 -11.236)" fill="#4c3729"/>
          <path id="Path_491" data-name="Path 491" d="M690.669,18.037a.24.24,0,0,0,.15-.029l-.013-.047c-.046,0-.09.011-.137.011A.033.033,0,0,0,690.669,18.037Z" transform="translate(-671.189 -11.254)" fill="#4c3729"/>
        </g>
      </g>
    </g>
  </g>
</svg>
